<svg xmlns="http://www.w3.org/2000/svg" viewBox="0 0 326.95 121.09"><defs><style>.cls-1{fill:#ececec;}.cls-2{fill:#f5f5f5;}.cls-3{fill:#c5c5c5;}.cls-4{fill:#585858;}.cls-5{fill:#313131;}.cls-6{fill:#797979;}.cls-7{fill:#2b2b2b;}.cls-8{fill:#6b6b6b;}.cls-9{fill:#3c3c3c;}.cls-10{fill:#363636;}.cls-11{fill:#252525;}.cls-12{fill:#171717;}</style></defs><title>logoAsset 3</title><g id="Layer_2" data-name="Layer 2"><g id="Layer_1-2" data-name="Layer 1"><path class="cls-1" d="M141.89,34.11l.08,0a24.34,24.34,0,0,0-.47-2.55c-.12-.16-.25-.32-.36-.48a5.4,5.4,0,0,1-.71-2.91v-.09a1.72,1.72,0,0,0-.07-.21l-.73,1.73c-.08,0-.14-.06-.15-.09a.88.88,0,0,0,0-.15,2.14,2.14,0,0,0,.12,1.05c.38,1.07.67,2.18,1.08,3.25a1.23,1.23,0,0,0,.78.78l.06.07c.15.17.31.32.47.47h0l.15.15a3.37,3.37,0,0,1-.21-1v0"/><path class="cls-2" d="M142.43,35.46a.71.71,0,0,0,.15.15l-.14.12c.5,0,1,.07,1.49.14a3.45,3.45,0,0,1,.43-.12h.09a.42.42,0,0,0,.09-.14,2.82,2.82,0,0,1-2.11-.14"/><path class="cls-1" d="M196.94,7.57c-.67-.68-1.35-1.35-1.95-2.07-1-1.25-2-2.56-3-3.81a3.09,3.09,0,0,0-1.07-.83,11.6,11.6,0,0,0-2-.72,2.72,2.72,0,0,0-1.38-.08,4.4,4.4,0,0,1-2.93,0,1,1,0,0,0-1.37,1c-.55,0-1.1-.05-1.63-.12-1.11-.14-2.2-.41-3.31-.47a7.93,7.93,0,0,0-4.83.91,8.51,8.51,0,0,1-2.94,1.08c-2.82.63-5.63,1.26-8.47,1.72a31.71,31.71,0,0,1-5.59.37c-2.16-.05-4.33-.34-6.49-.57-.9-.09-1.79-.31-2.68-.47a18,18,0,0,0-2.79-.43,31.11,31.11,0,0,0-3.33.26c-.27,0-.53,0-.79.09-1.79.35-3.58.69-5.36,1.07a18.82,18.82,0,0,0-2.34.64,3,3,0,0,0-2.1,2,20.09,20.09,0,0,0-.92,6.66,12,12,0,0,0,.41,2.93,6.93,6.93,0,0,1-.27,5,4,4,0,0,0-.32,2.24,41.57,41.57,0,0,0,1.47,4.28c0,.05.1.07.22.14.33-.8.66-1.58,1.05-2.51A37.11,37.11,0,0,1,134.52,35l-.12,0v.05a4.65,4.65,0,0,0,.33,1.5,3.51,3.51,0,0,0,.33.34c.91.78,2.36.38,3.49.22l.29-.2.52-.44a1.47,1.47,0,0,1-.66-.33,2.47,2.47,0,0,1-.28-.28,4.06,4.06,0,0,1-.25-1.07,1.43,1.43,0,0,1-.84-.89c-.48-1.26-.82-2.57-1.28-3.84a3.9,3.9,0,0,1,.32-2.87c0-.1-.07-.2-.11-.31-.33.79-.61,1.44-.89,2.12-.1-.06-.17-.08-.18-.11A35.16,35.16,0,0,1,134,25.28a3.29,3.29,0,0,1,.27-1.89,5.88,5.88,0,0,0,.22-4.21,10.67,10.67,0,0,1-.35-2.47,17,17,0,0,1,.78-5.62,2.55,2.55,0,0,1,1.78-1.71,15.12,15.12,0,0,1,2-.54c1.51-.32,3-.61,4.53-.91.22,0,.44,0,.67-.07.94-.08,1.88-.24,2.81-.23A17.28,17.28,0,0,1,149,8c.76.13,1.5.32,2.26.4,1.83.19,3.66.44,5.49.48a25.72,25.72,0,0,0,4.72-.32c2.4-.38,4.78-.92,7.15-1.44a7.22,7.22,0,0,0,2.49-.92,6.63,6.63,0,0,1,4.08-.76c.94,0,1.86.27,2.79.39.46.06.92.07,1.38.1a.85.85,0,0,1,1.16-.88A3.64,3.64,0,0,0,183,5a2.42,2.42,0,0,1,1.16.07,10.44,10.44,0,0,1,1.73.61,2.62,2.62,0,0,1,.91.71c.86,1,1.67,2.15,2.53,3.21.51.61,1.08,1.18,1.65,1.75a1.83,1.83,0,0,1,.39.54c.36-.3.73-.6,1.1-.88s1-.65,1.34-.54a3.83,3.83,0,0,0,2.63-.5c1.31-.52,1.46-1.46.5-2.43m-64.21,16.1c-.25-2.13-.49-4.21-.74-6.43,1.24,1.55,1.62,5,.74,6.43"/><path class="cls-2" d="M187.92,13.91a1.86,1.86,0,0,0-.47.23l.47-.23"/><path class="cls-1" d="M171.79,26.62c-.2.12-.4.23-.61.33l0,.12A8.85,8.85,0,0,1,170.2,30a4.48,4.48,0,0,0-.15,1.95,9.33,9.33,0,0,0,.23,1.37,2.85,2.85,0,0,0,.14.59,11,11,0,0,0,.89,2.13c-.49,0-1,.14-1.45.23l.1.1.1.14a4.25,4.25,0,0,0,.43.31,4.83,4.83,0,0,1,1,.33l.42-.1a15.32,15.32,0,0,1,1.78-.28,14,14,0,0,1-1.06-2.53,4.65,4.65,0,0,1-.16-.7,10.14,10.14,0,0,1-.27-1.62,5.14,5.14,0,0,1,.18-2.3,10.68,10.68,0,0,0,1.11-3.5.41.41,0,0,1,0-.08,4,4,0,0,1-1.7.56"/><path class="cls-1" d="M136.11,19.55c.21,1.87.41,3.63.62,5.43.75-1.24.43-4.12-.62-5.43"/><path class="cls-1" d="M182.86,17.21a.88.88,0,0,0-.59.15,14,14,0,0,0-2.09,1.84,15.91,15.91,0,0,0-2.33,3.23,8.31,8.31,0,0,1-3.45,3.17,6.68,6.68,0,0,0,2.19-.82,10.48,10.48,0,0,0,4.81-4.13,19.25,19.25,0,0,1,2.44-3.46,1.63,1.63,0,0,1-1,0"/><path class="cls-3" d="M140.73,26.29a4.82,4.82,0,0,0-.51-4.43c.18,1.53.35,3,.51,4.43"/><path class="cls-3" d="M145.81,34.49a2.79,2.79,0,0,1-.17-.8v0h.05c-.58-.83-1.24-1.61-1.85-2.42a4.62,4.62,0,0,1-.59-2.46h0a2.72,2.72,0,0,0-.21,1.95c.32.87.56,1.78.88,2.65a1,1,0,0,0,.65.63l.05.07a3.41,3.41,0,0,0,.38.38h0l.28.28a2.71,2.71,0,0,0,.23.24l-.26.22c.31,0,.63.05.94.09l.37-.09h.08l.08-.13a.69.69,0,0,0,0-.13,1.17,1.17,0,0,1-.75-.25l-.18-.18"/><path class="cls-3" d="M191.37,11.92a1.83,1.83,0,0,0-.39-.54c-.56-.57-1.14-1.14-1.65-1.75-.86-1.06-1.67-2.16-2.53-3.21a2.62,2.62,0,0,0-.91-.71,10.44,10.44,0,0,0-1.73-.61A2.3,2.3,0,0,0,183,5a3.7,3.7,0,0,1-2.48,0,.85.85,0,0,0-1.16.88c-.46,0-.92,0-1.38-.1-.93-.12-1.85-.34-2.79-.39a6.63,6.63,0,0,0-4.08.76,7.22,7.22,0,0,1-2.49.92c-2.37.52-4.75,1.06-7.15,1.44a25.72,25.72,0,0,1-4.72.32c-1.83,0-3.66-.29-5.49-.48-.76-.08-1.5-.27-2.26-.4a17.28,17.28,0,0,0-2.36-.37c-.93,0-1.87.15-2.81.23-.23,0-.45,0-.67.07-1.51.3-3,.59-4.53.91a15.12,15.12,0,0,0-2,.54,2.55,2.55,0,0,0-1.78,1.71,17,17,0,0,0-.78,5.62,10.16,10.16,0,0,0,.36,2.47,5.94,5.94,0,0,1-.23,4.21,3.29,3.29,0,0,0-.27,1.89,35.16,35.16,0,0,0,1.24,3.62s.08.05.18.11l.89-2.12c0,.11.07.21.11.31a30.79,30.79,0,0,1,1.86,7.34l-.09,0v0a1.38,1.38,0,0,0,0,.2,4.06,4.06,0,0,0,.25,1.07,2.47,2.47,0,0,0,.28.28,1.47,1.47,0,0,0,.66.33,6.33,6.33,0,0,0,2.29-.14l.25-.17s.3-.25.53-.44l.14-.12a.71.71,0,0,1-.15-.15l-.08-.05a2.5,2.5,0,0,1-.23-.23s0,0,0-.06L142,35h0c-.16-.15-.32-.3-.47-.47l-.06-.07a1.23,1.23,0,0,1-.78-.79c-.41-1.06-.7-2.17-1.08-3.24a2.15,2.15,0,0,1-.12-1.05,25.85,25.85,0,0,1-1-2.81,2.77,2.77,0,0,1,.22-1.54,4.83,4.83,0,0,0,.19-3.43,8.49,8.49,0,0,1-.29-2,14,14,0,0,1,.63-4.59,2.14,2.14,0,0,1,1.46-1.4,14.13,14.13,0,0,1,1.61-.44c1.23-.26,2.46-.49,3.69-.73a3.43,3.43,0,0,1,.55-.06,22.06,22.06,0,0,1,2.3-.19,12.76,12.76,0,0,1,1.92.3c.62.11,1.23.26,1.85.33,1.49.15,3,.36,4.48.39a21.61,21.61,0,0,0,3.85-.26c2-.31,3.9-.75,5.84-1.18a6,6,0,0,0,2-.75,5.41,5.41,0,0,1,3.33-.62c.76,0,1.52.22,2.28.32.37.05.74.05,1.13.08a.69.69,0,0,1,.94-.72,3,3,0,0,0,2,0,1.82,1.82,0,0,1,.95.06,7.85,7.85,0,0,1,1.41.49,2.1,2.1,0,0,1,.74.58c.71.86,1.36,1.76,2.07,2.62.42.5.89,1,1.35,1.43a1.49,1.49,0,0,1,.37.57c.61-.48,1.19-1,1.81-1.45l.25-.17a1.86,1.86,0,0,1,.47-.23.61.61,0,0,1,.41-.05,3.24,3.24,0,0,0,2.22-.43c.86-.34,1.13-.9.82-1.51M136.73,25c-.21-1.8-.41-3.56-.62-5.43,1,1.31,1.37,4.19.62,5.43"/><path class="cls-3" d="M170.42,33.93a2.85,2.85,0,0,1-.14-.59,9.33,9.33,0,0,1-.23-1.37A4.49,4.49,0,0,1,170.2,30a8.85,8.85,0,0,0,.94-2.95.56.56,0,0,1,0-.12,1.24,1.24,0,0,1-.2.1,3.56,3.56,0,0,1-1.82.58c-.08.05-.15.11-.23.15a.75.75,0,0,0-.11.22,7.44,7.44,0,0,1-.76,2.41.49.49,0,0,0,0,.11,16.35,16.35,0,0,1,0,2.1c0,.17.07.33.1.49a2.67,2.67,0,0,0,.11.48,10,10,0,0,0,.73,1.75c-.32,0-.63.08-.94.14a.28.28,0,0,0,0,.09.8.8,0,0,1,.16.16l.08.12.36.26a4.63,4.63,0,0,1,.82.27l.36-.08h.05c.48-.09,1-.18,1.45-.23a11,11,0,0,1-.89-2.13"/><path class="cls-3" d="M177.85,22.43a15.91,15.91,0,0,1,2.33-3.23,14,14,0,0,1,2.09-1.84l-.33.22c-.67.5-1.28,1.07-2,1.56a1.91,1.91,0,0,1-.66.23c.17.37,0,.72-.54.93a2,2,0,0,1-1.4.26h-.12c-.37.32-.72.66-1.06,1a13.41,13.41,0,0,0-1.9,2.64,6.53,6.53,0,0,1-2.51,2.41,4,4,0,0,0,1.7-.56l.3-.14.61-.32a8.31,8.31,0,0,0,3.45-3.17"/><path class="cls-4" d="M144.65,26.79l.09.81a3,3,0,0,0,.23-1.7,8.53,8.53,0,0,1-.32.89"/><path class="cls-4" d="M144.34,24.17c.09.76.18,1.49.26,2.22a3.58,3.58,0,0,0,.29-1,3.14,3.14,0,0,0-.55-1.24"/><path class="cls-4" d="M166,30.58c0,.07-.06.14-.1.21a2.93,2.93,0,0,0-.1,1.23,6.6,6.6,0,0,0,.15.87,1.9,1.9,0,0,0,.08.34,8.12,8.12,0,0,0,0-2.65"/><path class="cls-4" d="M147.7,33.57l0,0,.29.29h0l.22.22a.76.76,0,0,0,.18.18l-.39.33.41.05.3-.08h.06l.07-.11c.1-.25-.18-.5-.41-.7a.91.91,0,0,1-.36-.33c-.43-.64-.93-1.24-1.4-1.85.15.48.3,1,.48,1.45a.78.78,0,0,0,.5.49"/><path class="cls-4" d="M145.31,33a.4.4,0,0,0,.09.17.46.46,0,0,0,.07.07,1.75,1.75,0,0,0,.19.2,19.64,19.64,0,0,0-1.21-4.58c-.12.27-.22.52-.32.76l.12.35a16,16,0,0,1,1.06,3"/><path class="cls-4" d="M168.23,33.59a2.67,2.67,0,0,1-.11-.48c0-.16-.07-.32-.1-.49a3.31,3.31,0,0,1-.09-.62,4.26,4.26,0,0,1,.09-1.48.49.49,0,0,1,0-.11,7.44,7.44,0,0,0,.76-2.41.75.75,0,0,1,.11-.22,6.79,6.79,0,0,1-.75.41,2.75,2.75,0,0,1-1.44.45c-.07,0-.22.18-.23.28a5.87,5.87,0,0,1-.31,1.2,13,13,0,0,1,0,3.24.48.48,0,0,1,0,.17,8,8,0,0,0,.46,1.08l-.37,0a1.93,1.93,0,0,1,0,.27.58.58,0,0,1,.13.14l.07.09.29.21a3.12,3.12,0,0,1,.67.23l.3-.07.28-.05c.31-.06.62-.11.94-.14a10,10,0,0,1-.73-1.75"/><path class="cls-4" d="M176.67,20.85c-.52.39-1,.83-1.52,1.21a3,3,0,0,1-.7.23A6.3,6.3,0,0,0,172.22,24a9.63,9.63,0,0,0-1.47,2,4.89,4.89,0,0,1-1.59,1.64,3.59,3.59,0,0,0,1.82-.58l.2-.1c.21-.1.41-.21.61-.33a6.53,6.53,0,0,0,2.51-2.41,13.41,13.41,0,0,1,1.9-2.64c.34-.35.69-.69,1.06-1a1.42,1.42,0,0,0-.59.29"/><path class="cls-4" d="M185.39,15.76a1.49,1.49,0,0,0-.37-.57c-.46-.47-.93-.93-1.35-1.43-.71-.86-1.36-1.76-2.07-2.62a2.1,2.1,0,0,0-.74-.58,7.85,7.85,0,0,0-1.41-.49,1.82,1.82,0,0,0-.95-.06,3,3,0,0,1-2,0,.69.69,0,0,0-.94.72c-.39,0-.76,0-1.13-.08-.76-.1-1.52-.28-2.28-.32a5.41,5.41,0,0,0-3.33.62,6,6,0,0,1-2,.75c-1.94.43-3.88.87-5.84,1.18a21.61,21.61,0,0,1-3.85.26c-1.5,0-3-.24-4.48-.39-.62-.07-1.23-.22-1.85-.33a12.76,12.76,0,0,0-1.92-.3,22.06,22.06,0,0,0-2.3.19,5.11,5.11,0,0,0-.55,0c-1.23.25-2.46.48-3.69.74a14.13,14.13,0,0,0-1.61.44,2.14,2.14,0,0,0-1.46,1.4,14,14,0,0,0-.63,4.59,8.49,8.49,0,0,0,.29,2,4.83,4.83,0,0,1-.19,3.43,2.77,2.77,0,0,0-.22,1.54,25.85,25.85,0,0,0,1,2.81.88.88,0,0,1,0,.15s.07,0,.15.09l.73-1.73c0,.07,0,.14.07.21a24,24,0,0,1,1.07,3.48,24.34,24.34,0,0,1,.47,2.55l-.08,0v0a3.37,3.37,0,0,0,.21,1s0,0,0,.06a2.5,2.5,0,0,0,.23.23l.08.05a2.82,2.82,0,0,0,2.11.14l.21,0,.21-.13.29-.24.26-.22a2.71,2.71,0,0,1-.23-.24l-.29-.28h0a3.41,3.41,0,0,1-.38-.38l-.05-.07a1,1,0,0,1-.65-.63c-.32-.87-.56-1.78-.88-2.65a2.72,2.72,0,0,1,.21-1.95.14.14,0,0,0,0-.06c-.1-.3-.2-.6-.27-.91a2,2,0,0,1,.17-1.2,3.73,3.73,0,0,0,.14-2.65,6.83,6.83,0,0,1-.22-1.57,10.5,10.5,0,0,1,.49-3.56,1.62,1.62,0,0,1,1.12-1.08,11,11,0,0,1,1.25-.34c1-.2,1.91-.39,2.87-.57a2.84,2.84,0,0,1,.42-.05,17.78,17.78,0,0,1,1.78-.14,11,11,0,0,1,1.49.23c.48.09.95.2,1.43.25,1.16.13,2.31.28,3.47.31a17.61,17.61,0,0,0,3-.2c1.51-.25,3-.58,4.52-.92a4.59,4.59,0,0,0,1.57-.58,4.22,4.22,0,0,1,2.59-.48c.59,0,1.17.17,1.76.25.29,0,.58,0,.88.06a.53.53,0,0,1,.73-.55A2.32,2.32,0,0,0,174,15a1.44,1.44,0,0,1,.74,0,6.12,6.12,0,0,1,1.09.38,1.6,1.6,0,0,1,.58.45c.55.67,1.05,1.36,1.6,2,.32.39.69.75,1,1.11a1.13,1.13,0,0,1,.27.37,1.91,1.91,0,0,0,.66-.23c.68-.49,1.29-1.06,2-1.56a2.8,2.8,0,0,1,.34-.21.84.84,0,0,1,.59-.16,1.63,1.63,0,0,0,1,0c.29-.09.56-.22.83-.33.64-.25.87-.65.72-1.1M140.73,26.29c-.16-1.47-.33-2.9-.51-4.43a4.82,4.82,0,0,1,.51,4.43"/><path class="cls-5" d="M164.26,33.53a3.41,3.41,0,0,1,.22.46,1.7,1.7,0,0,1,.06.31.94.94,0,0,1,.1.1.35.35,0,0,0,.05.08l.23.16a3.16,3.16,0,0,1,.52.17l.22-.05.58-.1.37,0a8,8,0,0,1-.46-1.08,2.15,2.15,0,0,1-.1-.27v0a1.9,1.9,0,0,1-.08-.34,5.25,5.25,0,0,1-.14-.87,2.78,2.78,0,0,1,.09-1.23,2,2,0,0,0,.1-.21c.07-.15.13-.3.19-.46a5.29,5.29,0,0,0,.31-1.2c0-.1.16-.29.23-.28a2.75,2.75,0,0,0,1.44-.45,6.79,6.79,0,0,0,.75-.41c.08,0,.15-.1.23-.15A4.89,4.89,0,0,0,170.75,26a9.63,9.63,0,0,1,1.47-2,6.3,6.3,0,0,1,2.23-1.66,3,3,0,0,0,.7-.23c.53-.38,1-.82,1.52-1.21a1.52,1.52,0,0,1,.6-.29s.08,0,.11,0a2.08,2.08,0,0,0,1.4-.27c.54-.21.71-.56.54-.93a1.13,1.13,0,0,0-.27-.37c-.35-.36-.72-.72-1-1.11-.55-.67-1-1.36-1.6-2a1.6,1.6,0,0,0-.58-.45,7,7,0,0,0-1.09-.38,1.44,1.44,0,0,0-.74,0,2.32,2.32,0,0,1-1.56,0,.53.53,0,0,0-.73.55c-.3,0-.59,0-.88-.06-.59-.08-1.17-.22-1.76-.25a4.22,4.22,0,0,0-2.59.48,4.59,4.59,0,0,1-1.57.58c-1.5.34-3,.67-4.52.92a17.54,17.54,0,0,1-3,.2c-1.16,0-2.31-.18-3.47-.31-.48-.05-1-.16-1.43-.25a11,11,0,0,0-1.49-.23,17.78,17.78,0,0,0-1.78.14,3,3,0,0,0-.42.05c-1,.18-1.91.37-2.87.57a11,11,0,0,0-1.25.34,1.62,1.62,0,0,0-1.12,1.08,10.5,10.5,0,0,0-.49,3.56,6.67,6.67,0,0,0,.22,1.56,3.75,3.75,0,0,1-.14,2.66,2.1,2.1,0,0,0-.17,1.2c.07.31.17.61.27.91.16.46.35.92.51,1.38,0,0,0,0,.12.07l.24-.58c.1-.24.2-.49.32-.76a19.64,19.64,0,0,1,1.21,4.58c0,.09,0,.17,0,.26h-.07v0a2.79,2.79,0,0,0,.17.8l.18.18a1.17,1.17,0,0,0,.75.25,7.84,7.84,0,0,0,1.11-.13l.16-.11,0,0,.39-.33a.76.76,0,0,1-.18-.18l-.22-.22h0l-.29-.29,0,0a.78.78,0,0,1-.5-.49c-.18-.48-.33-1-.48-1.45-.07-.2-.13-.41-.2-.61a2.51,2.51,0,0,1,.27-1.78,7.56,7.56,0,0,1,.65-1,3.1,3.1,0,0,0,.54-1.61,3.15,3.15,0,0,0-.09-.58.69.69,0,0,1,.24.86,5,5,0,0,1-.62,1.52,1.92,1.92,0,0,0,0,2,12.86,12.86,0,0,1,.83,2.35.28.28,0,0,0,.06.14l.06.05c.16.19.41.39.63.62a2.67,2.67,0,0,0,.81.47c.29,0,.58,0,.88.08a1.55,1.55,0,0,1,.23-.06h0a.56.56,0,0,0,.05-.08c.08-.19-.14-.39-.32-.54a.7.7,0,0,1-.27-.25c-.39-.56-.83-1.08-1.24-1.63a2.89,2.89,0,0,1-.37-1.55,5.06,5.06,0,0,1,.1-1.16.93.93,0,0,1,.48-.72,1.65,1.65,0,0,0,.87-1.72c0-.33.09-.49.42-.45a8.93,8.93,0,0,1,1.65.33c1,.32,1.89.7,2.82,1.09a2.44,2.44,0,0,0,1.93,0,10.67,10.67,0,0,1,1.44-.5,2.47,2.47,0,0,1,.94,0c1,.1,1.94.21,2.91.36s1.66.62,1.68,1.66a3.1,3.1,0,0,0,.17.73,10.48,10.48,0,0,1,.21,3.51c-.11.43-.22.45-.22.45M144.74,27.6l-.09-.81-.05-.4c-.08-.73-.17-1.46-.26-2.22a3,3,0,0,1,.55,1.24c0,.16.06.33.08.49a2.89,2.89,0,0,1-.23,1.7"/><path class="cls-5" d="M164.26,33.34a7.36,7.36,0,0,0,0-2.94c-.22,1-.91,2-.05,3,0,0,0,0,.07-.08"/><polygon class="cls-6" points="11.51 70.06 7.71 70.06 7.71 66.16 7.67 66.16 7.67 70.11 11.51 70.11 11.51 70.06"/><polygon class="cls-6" points="18.36 73.08 18.36 73.09 19.21 73.94 19.21 75.4 19.21 75.41 19.21 84.57 19.25 84.53 19.25 75.35 19.25 75.35 19.25 73.88 18.4 73.03 18.4 73.05 18.36 73.08"/><polygon class="cls-6" points="11.51 82.71 11.51 82.65 7.71 82.65 7.71 78.78 7.67 78.78 7.67 82.71 11.51 82.71"/><polygon class="cls-6" points="2.05 57.55 2.05 57.61 15.44 57.61 19.21 61.28 19.21 70.33 19.21 70.34 19.21 71.82 19.24 71.78 19.24 70.29 19.25 70.28 19.25 61.23 15.48 57.55 2.05 57.55"/><path class="cls-3" d="M19.21,70.33v-9l-3.77-3.67H2v0H2v.06h0v.05h0v.06h0v.05h0v.06h0V58h0v.06h0v.05h0v.06h0v.05h0v.06h0v0h0v.06h0v0h0v.06h0v0h0v.06h0v0h0v.06h0v0h0v.06h0v0h0v.06h0v0h0V59h0v.05H1v.06H1v.05H1v.06h0v.05h0v.06h0v.05h0v.06h0v.05h0v.06h0v0h0v.06h0v0h0v.06h0v0h0v.06h0v0h0V60h0v0h0v.06h0v0h0v.06h0v0h0v.06h0v0h0v.06h0v.05h0v.06H0v.05H0V91.28H13.43l3.77-3.67v0l0,0v0l0,0v0l0,0v0l0,0v0l0,0v0l0,0v0l0,0v0l0,0v0l0,0v0l0,0v0l0,0v0l0,0v0l0,0v0l0,0v0l0,0v0l0,0v0l0,0v0l0,0v0l0,0v0l0,0v0l0,0v0l0,0v0l0,0v0l0,0v0l0,0v0l0,0v0l0,0v0l0,0v0l0,0v0l0,0v0l0,0v0l0,0v0l0,0v0l0,0v0l0,0v0l0,0v0l0,0v0l0,0v0l0,0v0l0,0v0l0,0v0l0,0v0l0,0v0l0,0v0l0,0v0l0,0v0l0,0v0l0,0v0l0,0v0l0,0v0l0,0v0l0,0v0l0,0v0l0,0v0l0,0V75.4h0V73.94l-.85-.85h0l0,0v0h0l0,0h0l0,0v0l0,0h0l0,0v0l0,0h0l0,0v0l0,0h0l0,0v0l0,0h0l0,0v0l0,0h0l0,0v0l0,0h0l0,0v0l0,0h0l0,0v0l0,0h0l0,0v0l0,0h0l0,0v0l0,0h0l0,0v-1.5ZM7.71,78.78h3.16l.64.64v3.29H7.67V78.78Zm0-12.62h3.2l.64.65v3.25H7.67Z"/><path class="cls-7" d="M4.87,60.36h9.25l-1.2,2.72H7.69L4.87,60.36"/><polygon class="cls-8" points="4.87 60.36 14.12 60.36 15.45 57.51 2.05 57.51 4.87 60.36"/><polygon class="cls-9" points="15.45 57.51 19.25 61.23 16.2 62.47 14.12 60.36 15.45 57.51"/><polygon class="cls-5" points="12.92 63.08 14.12 60.36 16.2 62.47 13.56 63.73 12.92 63.08"/><polygon class="cls-8" points="7.69 82.63 12.86 82.63 14.13 85.39 4.92 85.39 7.69 82.63"/><polygon class="cls-7" points="2.05 88.2 4.92 85.39 14.14 85.39 15.48 88.21 2.05 88.2"/><polygon class="cls-7" points="7.69 75.7 12.92 75.7 13.95 72.9 4.92 72.9 7.69 75.7"/><polygon class="cls-8" points="7.69 70.11 12.92 70.11 13.95 72.91 4.92 72.91 7.69 70.11"/><polygon class="cls-4" points="13.56 63.73 13.56 69.35 16.2 70.51 16.2 62.47 13.56 63.73"/><polygon class="cls-10" points="19.25 61.23 16.2 62.47 16.2 70.51 19.24 71.78 19.25 61.23"/><polygon class="cls-6" points="12.92 70.11 13.56 69.35 16.2 70.51 13.95 72.91 12.92 70.11"/><polygon class="cls-11" points="13.95 72.91 16.2 70.51 19.24 71.78 18.2 72.83 13.95 72.91"/><polygon class="cls-10" points="16.3 75.12 16.3 83.23 19.25 84.53 19.25 73.88 16.3 75.12"/><polygon class="cls-6" points="12.86 82.63 13.56 81.97 16.3 83.23 14.14 85.39 12.86 82.63"/><polygon class="cls-9" points="13.95 72.91 16.3 75.12 19.25 73.88 18.2 72.83 13.95 72.91"/><polygon class="cls-5" points="12.92 75.7 13.95 72.91 16.3 75.12 13.56 76.34 12.92 75.7"/><polygon class="cls-4" points="13.56 76.34 13.56 81.97 16.3 83.23 16.3 75.12 13.56 76.34"/><polygon class="cls-11" points="16.3 83.23 14.14 85.39 15.48 88.2 19.25 84.53 16.3 83.23"/><polygon class="cls-6" points="40.38 82.65 37.29 82.65 36.55 81.91 36.55 66.14 36.51 66.14 36.51 81.97 37.25 82.71 40.38 82.71 40.38 82.65"/><polygon class="cls-6" points="34.66 57.55 30.89 61.23 30.89 61.24 34.63 57.61 44.28 57.61 48.05 61.28 48.05 84.53 48.09 84.49 48.09 61.23 44.32 57.55 34.66 57.55"/><path class="cls-3" d="M44.28,57.61H34.63l-3.74,3.63,0,0v0l0,0v0l0,0v0l0,0h0l0,0v0l0,0h0l0,0v0l0,0h0l0,0v0l0,0h0l0,0v0l0,0v0l0,0v0l0,0h0l0,0v0l0,0h0l0,0v0l0,0v0l0,0v0l0,0v0l0,0v0l0,0v0l0,0v0l0,0h0l0,0v0l0,0h0l0,0v0l0,0v0l0,0v0l0,0v0l0,0v0l0,0v0l0,0v0l0,0v0l0,0v0l0,0v0l0,0v0l0,0v0l0,0v0l0,0h0l0,0v0l0,0v0l0,0v0l0,0v0l0,0v0l0,0v0l0,0v0l0,0v0l0,0v0l0,0v0l0,0v0l0,0v0l0,0v0l0,0v0l0,0v0l0,0V87.57l3.77,3.71h9.65L46,87.57v0l0,0v0l0,0v0l0,0v0l0,0v0l0,0v0l0,0v0l0,0v0l0,0v0l0,0v0l0,0v0l0,0v0l0,0v0l0,0v0l0,0v0l0,0v0l0,0v0l0,0v0l0,0v0l0,0v0l0,0v0l0,0v0l0,0v0l0,0v0l0,0v0l0,0v0l0,0v0l0,0v0l0,0v0l0,0v0l0,0v0l0,0v0l0,0v0l0,0v0l0,0v0l0,0v0l0,0v0l0,0v0l0,0v0l0,0v0l0,0v0l0,0v0l0,0v0l0,0v0l0,0v0l0,0v0l0,0v0l0,0v0l0,0v0l0,0v0l0,0v0l0,0v0l0,0v0l0,0h0l0,0v0l0,0V61.28ZM36.51,82V66.14h3.06l.36.36.45.45V82.71H37.25Z"/><polygon class="cls-6" points="34.66 57.55 35.95 60.28 33.7 62.52 30.89 61.23 34.66 57.55"/><polygon class="cls-8" points="44.32 57.55 42.99 60.28 35.95 60.28 34.66 57.55 44.32 57.55"/><polygon class="cls-9" points="42.98 60.28 44.32 57.55 48.07 61.21 45.25 62.54 42.98 60.28"/><polygon class="cls-10" points="45.25 62.54 45.25 83.18 48.09 84.49 48.07 61.21 45.25 62.54"/><polygon class="cls-11" points="45.25 83.18 43.01 85.43 44.32 88.21 48.09 84.49 45.25 83.18"/><polygon class="cls-7" points="44.32 88.2 43.01 85.43 35.95 85.43 34.66 88.2 44.32 88.2"/><polygon class="cls-5" points="34.66 88.2 30.89 84.49 33.7 83.18 35.95 85.43 34.66 88.2"/><polygon class="cls-6" points="43.01 85.43 45.25 83.18 42.44 81.91 41.67 82.65 43.01 85.43"/><polygon class="cls-9" points="35.95 85.43 33.7 83.18 36.54 81.91 37.26 82.63 35.95 85.43"/><polygon class="cls-8" points="43.01 85.43 35.95 85.43 37.26 82.63 41.67 82.63 43.01 85.43"/><polygon class="cls-4" points="30.89 84.49 30.89 61.23 33.7 62.52 33.7 83.18 30.89 84.49"/><polygon class="cls-4" points="42.44 63.88 45.25 62.54 45.25 83.18 42.44 81.91 42.44 63.88"/><polygon class="cls-10" points="33.7 62.52 36.54 63.88 36.54 81.91 33.7 83.18 33.7 62.52"/><polygon class="cls-11" points="36.54 63.88 33.7 62.52 35.95 60.28 37.35 63.05 36.54 63.88"/><polygon class="cls-7" points="37.35 63.05 41.62 63.05 42.98 60.28 35.95 60.28 37.35 63.05"/><polygon class="cls-5" points="42.44 63.88 45.25 62.54 42.98 60.28 41.62 63.05 42.44 63.88"/><polygon class="cls-6" points="94.35 88.2 94.39 88.2 94.39 81.39 94.35 81.3 94.35 88.2"/><polygon class="cls-6" points="98.22 67.52 98.22 67.38 94.39 57.55 88.73 57.55 88.73 57.61 94.35 57.61 98.22 67.52"/><polygon class="cls-6" points="100.27 57.61 105.89 57.61 105.89 88.21 105.93 88.21 105.93 57.55 100.27 57.55 100.27 57.61"/><polygon class="cls-3" points="100.27 57.61 100.23 57.61 100.23 57.66 100.2 57.66 100.2 57.72 100.16 57.72 100.16 57.77 100.12 57.77 100.12 57.83 100.09 57.83 100.09 57.88 100.05 57.88 100.05 57.94 100.01 57.94 100.01 57.99 99.98 57.99 99.98 58.05 99.94 58.05 99.94 58.1 99.9 58.1 99.9 58.16 99.87 58.16 99.87 58.21 99.83 58.21 99.83 58.27 99.79 58.27 99.79 58.32 99.76 58.32 99.76 58.38 99.72 58.38 99.72 58.43 99.68 58.43 99.68 58.49 99.65 58.49 99.65 58.54 99.61 58.54 99.61 58.6 99.57 58.6 99.57 58.65 99.54 58.65 99.54 58.71 99.5 58.71 99.5 58.76 99.46 58.76 99.46 58.82 99.43 58.82 99.43 58.87 99.39 58.87 99.39 58.93 99.35 58.93 99.35 58.98 99.32 58.98 99.32 59.04 99.28 59.04 99.28 59.09 99.24 59.09 99.24 59.15 99.21 59.15 99.21 59.2 99.17 59.2 99.17 59.26 99.13 59.26 99.13 59.31 99.1 59.31 99.1 59.37 99.06 59.37 99.06 59.42 99.02 59.42 99.02 59.48 98.99 59.48 98.99 59.53 98.95 59.53 98.95 59.59 98.91 59.59 98.91 59.64 98.88 59.64 98.88 59.7 98.84 59.7 98.84 59.75 98.8 59.75 98.8 59.81 98.77 59.81 98.77 59.86 98.73 59.86 98.73 59.92 98.69 59.92 98.69 59.97 98.66 59.97 98.66 60.03 98.62 60.03 98.62 60.08 98.58 60.08 98.58 60.14 98.55 60.14 98.55 60.19 98.51 60.19 98.51 60.25 98.47 60.25 98.47 60.3 98.44 60.3 98.44 60.36 98.4 60.36 98.4 60.41 98.36 60.41 98.36 60.47 98.33 60.47 98.33 60.52 98.29 60.52 98.29 60.58 98.25 60.58 98.25 60.63 98.22 60.63 98.22 67.38 98.22 67.52 94.35 57.61 88.73 57.61 88.69 57.61 88.69 57.66 88.66 57.66 88.66 57.72 88.62 57.72 88.62 57.77 88.58 57.77 88.58 57.83 88.55 57.83 88.55 57.88 88.51 57.88 88.51 57.94 88.47 57.94 88.47 57.99 88.44 57.99 88.44 58.05 88.4 58.05 88.4 58.1 88.36 58.1 88.36 58.16 88.33 58.16 88.33 58.21 88.29 58.21 88.29 58.27 88.25 58.27 88.25 58.32 88.22 58.32 88.22 58.38 88.18 58.38 88.18 58.43 88.14 58.43 88.14 58.49 88.11 58.49 88.11 58.54 88.07 58.54 88.07 58.6 88.03 58.6 88.03 58.65 88 58.65 88 58.71 87.96 58.71 87.96 58.76 87.92 58.76 87.92 58.82 87.89 58.82 87.89 58.87 87.85 58.87 87.85 58.93 87.81 58.93 87.81 58.98 87.78 58.98 87.78 59.04 87.74 59.04 87.74 59.09 87.7 59.09 87.7 59.15 87.67 59.15 87.67 59.2 87.63 59.2 87.63 59.26 87.59 59.26 87.59 59.31 87.56 59.31 87.56 59.37 87.52 59.37 87.52 59.42 87.48 59.42 87.48 59.48 87.45 59.48 87.45 59.53 87.41 59.53 87.41 59.59 87.37 59.59 87.37 59.64 87.34 59.64 87.34 59.7 87.3 59.7 87.3 59.75 87.26 59.75 87.26 59.81 87.23 59.81 87.23 59.86 87.19 59.86 87.19 59.92 87.15 59.92 87.15 59.97 87.12 59.97 87.12 60.03 87.08 60.03 87.08 60.08 87.04 60.08 87.04 60.14 87.01 60.14 87.01 60.19 86.97 60.19 86.97 60.25 86.93 60.25 86.93 60.3 86.9 60.3 86.9 60.36 86.86 60.36 86.86 60.41 86.82 60.41 86.82 60.47 86.79 60.47 86.79 60.52 86.75 60.52 86.75 60.58 86.71 60.58 86.71 60.63 86.68 60.63 86.68 91.28 92.33 91.28 92.33 91.23 92.37 91.23 92.37 91.17 92.41 91.17 92.41 91.12 92.44 91.12 92.44 91.06 92.48 91.06 92.48 91.01 92.52 91.01 92.52 90.95 92.55 90.95 92.55 90.9 92.59 90.9 92.59 90.84 92.63 90.84 92.63 90.79 92.66 90.79 92.66 90.73 92.7 90.73 92.7 90.68 92.74 90.68 92.74 90.62 92.77 90.62 92.77 90.57 92.81 90.57 92.81 90.51 92.85 90.51 92.85 90.46 92.88 90.46 92.88 90.4 92.92 90.4 92.92 90.35 92.96 90.35 92.96 90.29 92.99 90.29 92.99 90.24 93.03 90.24 93.03 90.18 93.07 90.18 93.07 90.13 93.1 90.13 93.1 90.07 93.14 90.07 93.14 90.02 93.18 90.02 93.18 89.96 93.21 89.96 93.21 89.91 93.25 89.91 93.25 89.86 93.29 89.86 93.29 89.8 93.32 89.8 93.32 89.75 93.36 89.75 93.36 89.69 93.4 89.69 93.4 89.64 93.43 89.64 93.43 89.58 93.47 89.58 93.47 89.53 93.51 89.53 93.51 89.47 93.54 89.47 93.54 89.42 93.58 89.42 93.58 89.36 93.62 89.36 93.62 89.31 93.65 89.31 93.65 89.25 93.69 89.25 93.69 89.19 93.73 89.19 93.73 89.14 93.76 89.14 93.76 89.08 93.8 89.08 93.8 89.03 93.84 89.03 93.84 88.97 93.87 88.97 93.87 88.92 93.91 88.92 93.91 88.86 93.95 88.86 93.95 88.81 93.98 88.81 93.98 88.75 94.02 88.75 94.02 88.7 94.06 88.7 94.06 88.64 94.09 88.64 94.09 88.59 94.13 88.59 94.13 88.53 94.17 88.53 94.17 88.48 94.2 88.48 94.2 88.42 94.24 88.42 94.24 88.37 94.28 88.37 94.28 88.32 94.31 88.32 94.31 88.26 94.35 88.26 94.35 88.21 94.35 81.3 94.39 81.39 98.26 91.28 103.88 91.28 103.88 91.23 103.91 91.23 103.91 91.17 103.95 91.17 103.95 91.12 103.99 91.12 103.99 91.06 104.02 91.06 104.02 91.01 104.06 91.01 104.06 90.95 104.1 90.95 104.1 90.9 104.13 90.9 104.13 90.84 104.17 90.84 104.17 90.79 104.21 90.79 104.21 90.73 104.24 90.73 104.24 90.68 104.28 90.68 104.28 90.62 104.32 90.62 104.32 90.57 104.35 90.57 104.35 90.51 104.39 90.51 104.39 90.46 104.43 90.46 104.43 90.4 104.46 90.4 104.46 90.35 104.5 90.35 104.5 90.29 104.54 90.29 104.54 90.24 104.57 90.24 104.57 90.18 104.61 90.18 104.61 90.13 104.64 90.13 104.64 90.07 104.68 90.07 104.68 90.02 104.72 90.02 104.72 89.96 104.75 89.96 104.75 89.91 104.79 89.91 104.79 89.86 104.83 89.86 104.83 89.8 104.86 89.8 104.86 89.75 104.9 89.75 104.9 89.69 104.94 89.69 104.94 89.64 104.97 89.64 104.97 89.58 105.01 89.58 105.01 89.53 105.05 89.53 105.05 89.47 105.08 89.47 105.08 89.42 105.12 89.42 105.12 89.36 105.16 89.36 105.16 89.31 105.19 89.31 105.19 89.25 105.23 89.25 105.23 89.19 105.27 89.19 105.27 89.14 105.31 89.14 105.31 89.08 105.34 89.08 105.34 89.03 105.38 89.03 105.38 88.97 105.42 88.97 105.42 88.92 105.45 88.92 105.45 88.86 105.49 88.86 105.49 88.81 105.53 88.81 105.53 88.75 105.56 88.75 105.56 88.7 105.6 88.7 105.6 88.64 105.64 88.64 105.64 88.59 105.67 88.59 105.67 88.53 105.71 88.53 105.71 88.48 105.75 88.48 105.75 88.42 105.78 88.42 105.78 88.37 105.82 88.37 105.82 88.32 105.86 88.32 105.86 88.26 105.89 88.26 105.89 88.21 105.89 57.61 100.27 57.61"/><polygon class="cls-4" points="88.73 88.2 88.73 57.55 91.56 60.35 91.56 85.44 88.73 88.2"/><polygon class="cls-7" points="88.73 88.2 94.39 88.2 91.56 85.44 88.73 88.2"/><polygon class="cls-8" points="91.56 60.35 94.4 57.55 88.73 57.55 91.56 60.35"/><polygon class="cls-10" points="91.56 85.44 91.56 60.35 94.39 73.08 94.39 88.2 91.56 85.44"/><polygon class="cls-10" points="94.4 57.55 100.27 72.64 103.1 85.41 91.56 60.35 94.4 57.55"/><polygon class="cls-4" points="100.31 88.2 103.09 85.41 91.56 60.35 94.39 73.08 100.31 88.2"/><polygon class="cls-8" points="100.27 57.55 105.91 57.55 103.09 60.33 100.27 57.55"/><polygon class="cls-4" points="103.09 85.41 103.09 60.33 100.27 57.55 100.27 72.63 103.09 85.41"/><polygon class="cls-7" points="100.31 88.2 105.93 88.2 103.09 85.41 100.31 88.2"/><path class="cls-10" d="M103.1,60.33l2.81-2.78,0,30.66-2.83-2.8s0-25.08,0-25.08"/><polygon class="cls-6" points="73.57 76.3 73.52 76.34 79.43 88.2 79.49 88.2 73.57 76.3"/><polygon class="cls-6" points="65.4 88.2 65.44 88.2 65.44 79.71 65.4 79.64 65.4 88.2"/><polygon class="cls-6" points="69.23 70.06 65.44 70.06 65.44 66.16 65.4 66.16 65.4 70.11 69.23 70.11 69.23 70.06"/><polygon class="cls-6" points="76.94 61.28 76.94 71.93 76.98 71.9 76.98 61.23 73.2 57.55 59.78 57.55 59.78 57.61 73.17 57.61 76.94 61.28"/><path class="cls-3" d="M73.57,76.3,74.92,75v0l0,0v0l0,0v0l0,0v0l0,0v0l0,0v0l0,0v0l0,0v0l0,0v0l0,0v0l0,0v0l0,0v0l0,0v0l0,0v0l0,0v0l0,0v0l0,0v0l0,0v0l0,0v0l0,0v0l0,0v0l0,0v0l0,0h0l0,0v0l0,0v0l0,0v0l0,0v0l0,0v0l0,0v0l0,0v0l0,0h0l0,0v0l0,0h0l0,0v0l0,0h0l0,0v0l0,0h0l0,0v0l0,0h0l0,0v0l0,0h0l0,0v0l0,0h0l0,0v0l0,0v0l0,0v0l0,0h0l0,0v0l0,0h0l0,0v0l0,0h0l0,0v0l0,0v0l0,0v0l0,0v0l0,0V61.28l-3.77-3.67H59.74v0h0v.06h0v.05h0v.06h0v.05h0v.06h0V58h0v.06h0v.05h0v.06h0v.05h0v.06h0v0h0v.06h0v0h0v.06h0v0h0v.06h0v0h0v.06h0v0h0v.06h0v0h0v.06h0v0h0V59h0v.05h0v.06h0v.05h0v.06h0v.05h0v.06h0v.05h0v.06h0v.05h0v.06h0v0h0v.06h0v0h0v.06h0v0h0v.06h0v0h0V60h0v0h0v.06h0v0h0v.06h0v0h0v.06h0v0h0v.06h0v.05h0v.06h0v.05h0V91.28h5.66v0h0v-.06h0v0h0v-.06h0v0h0V91h0v0h0v-.06h0v0h0v-.06h0v0h0v-.06h0v-.05h0v-.06h0v-.05h0V90.4h0v-.05h0v-.06h0v-.05h0v-.06h0v-.05h0v-.06h0v0h0V90h0v0h0v-.06h0v0h0v-.06h0v0h0v-.06h0v0h0v-.06h0v0h0v-.06h0v0h0V89.3h0v0h0v-.06h0v0h0v-.06h0v0h0V89h0v0h0v0h0v-.06h0v0h0V88.7h0v-.06h0v0h0v0h0v-.06h0v0h0v-.06h0v-.05h0v-.06h0V79.64l0,.07,5.71,11.57h6.29l0,0h.07l0-.06h.06l0,0h.07l0-.06h.07l0,0h.06l0-.06h.07l0,0h.07l0-.06h.06l0,0h.07l0-.06h.07l0,0h.06l0-.06h.07l0-.05h.07l0-.06H78l0-.05H78l0-.06H78l0-.05h.06l0-.06h.07l0-.05h.07l0-.06h.06l0-.05h.07l0-.06h.06l0,0h.06l0-.06h.07l0,0h.06l0-.06h.06l0,0h.07l0-.06h.06l0,0h.06l0-.06h.07l0,0h.06l0-.06h.06l0,0h.07l0-.06h.06l0,0h.06l0-.06h.07l0,0h.06l0-.06h.06l0,0h.07l0-.06h.06l0,0h.06l0-.06H79l0,0H79l0,0h.06l0-.06h.07l0,0h.06l0-.06h.06l0-.06h.07l0,0h.06l0,0h.06l0-.06h.07l0,0h.06l0-.06h.06l0-.05h.07l0-.06h.06l0-.05L73.52,76.34ZM65.4,66.16h3.19l.64.65v3.3H65.4Z"/><polygon class="cls-4" points="62.59 60.3 59.76 57.54 59.76 88.2 62.56 85.43 62.59 60.3"/><polygon class="cls-8" points="59.76 57.54 73.22 57.54 71.89 60.3 62.59 60.3 59.76 57.54"/><polygon class="cls-9" points="71.89 60.3 74.07 62.48 76.97 61.22 73.22 57.54 71.89 60.3"/><polygon class="cls-7" points="62.59 60.3 65.41 63.08 70.64 63.08 71.89 60.3 62.59 60.3"/><polygon class="cls-5" points="71.28 63.73 74.07 62.48 71.89 60.3 70.64 63.08 71.28 63.73"/><polygon class="cls-10" points="76.97 61.22 76.98 71.89 74.07 70.61 74.07 62.48 76.97 61.22"/><polygon class="cls-4" points="74.07 62.48 74.07 70.61 71.28 69.35 71.28 63.73 74.07 62.48"/><polygon class="cls-11" points="74.07 70.61 71.88 72.8 73.2 75.57 76.98 71.89 74.07 70.61"/><polygon class="cls-10" points="65.44 70.06 65.41 63.08 62.59 60.3 62.58 72.8 65.44 70.06"/><polygon class="cls-8" points="70.58 70.05 65.44 70.06 62.58 72.8 71.88 72.8 70.58 70.05"/><polygon class="cls-10" points="62.58 72.8 65.44 75.57 65.44 88.21 62.56 85.43 62.58 72.8"/><polygon class="cls-7" points="62.58 72.8 68.8 72.8 66.96 75.57 65.44 75.57 62.58 72.8"/><polygon class="cls-8" points="68.8 72.8 66.96 75.57 73.2 88.21 75.03 85.44 68.8 72.8"/><polygon class="cls-7" points="68.8 72.8 71.88 72.8 73.2 75.57 68.8 72.8"/><polygon class="cls-10" points="68.8 72.8 75.03 85.44 79.49 88.21 73.2 75.57 68.8 72.8"/><polygon class="cls-7" points="62.56 85.43 59.76 88.2 65.44 88.2 62.56 85.43"/><polygon class="cls-7" points="73.2 88.2 75.03 85.44 79.49 88.2 73.2 88.2"/><polygon class="cls-6" points="71.28 69.35 74.07 70.61 71.88 72.8 70.58 70.05 71.28 69.35"/><polygon class="cls-6" points="189.68 76.3 189.64 76.34 195.54 88.2 195.61 88.2 189.68 76.3"/><polygon class="cls-6" points="193.06 61.28 193.06 71.93 193.09 71.9 193.09 61.23 189.32 57.55 175.89 57.55 175.89 57.61 189.28 57.61 193.06 61.28"/><polygon class="cls-6" points="181.55 70.06 181.55 66.16 181.51 66.16 181.51 70.11 185.29 70.11 185.29 70.06 181.55 70.06"/><polygon class="cls-6" points="181.51 88.2 181.55 88.2 181.55 79.71 181.51 79.64 181.51 88.2"/><path class="cls-3" d="M189.68,76.3,191,75v0l0,0v0l0,0v0l0,0v0l0,0v0l0,0v0l0,0v0l0,0v0l0,0v0l0,0v0l0,0v0l0,0v0l0,0v0l0,0v0l0,0v0l0,0v0l0,0v0l0,0v0l0,0v0l0,0v0l0,0v0l0,0v0l0,0v0l0,0v0l0,0h0l0,0v0l0,0v0l0,0v0l0,0v0l0,0v0l0,0v0l0,0v0l0,0h0l0,0v0l0,0h0l0,0v0l0,0h0l0,0v0l0,0v0l0,0v0l0,0h0l0,0v0l0,0h0l0,0v0l0,0h0l0,0v0l0,0h0l0,0v0l0,0h0l0,0v0l0,0h0l0,0v0l0,0v0l0,0v0l0,0v0l0,0V61.28l-3.78-3.67H175.86v0h0v.06h0v.05h0v.06h0v.05h0v.06h0V58h0v.06h0v.05h0v.06h0v.05h0v.06h0v0h0v.06h0v0h0v.06h0v0h0v.06h0v0h0v.06h0v0h0v.06h0v0h0v.06h0v0h0V59h0v.05h0v.06h0v.05h0v.06h0v.05h0v.06h0v.05h0v.06h0v.05h0v.06h0v0h0v.06h0v0h0v.06h0v0h0v.06h0v0h0V60h0v0h0v.06h0v0h0v.06h0v0h0v.06h0v0h0v.06h0v.05h0v.06h0v.05h0V91.28h5.66v0h0v-.06h0v0h0v-.06h0v0h0V91h0v0h0v-.06h0v0h0v-.06h0v0h0v-.06h0v-.05h0v-.06h0v-.05h0V90.4h0v-.05h0v-.06h0v-.05h0v-.06h0v-.05h0v-.06h0v0h0V90h0v0h0v-.06h0v0h0v-.06h0v0h0v0h0v-.06h0v-.06h0v0h0v-.06h0v0h0V89.3h0v0h0v-.06h0v0h0v-.06h0v0h0V89h0v0h0v0h0v-.06h0v0h0V88.7h0v-.06h0v0h0v-.06h0v0h0v0h0v-.06h0v-.05h0v-.06h0V79.64l0,.07,5.72,11.57h6.28l0,0h.06l0-.06h.07l0,0h.06l0-.06h.06l0,0h.07l0-.06h.06l0,0h.06l0-.06h.07l0,0h.06l0-.06h.06l0,0H194l0-.06H194l0-.05H194l0-.06h.07l0-.05h.06l0-.06h.06l0-.05h.07l0-.06h.06l0-.05h.06l0-.06h.07l0-.05h.06l0-.06h.06l0,0h.07l0-.06h.06l0,0h.06l0-.06h.07l0,0h.06l0-.06h.06l0,0h.07l0,0h.06l0-.06h.06l0-.06h.07l0,0h.06l0-.06h.06l0,0h.07l0-.06h.06l0,0h.06l0-.06H195l0,0H195l0-.06H195l0,0h.07l0-.06h.06l0,0h.06l0,0h.07l0-.06h.06l0,0h.06l0-.06h.07l0-.06h.06l0,0h.06l0-.06h.07l0,0h.06l0,0h.06l0-.06h.07l0-.05h.06l0-.06h.06l0-.05-5.9-11.87Zm-8.17-6.19v-4h3.14l.64.64v3.31Z"/><polygon class="cls-4" points="178.74 60.3 175.9 57.54 175.9 88.2 178.71 85.43 178.74 60.3"/><polygon class="cls-8" points="175.9 57.54 189.37 57.54 188.03 60.3 178.74 60.3 175.9 57.54"/><polygon class="cls-9" points="188.03 60.3 190.21 62.48 193.12 61.22 189.37 57.54 188.03 60.3"/><polygon class="cls-7" points="178.74 60.3 181.55 63.08 186.78 63.08 188.03 60.3 178.74 60.3"/><polygon class="cls-5" points="187.43 63.73 190.21 62.48 188.03 60.3 186.78 63.08 187.43 63.73"/><polygon class="cls-10" points="193.12 61.22 193.12 71.89 190.21 70.61 190.21 62.48 193.12 61.22"/><polygon class="cls-4" points="190.21 62.48 190.21 70.61 187.43 69.35 187.43 63.73 190.21 62.48"/><polygon class="cls-11" points="190.21 70.61 188.03 72.8 189.35 75.57 193.12 71.89 190.21 70.61"/><polygon class="cls-10" points="181.58 70.06 181.55 63.08 178.74 60.3 178.72 72.8 181.58 70.06"/><polygon class="cls-8" points="186.73 70.05 181.58 70.06 178.72 72.8 188.03 72.8 186.73 70.05"/><polygon class="cls-10" points="178.72 72.8 181.58 75.57 181.58 88.21 178.71 85.43 178.72 72.8"/><polygon class="cls-7" points="178.72 72.8 184.94 72.8 183.11 75.57 181.58 75.57 178.72 72.8"/><polygon class="cls-8" points="184.94 72.8 183.11 75.57 189.35 88.21 191.17 85.44 184.94 72.8"/><polygon class="cls-7" points="184.94 72.8 188.03 72.8 189.35 75.57 184.94 72.8"/><polygon class="cls-10" points="184.94 72.8 191.17 85.44 195.63 88.21 189.35 75.57 184.94 72.8"/><polygon class="cls-7" points="178.71 85.43 175.9 88.2 181.58 88.2 178.71 85.43"/><polygon class="cls-7" points="189.35 88.2 191.17 85.44 195.63 88.2 189.35 88.2"/><polygon class="cls-6" points="187.43 69.35 190.21 70.61 188.03 72.8 186.73 70.05 187.43 69.35"/><polygon class="cls-6" points="136.16 82.41 135.65 81.9 135.65 78.69 135.61 78.69 135.61 81.95 136.13 82.47 139.59 82.47 139.59 82.41 136.16 82.41"/><polygon class="cls-6" points="143.32 57.61 147.04 61.28 147.04 66.34 147.08 66.34 147.08 61.23 143.35 57.55 133.43 57.55 129.75 61.18 129.75 61.2 133.39 57.61 143.32 57.61"/><polygon class="cls-6" points="135.63 69.26 135.63 66.14 135.59 66.14 135.59 69.32 136.22 69.94 150.01 69.94 150.01 75.61 150.04 75.61 150.04 69.88 136.25 69.88 135.63 69.26"/><polygon class="cls-6" points="147.4 84.39 147.44 84.36 147.44 78.69 147.4 78.69 147.4 84.39"/><path class="cls-3" d="M136.22,69.94l-.63-.62V66.14h3.18l.6.59v.76h0v1.93H145v0h0v-.06h0v0h0V69.2h0v0h0v-.06h0V69h0v0h0v0h0v-.06h0v-.05h0v-.06h0v-.05h0v-.06h0V68.6h0v-.06h0v-.05h0v-.06h0v-.05h0v-.06h0v0h0v-.06h0v0h0V68.1h0v0h0V68h0v0h0v-.06h0v0h0v-.06h0v0h0v-.06h0v0h0v-.06h0v0h0v-.06h0v0h0v-.06h0v0h0v-.06h0v0h0v-.06h0v0h0V67h0v0h0v-.06h0v0h0v-.06h0v0h0v-.06h0v0h0v-.06h0v0h0v-.06h0v0h0V61.28l-3.72-3.67h-9.93l-3.64,3.59,0,0v0l0,0v0l0,0v0l0,0v0l0,0v0l0,0v0l0,0v0l0,0v0l0,0v0l0,0v0l0,0v0l0,0v0l0,0v0l0,0v0l0,0v0l0,0v0l0,0v0l0,0v0l0,0v0l0,0v0l0,0v0l0,0v0l0,0v0l0,0v0l0,0h0l0,0v0l0,0h0l0,0v0l0,0h0l0,0v0l0,0v0l0,0v0l0,0h0l0,0v0l0,0h0l0,0v0l0,0h0l0,0v0l0,0h0l0,0v0l0,0h0l0,0v0l0,0h0l0,0v0l0,0h0l0,0v0l0,0h0l0,0v0l0,0h0l0,0v0l0,0h0l0,0v0l0,0v0l0,0v0l0,0h0l0,0v9l2,2,0,0v0l0,0v0l0,0v0l0,0v0l0,0v0l0,0v0l0,0v0l0,0v0l0,0v0l0,0v0l0,0v0l0,0v0l0,0v0l0,0v0l0,0v0l0,0v0l0,0v0l0,0v0l0,0v0l0,0v0l0,0v0l0,0v0l0,0v0l0,0v0l0,0v0l0,0v0l0,0v0l0,0v0l0,0v0l0,0v0l0,0v0l0,0v0l0,0v0l0,0v0l0,0v0l0,0v0l0,0v0l0,0v0l0,0v0l0,0v0l0,0v0l0,0v0l0,0v0l0,0v0l0,0v0l0,0v0l0,0v0l0,0v0l0,0v0l0,0v0l0,0v0l0,0v0l0,0v0l0,0v0l0,0h0l0,0v9.18l3.87,3.76h9.92l3.91-3.84v0l0,0v0l0,0v0l0,0v0l0,0v0l0,0v0l0,0v0l0,0v0l0,0v0l0,0v0l0,0v0l0,0v0l0,0v0l0,0v0l0,0v0l0,0v0l0,0v0l0,0v0l0,0v0l0,0v0l0,0v0l0,0v0l0,0v0l0,0v0l0,0v0l0,0v0l0,0v0l0,0v0l0,0v0l0,0v0l0,0v0l0,0v0l0,0v0l0,0v0l0,0v0l0,0v0l0,0v0l0,0v0l0,0v0l0,0v0l0,0v0l0,0v0l0,0v0l0,0v0l0,0v0l0,0v0l0,0v0l0,0v0l0,0v0l0,0v0l0,0v0l0,0v0l0,0v0l0,0v0l0,0v0l0,0V78.69H148v0h0v-.06h0v0h0v-.06h0v0h0v-.06h0v0h0v-.06h0v0h0v-.06h0v0h0V78h0v0h0v-.06h0v0h0v-.06h0v0h0V77.7h0v0h0v-.06h0v0h0v-.06h0v0h0v-.06h0v-.05h0v-.06h0v-.05h0v-.06h0V77.1h0V77h0V77h0v-.06h0v-.05h0v-.06h0v0h0v-.06h0v0h0V76.6h0v0h0v-.06h0v0h0v-.06h0v0h0v-.06h0v0h0v-.06h0v0h0v-.06h0v0h0v-.06h0v0h0v-.06h0v0h0v-.06h0v0h0V69.94Zm-.09,12.53-.52-.52V78.69h4v3.78Z"/><polygon class="cls-12" points="129.72 69.56 129.72 71.5 130.94 72.72 129.74 73.97 129.74 76.01 133.35 73.83 133.54 71.07 131.3 69.76 129.72 69.56"/><polygon class="cls-8" points="142.11 60.13 134.66 60.13 133.42 57.55 143.35 57.55 142.11 60.13"/><polygon class="cls-6" points="133.43 57.55 134.66 60.13 132.62 62.33 129.74 61.17 133.43 57.55"/><polygon class="cls-11" points="134.66 60.13 136.13 63.06 135.62 63.57 132.61 62.33 134.66 60.13"/><polygon class="cls-4" points="129.74 61.17 132.61 62.33 132.62 70.39 129.72 71.51 129.74 61.17"/><polygon class="cls-10" points="135.62 63.57 135.62 69.25 132.62 70.39 132.61 62.33 135.62 63.57"/><polygon class="cls-9" points="132.62 70.39 135.62 69.25 136.27 69.91 135 72.72 132.62 70.39"/><polygon class="cls-5" points="129.72 71.5 130.94 72.72 135 72.72 132.62 70.39 129.72 71.5"/><polygon class="cls-8" points="136.27 69.91 150.04 69.91 147.34 72.72 135 72.72 136.27 69.91"/><polygon class="cls-6" points="130.94 72.72 135 72.72 132.66 75.1 129.74 73.97 130.94 72.72"/><polygon class="cls-4" points="129.74 73.97 129.75 84.44 132.68 83.23 132.68 75.1 129.74 73.97"/><polygon class="cls-11" points="132.66 75.1 135.65 76.22 136.29 75.61 135 72.72 132.66 75.1"/><polygon class="cls-10" points="135.65 76.22 135.65 81.9 132.68 83.23 132.68 75.1 135.65 76.22"/><polygon class="cls-9" points="136.16 82.41 134.83 85.38 132.68 83.23 135.65 81.9 136.16 82.41"/><polygon class="cls-5" points="129.75 84.44 133.61 88.21 134.84 85.38 132.68 83.23 129.75 84.44"/><polygon class="cls-7" points="135 72.72 144.64 72.72 141.65 75.61 136.29 75.61 135 72.72"/><polygon class="cls-8" points="136.16 82.41 141.1 82.41 142.34 85.38 134.83 85.38 136.16 82.41"/><polygon class="cls-4" points="141.65 75.61 141.65 81.82 144.62 83.1 144.64 72.71 141.65 75.61"/><polygon class="cls-6" points="141.1 82.41 141.65 81.82 144.62 83.1 142.34 85.38 141.1 82.41"/><polygon class="cls-7" points="133.61 88.2 134.83 85.38 142.34 85.38 143.53 88.2 133.61 88.2"/><polygon class="cls-11" points="144.62 83.1 147.44 84.36 143.53 88.2 142.34 85.38 144.62 83.1"/><polygon class="cls-10" points="144.63 72.72 144.62 83.1 147.44 84.36 147.44 75.61 144.63 72.72"/><polygon class="cls-7" points="147.44 75.61 150.04 75.61 147.34 72.72 144.63 72.72 147.44 75.61"/><polygon class="cls-10" points="150.04 69.91 147.34 72.72 150.04 75.61 150.04 69.91"/><polygon class="cls-7" points="134.66 60.13 142.11 60.13 140.82 63.06 136.13 63.06 134.66 60.13"/><polygon class="cls-5" points="140.82 63.06 141.42 63.66 144.38 62.4 142.11 60.13 140.82 63.06"/><polygon class="cls-4" points="141.42 66.34 141.42 63.66 144.38 62.4 141.42 66.34"/><polygon class="cls-7" points="147.08 66.34 141.42 66.34 144.38 62.4 147.08 66.34"/><polygon class="cls-9" points="143.35 57.55 142.12 60.13 144.38 62.4 147.07 61.21 143.35 57.55"/><polygon class="cls-10" points="147.08 66.34 147.07 61.21 144.38 62.4 147.08 66.34"/><polygon class="cls-6" points="217.5 57.55 211.71 57.55 211.69 57.61 217.46 57.61 223.29 88.21 223.34 88.21 217.5 57.55"/><polygon class="cls-6" points="211.77 88.2 211.79 88.2 211.84 87.92 211.81 87.92 211.77 88.2"/><path class="cls-3" d="M211.69,57.61h0v0h0v.06h0v.05h0v.06h0v.05h0v.06h0V58h0v.06h0v.05h0v.06h0v.05h0v.06h0v0h0v.06h0v0h0v.06h0v0h0v.06h0v0h0v.06h0l0,0h0v.06h0v0h0l0,.06h0v0h0V59h0l0,.05h0v.06h0v.05h0l0,.06h0v.05h0v.06h0l0,.05h0v.06h0v.05h0l0,.06h0v0h0v.06h0l0,0h0v.06h0v0h0l0,.06h0v0h0V60h0l0,0h0v.06h0v0h0l0,.06h0v0h0v.06h0v0h0v.06h0v.05h0v.06h0v.05h0l-5.84,30.65h5.93v0h0v-.06h0v0h0v-.06h0v0h0V91h0v0h0v-.06h0v0h0v-.06h0v0h0v-.06h0v-.05h0v-.06h0v-.05h0V90.4h0v-.05h0v-.06h0v-.05h0v-.06h0v-.05h0v-.06h0v0h0V90h0v0h0v-.06h0v0h0v-.06h0v0h0v0h0v-.06h0v-.06h0v0h0v-.06h0v0h0V89.3h0v0h0v0h0v-.06h0v-.06h0v0h0V89h0v0h0v0h0v-.06h0v0h0V88.7h0v-.06h0v0h0v-.06h0v0h0v0h0v-.06h0v-.05h0v-.06h0v-.05l0-.29h3l.58,3.36h5.88v0h0v-.06h.05v0h0v-.06h.05v0h.05V91h0v0h0v-.06h.05v0h0v-.06h.05v0h.05v-.06h0v-.05h0v-.06h.05v-.05h0V90.4h.05v-.05h0v-.06h0v-.05h0v-.06H222v-.05h0v-.06h.05v0h0V90h0v0h0v-.06h.05v0h0v-.06h.05v0h0v0h0v-.06h0v-.06h.05v0h0v-.06h.05v0h0V89.3h0v0h0v0h.05v-.06h0v-.06h.05v0h0V89h0v0h.05v0h.05v-.06h0v0H223V88.7h0v-.06h0v0h.05v-.06h.05v0h0v0h.05v-.06h0v-.05h0v-.06h.05v-.05l-5.83-30.6ZM213.33,78l.2,1.1h-.39Z"/><polygon class="cls-8" points="211.71 57.55 217.5 57.55 214.61 60.15 211.71 57.55"/><polygon class="cls-10" points="214.61 60.15 214.61 70.51 213.14 79.11 209.94 82 214.61 60.15"/><polygon class="cls-8" points="219.29 81.98 209.95 81.98 213.14 79.11 216.11 79.11 219.29 81.98"/><polygon class="cls-10" points="209.21 85.44 209.95 81.98 212.33 84.84 211.79 88.2 209.21 85.44"/><polygon class="cls-7" points="205.87 88.2 209.21 85.44 211.79 88.2 205.87 88.2"/><polygon class="cls-4" points="211.71 57.55 214.61 60.15 209.27 85.47 205.87 88.21 211.71 57.55"/><polygon class="cls-10" points="217.5 57.55 214.61 60.15 220.01 85.44 223.34 88.21 217.5 57.55"/><polygon class="cls-4" points="217.45 88.2 216.87 84.84 219.27 81.98 220.01 85.44 217.45 88.2"/><polygon class="cls-7" points="223.34 88.2 220.01 85.44 217.45 88.2 223.34 88.2"/><polygon class="cls-7" points="212.31 84.84 216.85 84.84 219.27 81.98 209.95 81.98 212.31 84.84"/><polygon class="cls-4" points="214.61 60.15 214.61 70.51 216.11 79.11 219.27 81.98 214.61 60.15"/><polygon class="cls-6" points="234.88 57.61 240.5 57.61 240.5 88.21 240.54 88.21 240.54 57.55 234.88 57.55 234.88 57.61"/><polygon class="cls-3" points="234.88 57.61 234.84 57.61 234.84 57.66 234.81 57.66 234.81 57.72 234.77 57.72 234.77 57.77 234.73 57.77 234.73 57.83 234.7 57.83 234.7 57.88 234.66 57.88 234.66 57.94 234.62 57.94 234.62 57.99 234.59 57.99 234.59 58.05 234.55 58.05 234.55 58.1 234.51 58.1 234.51 58.16 234.48 58.16 234.48 58.21 234.44 58.21 234.44 58.27 234.4 58.27 234.4 58.32 234.37 58.32 234.37 58.38 234.33 58.38 234.33 58.43 234.29 58.43 234.29 58.49 234.26 58.49 234.26 58.54 234.22 58.54 234.22 58.6 234.18 58.6 234.18 58.65 234.15 58.65 234.15 58.71 234.11 58.71 234.11 58.76 234.07 58.76 234.07 58.82 234.04 58.82 234.04 58.87 234 58.87 234 58.93 233.96 58.93 233.96 58.98 233.93 58.98 233.93 59.04 233.89 59.04 233.89 59.09 233.85 59.09 233.85 59.15 233.82 59.15 233.82 59.2 233.78 59.2 233.78 59.26 233.74 59.26 233.74 59.31 233.71 59.31 233.71 59.37 233.67 59.37 233.67 59.42 233.63 59.42 233.63 59.48 233.6 59.48 233.6 59.53 233.56 59.53 233.56 59.59 233.52 59.59 233.52 59.64 233.49 59.64 233.49 59.7 233.45 59.7 233.45 59.75 233.41 59.75 233.41 59.81 233.38 59.81 233.38 59.86 233.34 59.86 233.34 59.92 233.3 59.92 233.3 59.97 233.27 59.97 233.27 60.03 233.23 60.03 233.23 60.08 233.19 60.08 233.19 60.14 233.16 60.14 233.16 60.19 233.12 60.19 233.12 60.25 233.08 60.25 233.08 60.3 233.05 60.3 233.05 60.36 233.01 60.36 233.01 60.41 232.97 60.41 232.97 60.47 232.94 60.47 232.94 60.52 232.9 60.52 232.9 60.58 232.86 60.58 232.86 60.63 232.83 60.63 232.83 91.28 238.49 91.28 238.49 91.23 238.52 91.23 238.52 91.17 238.56 91.17 238.56 91.12 238.6 91.12 238.6 91.06 238.63 91.06 238.63 91.01 238.67 91.01 238.67 90.95 238.71 90.95 238.71 90.9 238.74 90.9 238.74 90.84 238.78 90.84 238.78 90.79 238.82 90.79 238.82 90.73 238.85 90.73 238.85 90.68 238.89 90.68 238.89 90.62 238.93 90.62 238.93 90.57 238.96 90.57 238.96 90.51 239 90.51 239 90.46 239.04 90.46 239.04 90.4 239.07 90.4 239.07 90.35 239.11 90.35 239.11 90.29 239.15 90.29 239.15 90.24 239.18 90.24 239.18 90.18 239.22 90.18 239.22 90.13 239.25 90.13 239.25 90.07 239.29 90.07 239.29 90.02 239.33 90.02 239.33 89.96 239.37 89.96 239.37 89.91 239.4 89.91 239.4 89.86 239.44 89.86 239.44 89.8 239.47 89.8 239.47 89.75 239.51 89.75 239.51 89.69 239.55 89.69 239.55 89.64 239.59 89.64 239.59 89.58 239.62 89.58 239.62 89.53 239.66 89.53 239.66 89.47 239.69 89.47 239.69 89.42 239.73 89.42 239.73 89.36 239.77 89.36 239.77 89.31 239.81 89.31 239.81 89.25 239.84 89.25 239.84 89.19 239.88 89.19 239.88 89.14 239.91 89.14 239.91 89.08 239.95 89.08 239.95 89.03 239.99 89.03 239.99 88.97 240.03 88.97 240.03 88.92 240.06 88.92 240.06 88.86 240.1 88.86 240.1 88.81 240.13 88.81 240.13 88.75 240.17 88.75 240.17 88.7 240.21 88.7 240.21 88.64 240.25 88.64 240.25 88.59 240.28 88.59 240.28 88.53 240.32 88.53 240.32 88.48 240.35 88.48 240.35 88.42 240.39 88.42 240.39 88.37 240.43 88.37 240.43 88.32 240.47 88.32 240.47 88.26 240.5 88.26 240.5 88.21 240.5 57.61 234.88 57.61"/><polygon class="cls-8" points="234.88 57.55 237.73 60.15 240.54 57.55 234.88 57.55"/><polygon class="cls-7" points="234.88 88.2 237.73 85.44 240.54 88.2 234.88 88.2"/><polygon class="cls-10" points="240.54 57.55 237.73 60.15 237.73 85.44 240.54 88.21 240.54 57.55"/><polygon class="cls-4" points="234.88 57.55 237.73 60.15 237.73 85.44 234.88 88.21 234.88 57.55"/><polygon class="cls-6" points="257.78 69.44 258.49 70.16 265.54 70.16 269.31 73.83 269.31 84.57 269.35 84.53 269.35 73.78 265.58 70.1 258.53 70.1 257.81 69.39 257.81 66.14 257.78 66.14 257.78 69.44"/><polygon class="cls-6" points="255.93 58.28 252.15 61.23 252.15 61.24 255.89 57.61 265.54 57.61 269.31 61.28 269.31 66.39 269.35 66.39 269.35 61.23 265.82 58.34 255.93 58.28"/><path class="cls-6" d="M257.77,82.71H260v0h1.58v-.05H260v0h-2.24V79.37h-5.66v.06h5.62Z"/><path class="cls-3" d="M265.54,57.61h-9.65l-3.74,3.63,0,0v0l0,0v0l0,0v0l0,0v0l0,0v0l0,0h0l0,0v0l0,0h0l0,0v0l0,0h0l0,0v0l0,0v0l0,0v0l0,0h0l0,0v0l0,0h0l0,0v0l0,0v0l0,0v0l0,0v0l0,0v0l0,0v0l0,0v0l0,0v0l0,0v0l0,0h0l0,0v0l0,0v0l0,0v0l0,0v0l0,0v0l0,0h0l0,0v0l0,0v0l0,0v0l0,0v0l0,0v0l0,0v0l0,0v0l0,0h0l0,0v0l0,0v0l0,0v0l0,0v0l0,0v0l0,0v0l0,0v0l0,0v0l0,0v0l0,0v0l0,0v0l0,0v0l0,0v0l0,0v0l0,0v0l0,0V75l3.77,3.67,7.09,0,.63.64v3.31H260v0h-2.24V79.43h-5.66v0h0v.06h0v0h0v.06h0v0h0v.06h0v0h0v.06h0v0h0V80h0v0h0v.06h0v0h0v.06h0v0h0v.06h0v0h0v.06h0v0h0v.06h0v0h0v.06h0v0h0v.06h0v0h0v.06h0v0h0V81h0v0h0v.06h0v0h0v.06h0v0h0v.06h0v0h0v.06h0v0h0v.06h0v0h0v.06h0v.05h0v.06h0v.05h0v.06h0v.05h0V82h0V82h0v.06h0v.05h0v.06h0v0h0v.06h0v0h0v.06h0v0h0v5.16l3.77,3.67h9.65l3.78-3.67v0l0,0v0l0,0v0l0,0v0l0,0v0l0,0v0l0,0v0l0,0v0l0,0v0l0,0v0l0,0v0l0,0v0l0,0v0l0,0v0l0,0v0l0,0v0l0,0v0l0,0v0l0,0v0l0,0v0l0,0v0l0,0v0l0,0v0l0,0v0l0,0v0l0,0v0l0,0v0l0,0v0l0,0v0l0,0v0l0,0v0l0,0v0l0,0v0l0,0v0l0,0v0l0,0v0l0,0v0l0,0v0l0,0v0l0,0v0l0,0v0l0,0v0l0,0v0l0,0v0l0,0v0l0,0v0l0,0v0l0,0v0l0,0v0l0,0v0l0,0v0l0,0v0l0,0v0l0,0v0l0,0v0l0,0V73.83l-3.77-3.67h-7.05l-.71-.72v-3.3h3.86v3.32h5.66v0h0v-.06h0v0h0v-.06h0v0h0v-.06h0v0h0V69h0v0h0v-.06h0v0h0V68.8h0v0h0v-.06h0v0h0v-.06h0v0h0v-.06h0v0h0v0h0v-.06h0v-.06h0v0h0v-.06h0v0h0V68h0v0h0v0h0v-.06h0v-.06h0v0h0V67.7h0v0h0v-.06h0v0h0v-.05h0v-.06h0v-.06h0v-.05h0v-.06h0v-.05h0v0h0V67.1h0v0h0V67h0v0h0v-.06h0v0h0v-.06h0v0h0v-.06h0v0h0v-.06h0v0h0v-.06h0V61.28Z"/><polygon class="cls-8" points="257.19 60.28 266.67 60.28 265.54 57.58 255.88 57.58 257.19 60.28"/><polygon class="cls-4" points="266.53 60.28 263.69 63.06 263.68 66.39 266.52 63.63 266.53 60.28"/><polygon class="cls-10" points="266.52 63.63 266.52 60.28 269.42 61.29 269.4 66.39 266.52 63.63"/><polygon class="cls-7" points="263.67 66.39 266.52 63.63 269.4 66.39 263.67 66.39"/><polygon class="cls-6" points="252.15 61.23 254.99 62.52 257.19 60.28 255.88 57.58 252.15 61.23"/><polygon class="cls-11" points="258.5 63.07 257.81 63.73 254.99 62.52 257.19 60.28 258.5 63.07"/><polygon class="cls-4" points="252.15 61.23 254.99 62.52 254.99 70.66 252.15 71.94 252.15 61.23"/><polygon class="cls-10" points="257.81 69.39 254.99 70.66 254.99 62.52 257.81 63.73 257.81 69.39"/><polygon class="cls-5" points="255.92 75.61 257.2 72.87 254.99 70.66 252.15 71.94 255.92 75.61"/><polygon class="cls-9" points="257.81 69.39 254.99 70.66 257.2 72.87 258.53 70.1 257.81 69.39"/><polygon class="cls-8" points="264.28 72.87 265.58 70.1 258.53 70.1 257.2 72.87 264.28 72.87"/><polygon class="cls-7" points="255.92 75.61 263.01 75.64 264.28 72.87 257.2 72.87 255.92 75.61"/><polygon class="cls-9" points="269.35 73.78 266.44 75.03 264.29 72.87 265.58 70.1 269.35 73.78"/><polygon class="cls-5" points="263.65 76.29 266.44 75.03 264.29 72.87 263.01 75.64 263.65 76.29"/><polygon class="cls-9" points="265.54 57.58 269.42 61.29 266.53 60.28 265.54 57.58"/><polygon class="cls-7" points="263.69 63.06 266.53 60.28 257.19 60.28 258.5 63.07 263.69 63.06"/><polygon class="cls-7" points="264.27 85.4 254.79 85.4 255.93 88.11 265.59 88.11 264.27 85.4"/><polygon class="cls-10" points="254.94 85.4 257.77 82.63 257.78 79.3 254.94 82.06 254.94 85.4"/><polygon class="cls-4" points="254.94 82.06 254.94 85.41 252.04 84.4 252.07 79.3 254.94 82.06"/><polygon class="cls-8" points="257.79 79.3 254.94 82.06 252.07 79.3 257.79 79.3"/><polygon class="cls-5" points="255.93 88.11 252.04 84.4 254.94 85.41 255.93 88.11"/><polygon class="cls-8" points="257.77 82.63 254.94 85.4 264.27 85.4 262.97 82.62 257.77 82.63"/><polygon class="cls-4" points="263.65 76.29 266.44 75.03 266.44 83.22 263.65 81.94 263.65 76.29"/><polygon class="cls-6" points="264.27 85.4 266.44 83.22 263.65 81.94 262.96 82.63 264.27 85.4"/><polygon class="cls-11" points="265.62 88.17 269.35 84.53 266.44 83.22 264.27 85.41 265.62 88.17"/><polygon class="cls-10" points="266.44 75.03 266.44 83.22 269.35 84.53 269.35 73.78 266.44 75.03"/><polygon class="cls-6" points="286.69 82.71 298.23 82.71 298.23 88.21 298.27 88.21 298.27 82.65 286.73 82.65 286.73 78.78 286.69 78.78 286.69 82.71"/><polygon class="cls-6" points="281.07 57.61 298.23 57.61 298.23 63.06 298.27 63.06 298.27 57.55 281.07 57.55 281.07 57.61"/><polygon class="cls-6" points="286.69 70.11 292.57 70.11 292.57 75.7 292.61 75.7 292.61 70.06 286.73 70.06 286.73 66.14 286.69 66.14 286.69 70.11"/><polygon class="cls-3" points="281.07 57.61 281.03 57.61 281.03 57.66 281 57.66 281 57.72 280.96 57.72 280.96 57.77 280.92 57.77 280.92 57.83 280.89 57.83 280.89 57.88 280.85 57.88 280.85 57.94 280.81 57.94 280.81 57.99 280.78 57.99 280.78 58.05 280.74 58.05 280.74 58.1 280.7 58.1 280.7 58.16 280.67 58.16 280.67 58.21 280.63 58.21 280.63 58.27 280.59 58.27 280.59 58.32 280.56 58.32 280.56 58.38 280.52 58.38 280.52 58.43 280.48 58.43 280.48 58.49 280.45 58.49 280.45 58.54 280.41 58.54 280.41 58.6 280.37 58.6 280.37 58.65 280.34 58.65 280.34 58.71 280.3 58.71 280.3 58.76 280.26 58.76 280.26 58.82 280.23 58.82 280.23 58.87 280.19 58.87 280.19 58.93 280.15 58.93 280.15 58.98 280.12 58.98 280.12 59.04 280.08 59.04 280.08 59.09 280.04 59.09 280.04 59.15 280.01 59.15 280.01 59.2 279.97 59.2 279.97 59.26 279.93 59.26 279.93 59.31 279.9 59.31 279.9 59.37 279.86 59.37 279.86 59.42 279.82 59.42 279.82 59.48 279.79 59.48 279.79 59.53 279.75 59.53 279.75 59.59 279.71 59.59 279.71 59.64 279.68 59.64 279.68 59.7 279.64 59.7 279.64 59.75 279.6 59.75 279.6 59.81 279.57 59.81 279.57 59.86 279.53 59.86 279.53 59.92 279.49 59.92 279.49 59.97 279.46 59.97 279.46 60.03 279.42 60.03 279.42 60.08 279.38 60.08 279.38 60.14 279.35 60.14 279.35 60.19 279.31 60.19 279.31 60.25 279.27 60.25 279.27 60.3 279.24 60.3 279.24 60.36 279.2 60.36 279.2 60.41 279.16 60.41 279.16 60.47 279.13 60.47 279.13 60.52 279.09 60.52 279.09 60.58 279.05 60.58 279.05 60.63 279.02 60.63 279.02 91.28 296.22 91.28 296.22 91.23 296.25 91.23 296.25 91.17 296.29 91.17 296.29 91.12 296.33 91.12 296.33 91.06 296.36 91.06 296.36 91.01 296.4 91.01 296.4 90.95 296.44 90.95 296.44 90.9 296.47 90.9 296.47 90.84 296.51 90.84 296.51 90.79 296.55 90.79 296.55 90.73 296.58 90.73 296.58 90.68 296.62 90.68 296.62 90.62 296.66 90.62 296.66 90.57 296.69 90.57 296.69 90.51 296.73 90.51 296.73 90.46 296.77 90.46 296.77 90.4 296.8 90.4 296.8 90.35 296.84 90.35 296.84 90.29 296.88 90.29 296.88 90.24 296.91 90.24 296.91 90.18 296.95 90.18 296.95 90.13 296.99 90.13 296.99 90.07 297.02 90.07 297.02 90.02 297.06 90.02 297.06 89.96 297.1 89.96 297.1 89.91 297.13 89.91 297.13 89.86 297.17 89.86 297.17 89.8 297.21 89.8 297.21 89.75 297.24 89.75 297.24 89.69 297.28 89.69 297.28 89.64 297.32 89.64 297.32 89.58 297.35 89.58 297.35 89.53 297.39 89.53 297.39 89.47 297.43 89.47 297.43 89.42 297.46 89.42 297.46 89.36 297.5 89.36 297.5 89.31 297.54 89.31 297.54 89.25 297.57 89.25 297.57 89.19 297.61 89.19 297.61 89.14 297.65 89.14 297.65 89.08 297.68 89.08 297.68 89.03 297.72 89.03 297.72 88.97 297.76 88.97 297.76 88.92 297.79 88.92 297.79 88.86 297.83 88.86 297.83 88.81 297.87 88.81 297.87 88.75 297.9 88.75 297.9 88.7 297.94 88.7 297.94 88.64 297.98 88.64 297.98 88.59 298.01 88.59 298.01 88.53 298.05 88.53 298.05 88.48 298.08 88.48 298.08 88.42 298.12 88.42 298.12 88.37 298.16 88.37 298.16 88.32 298.19 88.32 298.19 88.26 298.23 88.26 298.23 88.21 298.23 82.71 286.69 82.71 286.69 78.78 286.73 78.78 290.56 78.78 290.56 78.72 290.59 78.72 290.59 78.67 290.63 78.67 290.63 78.61 290.67 78.61 290.67 78.56 290.7 78.56 290.7 78.5 290.74 78.5 290.74 78.45 290.78 78.45 290.78 78.39 290.81 78.39 290.81 78.34 290.85 78.34 290.85 78.28 290.89 78.28 290.89 78.23 290.92 78.23 290.92 78.17 290.96 78.17 290.96 78.12 291 78.12 291 78.06 291.03 78.06 291.03 78.01 291.07 78.01 291.07 77.95 291.11 77.95 291.11 77.9 291.14 77.9 291.14 77.84 291.18 77.84 291.18 77.79 291.22 77.79 291.22 77.73 291.25 77.73 291.25 77.68 291.29 77.68 291.29 77.62 291.33 77.62 291.33 77.57 291.36 77.57 291.36 77.51 291.4 77.51 291.4 77.46 291.44 77.46 291.44 77.4 291.47 77.4 291.47 77.35 291.51 77.35 291.51 77.29 291.55 77.29 291.55 77.24 291.58 77.24 291.58 77.18 291.62 77.18 291.62 77.13 291.66 77.13 291.66 77.07 291.69 77.07 291.69 77.02 291.73 77.02 291.73 76.96 291.77 76.96 291.77 76.91 291.8 76.91 291.8 76.85 291.84 76.85 291.84 76.8 291.88 76.8 291.88 76.74 291.91 76.74 291.91 76.69 291.95 76.69 291.95 76.63 291.99 76.63 291.99 76.58 292.02 76.58 292.02 76.52 292.06 76.52 292.06 76.47 292.1 76.47 292.1 76.41 292.13 76.41 292.13 76.36 292.17 76.36 292.17 76.3 292.21 76.3 292.21 76.25 292.24 76.25 292.24 76.19 292.28 76.19 292.28 76.14 292.32 76.14 292.32 76.08 292.35 76.08 292.35 76.03 292.39 76.03 292.39 75.97 292.43 75.97 292.43 75.92 292.46 75.92 292.46 75.86 292.5 75.86 292.5 75.81 292.54 75.81 292.54 75.75 292.57 75.75 292.57 75.7 292.57 70.11 286.69 70.11 286.69 66.14 286.73 66.14 296.22 66.14 296.22 66.09 296.25 66.09 296.25 66.03 296.29 66.03 296.29 65.98 296.33 65.98 296.33 65.92 296.36 65.92 296.36 65.87 296.4 65.87 296.4 65.81 296.44 65.81 296.44 65.76 296.47 65.76 296.47 65.7 296.51 65.7 296.51 65.65 296.55 65.65 296.55 65.59 296.58 65.59 296.58 65.54 296.62 65.54 296.62 65.48 296.66 65.48 296.66 65.43 296.69 65.43 296.69 65.37 296.73 65.37 296.73 65.32 296.77 65.32 296.77 65.26 296.8 65.26 296.8 65.21 296.84 65.21 296.84 65.15 296.88 65.15 296.88 65.1 296.91 65.1 296.91 65.04 296.95 65.04 296.95 64.99 296.99 64.99 296.99 64.93 297.02 64.93 297.02 64.88 297.06 64.88 297.06 64.82 297.1 64.82 297.1 64.77 297.13 64.77 297.13 64.71 297.17 64.71 297.17 64.66 297.21 64.66 297.21 64.6 297.24 64.6 297.24 64.55 297.28 64.55 297.28 64.49 297.32 64.49 297.32 64.44 297.35 64.44 297.35 64.38 297.39 64.38 297.39 64.33 297.43 64.33 297.43 64.27 297.46 64.27 297.46 64.22 297.5 64.22 297.5 64.16 297.54 64.16 297.54 64.11 297.57 64.11 297.57 64.05 297.61 64.05 297.61 64 297.65 64 297.65 63.94 297.68 63.94 297.68 63.89 297.72 63.89 297.72 63.83 297.76 63.83 297.76 63.78 297.79 63.78 297.79 63.72 297.83 63.72 297.83 63.67 297.87 63.67 297.87 63.61 297.9 63.61 297.9 63.56 297.94 63.56 297.94 63.5 297.98 63.5 297.98 63.45 298.01 63.45 298.01 63.39 298.05 63.39 298.05 63.34 298.08 63.34 298.08 63.28 298.12 63.28 298.12 63.23 298.16 63.23 298.16 63.17 298.19 63.17 298.19 63.12 298.23 63.12 298.23 63.06 298.23 57.61 281.07 57.61"/><polygon class="cls-10" points="298.27 63.06 296.2 60.37 298.27 57.55 298.27 63.06"/><polygon class="cls-10" points="298.27 88.2 296.2 85.44 298.27 82.64 298.27 88.2"/><polygon class="cls-10" points="292.61 75.7 290.54 72.95 292.61 70.06 292.61 75.7"/><polygon class="cls-4" points="281.07 57.55 283.89 60.37 283.89 85.44 281.07 88.21 281.07 57.55"/><polygon class="cls-8" points="283.89 60.37 296.2 60.37 298.27 57.55 281.07 57.55 283.89 60.37"/><polygon class="cls-7" points="283.89 60.37 286.73 63.06 298.27 63.06 296.2 60.37 283.89 60.37"/><polygon class="cls-7" points="283.89 85.44 296.2 85.44 298.27 88.2 281.07 88.2 283.89 85.44"/><polygon class="cls-8" points="286.73 82.65 283.89 85.44 296.2 85.44 298.27 82.64 286.73 82.65"/><polygon class="cls-7" points="290.54 72.95 283.86 72.95 286.73 75.7 292.61 75.7 290.54 72.95"/><polygon class="cls-8" points="292.61 70.06 286.73 70.06 283.86 72.95 290.54 72.95 292.61 70.06"/><polygon class="cls-10" points="283.89 60.37 283.86 72.95 286.73 70.06 286.73 63.06 283.89 60.37"/><polygon class="cls-10" points="286.73 82.65 283.89 85.44 283.86 72.95 286.73 75.7 286.73 82.65"/><polygon class="cls-6" points="315.4 82.65 315.4 66.14 315.37 66.14 315.37 82.71 319.23 82.71 319.23 82.65 315.4 82.65"/><polygon class="cls-6" points="326.94 61.23 323.17 57.55 309.75 57.55 309.75 57.61 323.14 57.61 326.91 61.28 326.91 84.57 326.94 84.53 326.94 61.23"/><path class="cls-3" d="M323.14,57.61H309.71v0h0v.06h0v.05h0v.06h0v.05h0v.06h0V58h0v.06h0v.05h0v.06h0v.05h0v.06h0v0h0v.06h0v0h0v.06h0v0h0v.06h0v0h0v.06h0v0h0v.06h0v0h0v.06h0v0h0V59h0v.05h0v.06h0v.05h0v.06h0v.05h0v.06h0v.05h0v.06h0v.05h0v.06h0v0h0v.06h0v0h0v.06h0v0h0v.06h0v0h0V60h0v0h0v.06h0v0h0v.06h0v0h0v.06h0v0h0v.06h0v.05h0v.06h0v.05h0V91.28h13.43l3.77-3.67v0l0,0v0l0,0v0l0,0v0l0,0v0l0,0v0l0,0v0l0,0v0l0,0v0l0,0v0l0,0v0l0,0v0l0,0v0l0,0v0l0,0v0l0,0v0l0,0v0l0,0v0l0,0v0l0,0v0l0,0v0l0,0v0l0,0v0l0,0v0l0,0v0l0,0v0l0,0v0l0,0v0l0,0v0l0,0v0l0,0v0l0,0v0l0,0v0l0,0v0l0,0v0l0,0v0l0,0v0l0,0v0l0,0v0l0,0v0l0,0v0l0,0v0l0,0v0l0,0v0l0,0v0l0,0v0l0,0v0l0,0v0l0,0v0l0,0v0l0,0v0l0,0v0l0,0v0l0,0v0l0,0v0l0,0V61.28Zm-7.77,25.1V66.14h3.17l.69.68V82.71Z"/><polygon class="cls-4" points="309.75 88.2 312.56 85.44 312.56 60.28 309.73 57.5 309.75 88.2"/><polygon class="cls-8" points="321.28 81.88 326.94 84.53 323.17 88.21 320.5 82.64 321.28 81.88"/><polygon class="cls-8" points="312.56 85.44 321.84 85.44 320.5 82.64 315.39 82.64 312.56 85.44"/><polygon class="cls-11" points="321.84 85.44 324.1 83.2 326.94 84.53 323.17 88.2 321.84 85.44"/><polygon class="cls-7" points="309.75 88.2 323.17 88.2 321.84 85.44 312.56 85.44 309.75 88.2"/><polygon class="cls-5" points="321.27 63.82 326.93 61.17 323.16 57.5 320.49 63.07 321.27 63.82"/><polygon class="cls-7" points="312.55 60.26 321.83 60.26 320.49 63.06 315.38 63.06 312.55 60.26"/><polygon class="cls-9" points="321.83 60.26 324.09 62.5 326.93 61.17 323.16 57.5 321.83 60.26"/><polygon class="cls-8" points="309.73 57.5 323.16 57.5 321.83 60.26 312.55 60.26 309.73 57.5"/><polygon class="cls-10" points="315.39 82.64 315.39 63.06 312.56 60.28 312.56 85.44 315.39 82.64"/><polygon class="cls-4" points="324.1 83.2 324.09 62.5 321.27 63.82 321.28 81.88 324.1 83.2"/><polygon class="cls-10" points="326.93 61.17 324.09 62.5 324.1 83.2 326.94 84.53 326.93 61.17"/><polygon class="cls-4" points="99.83 120.91 99.83 112.49 101.76 112.49 101.76 119.12 105.49 119.12 105.49 120.91 99.83 120.91"/><path class="cls-4" d="M114.75,112.32a4.39,4.39,0,1,1-4.49,4.39,4.32,4.32,0,0,1,4.49-4.39m0,6.92a2.55,2.55,0,1,0-2.5-2.54,2.41,2.41,0,0,0,2.5,2.54"/><path class="cls-4" d="M124.35,116.72a4.34,4.34,0,0,1,4.46-4.4,3.82,3.82,0,0,1,4,2.83l-1.82.56a2.07,2.07,0,0,0-2.2-1.57,2.54,2.54,0,0,0,0,5.07,2.19,2.19,0,0,0,2.27-1.58l1.84.51a4,4,0,0,1-4.11,3,4.3,4.3,0,0,1-4.48-4.37"/><path class="cls-4" d="M143.24,119.2H139.9l-.62,1.71h-2l3.25-8.42h2.23l3.22,8.42h-2.1Zm-2.7-1.71h2.09l-1-2.91Z"/><polygon class="cls-4" points="151.25 120.91 151.25 112.49 153.18 112.49 153.18 119.12 156.91 119.12 156.91 120.91 151.25 120.91"/><polygon class="cls-4" points="169.61 120.91 169.61 112.49 175.18 112.49 175.18 114.27 171.54 114.27 171.54 116.06 174.74 116.06 174.74 117.76 171.55 117.76 171.55 120.91 169.61 120.91"/><path class="cls-4" d="M185.21,119.2h-3.34l-.62,1.71h-2l3.25-8.42h2.23l3.22,8.42h-2.09Zm-2.7-1.71h2.1l-1-2.91Z"/><path class="cls-4" d="M195.83,117.78h-.68v3.13h-1.93v-8.42h3.43a2.6,2.6,0,0,1,2.8,2.64,2.4,2.4,0,0,1-1.7,2.37l1.75,3.41h-2.12Zm.45-1.62c.8,0,1.22-.43,1.22-1s-.42-1-1.22-1h-1.13v2Z"/><polygon class="cls-4" points="213.01 120.91 213.01 115.33 210.75 120.91 209.19 120.91 206.94 115.4 206.94 120.91 205.11 120.91 205.11 112.49 207.62 112.49 210 118.18 212.25 112.49 214.9 112.49 214.9 120.91 213.01 120.91"/><path class="cls-4" d="M225.22,115a1.29,1.29,0,0,0-1.43-1c-.72,0-1.19.44-1.19.9s.26.7.86.81l1.15.21a2.65,2.65,0,0,1,2.5,2.53c0,1.32-1.13,2.66-3.19,2.66-2.39,0-3.41-1.51-3.53-2.7l1.76-.41a1.6,1.6,0,0,0,1.79,1.45c.76,0,1.22-.36,1.22-.88s-.35-.74-.92-.84l-1.19-.22A2.55,2.55,0,0,1,220.7,115a2.89,2.89,0,0,1,3.1-2.7c2.16,0,3,1.25,3.16,2.24Z"/></g></g></svg>