<svg xmlns="http://www.w3.org/2000/svg" width="290.85" height="191.658" viewBox="0 0 290.85 191.658">
  <g id="Group_17" data-name="Group 17" transform="translate(-813.246 -171.359)">
    <g id="Group_10" data-name="Group 10">
      <g id="Group_6" data-name="Group 6" opacity="0.68" style="mix-blend-mode: multiply;isolation: isolate">
        <g id="Group_5" data-name="Group 5">
          <path id="Path_31" data-name="Path 31" d="M896.342,271.241c1.942,2.606,4.039,5.1,5.9,7.76l.056-.01c-.036-.279-.092-.551-.131-.829-.219-.213-.422-.421-.6-.624a2.305,2.305,0,0,0-.221-.221,1.23,1.23,0,0,1-.279-.57c-.481-3.482-2.3-6.459-3.415-9.693-.128-.371-.254-.741-.375-1.111-.263.628-.52,1.239-.778,1.853-.207-.121-.345-.152-.37-.224-.525-1.468-1.1-2.924-1.618-4.395l-.069.18c0,.006,0,.011,0,.017C894.711,266.049,894.606,268.912,896.342,271.241Z" fill="none"/>
          <path id="Path_32" data-name="Path 32" d="M899.708,252.652a10.722,10.722,0,0,1-.917,3.131c.049.422.1.847.146,1.269a24.932,24.932,0,0,0,1.032-2.846A14.82,14.82,0,0,0,899.708,252.652Z" fill="none"/>
          <path id="Path_33" data-name="Path 33" d="M973.427,273.706a10.835,10.835,0,0,0,.272,2.006,50.227,50.227,0,0,0,.007-6.72C973.2,270.369,973.4,272.133,973.427,273.706Z" fill="none"/>
          <path id="Path_34" data-name="Path 34" d="M887.708,270.719c.381.512.784,1.008,1.174,1.514a80.365,80.365,0,0,0-3.423-11.124c.007.1,0,.2.007.3C885.777,264.573,885.653,267.963,887.708,270.719Z" fill="none"/>
          <path id="Path_35" data-name="Path 35" d="M878.146,281.9c.121-.022.233-.042.314-.054a98.85,98.85,0,0,0-5.961-23.469c-1.113,2.9-2.224,5.863-1.029,9.179,1.463,4.06,2.567,8.252,4.089,12.288a4.628,4.628,0,0,0,2.687,2.825c-.022-.211-.081-.419-.088-.631C878.156,281.988,878.15,281.943,878.146,281.9Z" fill="none"/>
          <path id="Path_36" data-name="Path 36" d="M967.368,277.649c.011.031.02.072.031.1.077.3.213.582.314.875a1.9,1.9,0,0,0,.182-.57,41.767,41.767,0,0,0-.013-10.343c-.185.493-.39.985-.616,1.472A25.132,25.132,0,0,1,967.368,277.649Z" fill="none"/>
          <path id="Path_37" data-name="Path 37" d="M860.809,247.076c2.822-4.692,1.623-15.623-2.364-20.555C859.259,233.6,860.024,240.246,860.809,247.076Z" fill="none"/>
          <path id="Path_38" data-name="Path 38" d="M890.123,280.461c.1-.018.19-.034.257-.044-.355-2.767-.873-5.482-1.5-8.184-.39-.506-.793-1-1.174-1.514-2.055-2.756-1.931-6.146-2.242-9.313-.01-.1,0-.2-.007-.3-.086-.22-.151-.438-.239-.658-.862,2.051-1.581,3.765-2.319,5.52-.267-.157-.444-.2-.477-.29-.058-.16-.12-.319-.178-.479a7.411,7.411,0,0,0,.378,3.365c1.236,3.43,2.169,6.97,3.454,10.38a3.89,3.89,0,0,0,2.523,2.5,2.728,2.728,0,0,0,.19.252,17.129,17.129,0,0,0,1.492,1.485c.012.012.019.025.03.038.161.167.328.318.491.478a10.65,10.65,0,0,1-.671-3.123C890.132,280.535,890.126,280.5,890.123,280.461Z" fill="#ececec"/>
          <path id="Path_39" data-name="Path 39" d="M891.844,284.8a2.887,2.887,0,0,0,.495.47c-.136.109-.3.246-.461.38a44.8,44.8,0,0,1,4.763.441c.464-.136.928-.275,1.4-.363.1-.017.186-.021.279-.03a2.348,2.348,0,0,0,.277-.465C896.325,285.6,893.666,286.129,891.844,284.8Z" fill="#f5f5f5"/>
          <path id="Path_40" data-name="Path 40" d="M1066.214,195.558c-2.131-2.155-4.307-4.286-6.23-6.62-3.282-3.985-6.324-8.168-9.6-12.162a10.09,10.09,0,0,0-3.444-2.677,38.346,38.346,0,0,0-6.551-2.29,8.693,8.693,0,0,0-4.4-.258,14.04,14.04,0,0,1-9.392.061,3.186,3.186,0,0,0-4.36,3.318c-1.77-.115-3.518-.134-5.238-.36-3.53-.463-7.029-1.314-10.567-1.5-5.344-.283-10.8-.109-15.458,2.909a27.657,27.657,0,0,1-9.416,3.454c-8.995,1.992-18,4.019-27.088,5.478a99.254,99.254,0,0,1-17.862,1.2c-6.938-.157-13.863-1.088-20.777-1.826-2.875-.307-5.707-1-8.563-1.493-2.972-.512-5.942-1.342-8.925-1.4a99.207,99.207,0,0,0-10.668.855,24.793,24.793,0,0,0-2.517.273c-5.72,1.116-11.444,2.209-17.143,3.421a59.7,59.7,0,0,0-7.484,2.051c-3.167,1.12-5.74,3.032-6.732,6.467a64.256,64.256,0,0,0-2.937,21.3,38.719,38.719,0,0,0,1.329,9.37,22.408,22.408,0,0,1-.861,15.913c-.9,2.185-1.547,4.956-1.023,7.156,1.113,4.675,3.065,9.152,4.693,13.7.047.134.3.193.692.421,1.069-2.546,2.113-5.03,3.363-8.005a116.92,116.92,0,0,1,7.482,28.954c-.1.014-.228.038-.372.064,0,.055.012.107.014.164a15.96,15.96,0,0,0,1.058,4.809,10.842,10.842,0,0,0,1.067,1.076c2.9,2.5,7.541,1.223,11.151.705.326-.211.644-.43.953-.635.125-.082.905-.754,1.663-1.391a4.965,4.965,0,0,1-2.122-1.054,8.989,8.989,0,0,1-.9-.909,14.6,14.6,0,0,1-.806-3.432,4.628,4.628,0,0,1-2.687-2.825c-1.522-4.036-2.626-8.228-4.089-12.288-1.195-3.316-.084-6.284,1.029-9.179-.128-.331-.227-.659-.36-.991-1.056,2.513-1.937,4.612-2.84,6.762-.327-.192-.545-.242-.585-.355a112.413,112.413,0,0,1-3.965-11.576,10.6,10.6,0,0,1,.865-6.045,18.937,18.937,0,0,0,.727-13.444,32.77,32.77,0,0,1-1.123-7.916,54.317,54.317,0,0,1,2.481-17.992c.838-2.9,3.013-4.516,5.687-5.463a50.55,50.55,0,0,1,6.323-1.733c4.814-1.023,9.65-1.946,14.482-2.889a20.889,20.889,0,0,1,2.127-.231,83.751,83.751,0,0,1,9.012-.723,51.033,51.033,0,0,1,7.539,1.183c2.413.416,4.8,1,7.234,1.261,5.841.624,11.692,1.409,17.552,1.542a83.757,83.757,0,0,0,15.09-1.014c7.678-1.233,15.285-2.946,22.883-4.628a23.362,23.362,0,0,0,7.955-2.918c3.933-2.549,8.544-2.7,13.058-2.457,2.989.158,5.946.878,8.927,1.269,1.454.191,2.93.207,4.425.3a2.692,2.692,0,0,1,3.684-2.8,11.856,11.856,0,0,0,7.934-.052,7.35,7.35,0,0,1,3.717.218,32.377,32.377,0,0,1,5.534,1.935,8.51,8.51,0,0,1,2.909,2.262c2.765,3.374,5.334,6.907,8.108,10.274,1.624,1.971,3.462,3.771,5.262,5.592a6.636,6.636,0,0,1,1.264,1.731c1.155-.962,2.316-1.916,3.521-2.811,1.226-.911,3.1-2.059,4.279-1.716,3.232.941,5.773-.565,8.4-1.607C1068.8,201.682,1069.3,198.675,1066.214,195.558Zm-205.4,51.518c-.785-6.83-1.55-13.478-2.364-20.555C862.432,231.453,863.631,242.384,860.809,247.076Z" fill="#ececec"/>
          <path id="Path_41" data-name="Path 41" d="M1037.349,215.849a7.512,7.512,0,0,0-1.48.733Q1036.594,216.193,1037.349,215.849Z" fill="#f5f5f5"/>
          <path id="Path_42" data-name="Path 42" d="M985.752,256.515q-.942.55-1.925,1.051a1.436,1.436,0,0,0-.134.382,28.979,28.979,0,0,1-3.007,9.445c-.864,1.735-.525,4.134-.486,6.229a30.247,30.247,0,0,0,.722,4.369,9.925,9.925,0,0,0,.458,1.892,36.61,36.61,0,0,0,2.851,6.833,45.519,45.519,0,0,0-4.644.726,2.62,2.62,0,0,1,.325.332c.108.151.221.3.332.446q.666.525,1.359.988a16.569,16.569,0,0,1,3.108,1.033c.538-.126,1.013-.244,1.349-.31a55.584,55.584,0,0,1,5.685-.894,43.345,43.345,0,0,1-3.375-8.089,11.732,11.732,0,0,1-.542-2.238,35.839,35.839,0,0,1-.854-5.173c-.047-2.48-.448-5.319.575-7.373a34.351,34.351,0,0,0,3.56-11.18,1.6,1.6,0,0,1,.087-.251A13.19,13.19,0,0,1,985.752,256.515Z" fill="#ececec"/>
          <path id="Path_43" data-name="Path 43" d="M871.621,233.9c.687,5.978,1.333,11.6,2,17.364C876,247.3,874.989,238.069,871.621,233.9Z" fill="#ececec"/>
          <path id="Path_44" data-name="Path 44" d="M1021.166,226.41a2.754,2.754,0,0,0-1.872.494,42.852,42.852,0,0,0-6.685,5.871,50.218,50.218,0,0,0-7.459,10.333c-2.55,4.572-6.528,7.684-11.029,10.132,2.543-.256,4.739-1.516,7-2.626,6.271-3.079,11.935-7.007,15.387-13.2a60.727,60.727,0,0,1,7.812-11.081A5.359,5.359,0,0,1,1021.166,226.41Z" fill="#ececec"/>
          <path id="Path_45" data-name="Path 45" d="M886.427,255.459c1.946-3.235,1.119-10.773-1.63-14.174C885.358,246.165,885.885,250.75,886.427,255.459Z" fill="#c5c5c5"/>
          <path id="Path_46" data-name="Path 46" d="M902.673,281.683a8.512,8.512,0,0,1-.565-2.57c0-.031-.006-.059-.008-.088l.143-.024c-1.862-2.658-3.959-5.154-5.9-7.76-1.736-2.329-1.631-5.192-1.894-7.867,0-.006,0-.011,0-.017-.753,1.963-1.478,3.977-.668,6.223,1.009,2.8,1.77,5.69,2.819,8.473a3.177,3.177,0,0,0,2.059,2.039,2.4,2.4,0,0,0,.155.2,14.064,14.064,0,0,0,1.218,1.212c.01.01.015.021.025.031.3.315.612.614.924.9a4.394,4.394,0,0,0,.729.768c-.241.2-.547.452-.84.7,1.009.07,2.017.169,3.02.313.393-.115.784-.233,1.18-.307.08-.015.157-.018.236-.025a2.029,2.029,0,0,0,.255-.43,1.1,1.1,0,0,0,.08-.418,3.672,3.672,0,0,1-2.4-.786A5.834,5.834,0,0,1,902.673,281.683Z" fill="#c5c5c5"/>
          <path id="Path_47" data-name="Path 47" d="M1048.405,209.477a6.636,6.636,0,0,0-1.264-1.731c-1.8-1.821-3.638-3.621-5.262-5.592-2.774-3.367-5.343-6.9-8.108-10.274a8.51,8.51,0,0,0-2.909-2.262,32.377,32.377,0,0,0-5.534-1.935,7.35,7.35,0,0,0-3.717-.218,11.856,11.856,0,0,1-7.934.052,2.692,2.692,0,0,0-3.684,2.8c-1.495-.1-2.971-.113-4.425-.3-2.981-.391-5.938-1.111-8.927-1.269-4.514-.239-9.125-.092-13.058,2.457a23.362,23.362,0,0,1-7.955,2.918c-7.6,1.682-15.205,3.4-22.883,4.628a83.757,83.757,0,0,1-15.09,1.014c-5.86-.133-11.711-.918-17.552-1.542-2.429-.26-4.821-.845-7.234-1.261a51.033,51.033,0,0,0-7.539-1.183,83.751,83.751,0,0,0-9.012.723,20.889,20.889,0,0,0-2.127.231c-4.832.943-9.668,1.866-14.482,2.889a50.55,50.55,0,0,0-6.323,1.733c-2.674.947-4.849,2.562-5.687,5.463a54.317,54.317,0,0,0-2.481,17.992,32.77,32.77,0,0,0,1.123,7.916,18.937,18.937,0,0,1-.727,13.444,10.6,10.6,0,0,0-.865,6.045,112.413,112.413,0,0,0,3.965,11.576c.04.113.258.163.585.355.9-2.15,1.784-4.249,2.84-6.762.133.332.232.66.36.991a98.85,98.85,0,0,1,5.961,23.469c-.081.012-.193.032-.314.054,0,.046.01.091.012.138.007.212.066.42.088.631a14.6,14.6,0,0,0,.806,3.432,8.989,8.989,0,0,0,.9.909,4.965,4.965,0,0,0,2.122,1.054c2.271.548,5.025-.132,7.3-.458.276-.178.544-.364.8-.536.123-.081.981-.823,1.7-1.422.161-.134.325-.271.461-.38a2.887,2.887,0,0,1-.495-.47c-.08-.059-.169-.1-.246-.163a7.573,7.573,0,0,1-.736-.741c-.022-.064-.036-.13-.058-.194-.163-.16-.33-.311-.491-.478-.011-.013-.018-.026-.03-.038a17.129,17.129,0,0,1-1.492-1.485,2.728,2.728,0,0,1-.19-.252,3.89,3.89,0,0,1-2.523-2.5c-1.285-3.41-2.218-6.95-3.454-10.38a7.411,7.411,0,0,1-.378-3.365,82.028,82.028,0,0,1-3.058-8.97,8.647,8.647,0,0,1,.706-4.935,15.455,15.455,0,0,0,.593-10.973,26.684,26.684,0,0,1-.916-6.462,44.3,44.3,0,0,1,2.025-14.686,6.716,6.716,0,0,1,4.642-4.459,41.133,41.133,0,0,1,5.16-1.415c3.93-.836,7.878-1.589,11.822-2.359a17,17,0,0,1,1.736-.188,68.36,68.36,0,0,1,7.356-.59,41.751,41.751,0,0,1,6.155.965c1.969.34,3.922.818,5.9,1.03,4.768.509,9.544,1.15,14.327,1.259a68.45,68.45,0,0,0,12.318-.829c6.268-1,12.476-2.4,18.679-3.777a19.078,19.078,0,0,0,6.493-2.382c3.211-2.081,6.974-2.2,10.659-2.005,2.44.129,4.853.716,7.287,1.036,1.186.155,2.392.168,3.612.248a2.2,2.2,0,0,1,3.007-2.289,9.678,9.678,0,0,0,6.476-.042,6,6,0,0,1,3.034.178,26.48,26.48,0,0,1,4.517,1.579,6.943,6.943,0,0,1,2.375,1.847c2.257,2.754,4.354,5.638,6.618,8.386,1.325,1.609,2.826,3.079,4.295,4.565a4.8,4.8,0,0,1,1.2,1.846c1.932-1.551,3.81-3.174,5.8-4.65.239-.178.514-.367.8-.548a7.512,7.512,0,0,1,1.48-.733,2.294,2.294,0,0,1,1.337-.169c2.73.8,4.877-.477,7.1-1.357C1048.538,213.232,1049.379,211.451,1048.405,209.477Zm-174.787,41.79c-.664-5.769-1.31-11.386-2-17.364C874.989,238.069,876,247.3,873.618,251.267Z" fill="#c5c5c5"/>
          <path id="Path_48" data-name="Path 48" d="M981.38,279.883a9.925,9.925,0,0,1-.458-1.892,30.247,30.247,0,0,1-.722-4.369c-.039-2.1-.378-4.494.486-6.229a28.979,28.979,0,0,0,3.007-9.445,1.436,1.436,0,0,1,.134-.382c-.216.11-.427.226-.645.333-1.852.909-3.639,1.967-5.842,1.829-.248.164-.476.351-.732.507a1.658,1.658,0,0,0-.33.678,23.683,23.683,0,0,1-2.455,7.709,3.7,3.7,0,0,0-.117.37,50.227,50.227,0,0,1-.007,6.72c.109.52.229,1.04.317,1.561a8.126,8.126,0,0,0,.373,1.544,29.931,29.931,0,0,0,2.328,5.578c-1.015.091-2.02.264-3.025.452.011.1.023.181.034.281a2.547,2.547,0,0,1,.508.521c.092.128.187.251.281.376q.563.444,1.148.835a13.976,13.976,0,0,1,2.626.873c.454-.107.856-.206,1.139-.262l.159-.029a45.519,45.519,0,0,1,4.644-.726A36.61,36.61,0,0,1,981.38,279.883Z" fill="#c5c5c5"/>
          <path id="Path_49" data-name="Path 49" d="M1005.15,243.108a50.218,50.218,0,0,1,7.459-10.333,42.852,42.852,0,0,1,6.685-5.871,10.187,10.187,0,0,0-1.078.69c-2.139,1.588-4.088,3.433-6.242,5a5.909,5.909,0,0,1-2.129.712c.55,1.214-.006,2.3-1.708,2.978-1.405.557-2.763,1.362-4.49.858a1.066,1.066,0,0,0-.37,0,45.047,45.047,0,0,0-3.4,3.226,40.916,40.916,0,0,0-6.088,8.434,20.824,20.824,0,0,1-8.041,7.716,13.19,13.19,0,0,0,5.444-1.782c.318-.16.636-.32.956-.477q1-.489,1.969-1.016C998.622,250.792,1002.6,247.68,1005.15,243.108Z" fill="#c5c5c5"/>
          <path id="Path_50" data-name="Path 50" d="M898.937,257.052c.1.865.2,1.727.3,2.6a9.3,9.3,0,0,0,.733-5.445A24.932,24.932,0,0,1,898.937,257.052Z" fill="#585858"/>
          <path id="Path_51" data-name="Path 51" d="M897.973,248.667c.28,2.438.55,4.781.818,7.116a10.722,10.722,0,0,0,.917-3.131A9.9,9.9,0,0,0,897.973,248.667Z" fill="#585858"/>
          <path id="Path_52" data-name="Path 52" d="M967.266,269.185c-.1.222-.2.445-.306.666-.546,1.1-.332,2.615-.307,3.94a19.327,19.327,0,0,0,.456,2.764,6.809,6.809,0,0,0,.259,1.094A25.132,25.132,0,0,0,967.266,269.185Z" fill="#585858"/>
          <path id="Path_53" data-name="Path 53" d="M908.713,278.739a1.6,1.6,0,0,0,.121.159,10.722,10.722,0,0,0,.943.939c.008.008.012.016.019.024.235.244.475.476.717.7a3.423,3.423,0,0,0,.565.6c-.4.319-1.009.847-1.252,1.046.437.048.874.1,1.31.158a9.872,9.872,0,0,1,.962-.25,1.866,1.866,0,0,1,.193-.021,1.6,1.6,0,0,0,.208-.351c.331-.793-.56-1.605-1.284-2.235a2.815,2.815,0,0,1-1.148-1.036c-1.4-2.048-2.987-3.967-4.5-5.94.5,1.552.975,3.11,1.548,4.632A2.464,2.464,0,0,0,908.713,278.739Z" fill="#585858"/>
          <path id="Path_54" data-name="Path 54" d="M901.072,276.747a1.23,1.23,0,0,0,.279.57,2.305,2.305,0,0,1,.221.221c.174.2.377.411.6.624a62.388,62.388,0,0,0-3.867-14.643c-.367.872-.7,1.661-1.019,2.424.121.37.247.74.375,1.111C898.774,270.288,900.591,273.265,901.072,276.747Z" fill="#585858"/>
          <path id="Path_55" data-name="Path 55" d="M974.389,278.817a8.126,8.126,0,0,1-.373-1.544c-.088-.521-.208-1.041-.317-1.561a10.835,10.835,0,0,1-.272-2.006c-.03-1.573-.232-3.337.279-4.714a3.7,3.7,0,0,1,.117-.37,23.683,23.683,0,0,0,2.455-7.709,1.658,1.658,0,0,1,.33-.678c-.771.47-1.572.9-2.395,1.306-1.458.716-2.861,1.561-4.607,1.421-.232-.018-.7.569-.743.915a16.727,16.727,0,0,1-.981,3.836,41.767,41.767,0,0,1,.013,10.343,1.9,1.9,0,0,1-.182.57,31.665,31.665,0,0,0,1.489,3.447c-.4.036-.789.1-1.182.155.047.258.086.546.122.87a2.132,2.132,0,0,1,.415.426c.075.1.152.205.229.307q.459.363.937.681a11.517,11.517,0,0,1,2.143.713c.371-.087.7-.169.93-.214.3-.058.6-.109.9-.164,1.005-.188,2.01-.361,3.025-.452A29.931,29.931,0,0,1,974.389,278.817Z" fill="#585858"/>
          <path id="Path_56" data-name="Path 56" d="M1001.361,238.058c-1.658,1.231-3.168,2.66-4.837,3.873a10.01,10.01,0,0,1-2.258.731,19.974,19.974,0,0,0-7.113,5.292,31.76,31.76,0,0,0-4.718,6.536,15.275,15.275,0,0,1-5.095,5.238c2.2.138,3.99-.92,5.842-1.829.218-.107.429-.223.645-.333q.982-.5,1.925-1.051a20.824,20.824,0,0,0,8.041-7.716,40.916,40.916,0,0,1,6.088-8.434,45.047,45.047,0,0,1,3.4-3.226A4.457,4.457,0,0,0,1001.361,238.058Z" fill="#585858"/>
          <path id="Path_57" data-name="Path 57" d="M1029.273,221.78a4.8,4.8,0,0,0-1.2-1.846c-1.469-1.486-2.97-2.956-4.295-4.565-2.264-2.748-4.361-5.632-6.618-8.386a6.943,6.943,0,0,0-2.375-1.847,26.48,26.48,0,0,0-4.517-1.579,6,6,0,0,0-3.034-.178,9.678,9.678,0,0,1-6.476.042,2.2,2.2,0,0,0-3.007,2.289c-1.22-.08-2.426-.093-3.612-.248-2.434-.32-4.847-.907-7.287-1.036-3.685-.195-7.448-.076-10.659,2.005a19.078,19.078,0,0,1-6.493,2.382c-6.2,1.374-12.411,2.772-18.679,3.777a68.45,68.45,0,0,1-12.318.829c-4.783-.109-9.559-.75-14.327-1.259-1.982-.212-3.935-.69-5.9-1.03a41.751,41.751,0,0,0-6.155-.965,68.36,68.36,0,0,0-7.356.59,17,17,0,0,0-1.736.188c-3.944.77-7.892,1.523-11.822,2.359a41.133,41.133,0,0,0-5.16,1.415,6.716,6.716,0,0,0-4.642,4.459,44.3,44.3,0,0,0-2.025,14.686,26.684,26.684,0,0,0,.916,6.462,15.455,15.455,0,0,1-.593,10.973,8.647,8.647,0,0,0-.706,4.935,82.028,82.028,0,0,0,3.058,8.97c.058.16.12.319.178.479.033.092.21.133.477.29.738-1.755,1.457-3.469,2.319-5.52.088.22.153.438.239.658a80.365,80.365,0,0,1,3.423,11.124c.625,2.7,1.143,5.417,1.5,8.184-.067.01-.158.026-.257.044,0,.038.009.074.01.113a10.65,10.65,0,0,0,.671,3.123c.022.064.036.13.058.194a7.573,7.573,0,0,0,.736.741c.077.066.166.1.246.163,1.822,1.334,4.481.8,6.749.433.234-.038.47-.077.694-.11.226-.145.445-.3.657-.437.074-.049.482-.4.924-.771.293-.248.6-.505.84-.7a4.394,4.394,0,0,1-.729-.768c-.312-.288-.621-.587-.924-.9-.01-.01-.015-.021-.025-.031a14.064,14.064,0,0,1-1.218-1.212,2.4,2.4,0,0,1-.155-.2,3.177,3.177,0,0,1-2.059-2.039c-1.049-2.783-1.81-5.673-2.819-8.473-.81-2.246-.085-4.26.668-6.223l.069-.18a29.793,29.793,0,0,1-.89-2.928,6.7,6.7,0,0,1,.547-3.823,11.973,11.973,0,0,0,.46-8.5,20.689,20.689,0,0,1-.71-5.007,34.328,34.328,0,0,1,1.569-11.38,5.207,5.207,0,0,1,3.6-3.456,31.862,31.862,0,0,1,4-1.1c3.046-.648,6.1-1.231,9.161-1.828a13.1,13.1,0,0,1,1.345-.146,53.222,53.222,0,0,1,5.7-.457,32.275,32.275,0,0,1,4.769.748c1.526.263,3.039.634,4.575.8,3.7.394,7.4.891,11.1.975a52.949,52.949,0,0,0,9.545-.642c4.857-.779,9.668-1.862,14.474-2.927a14.763,14.763,0,0,0,5.032-1.846c2.488-1.612,5.4-1.705,8.26-1.553,1.89.1,3.76.554,5.646.8.92.121,1.854.131,2.8.192a1.7,1.7,0,0,1,2.33-1.773,7.5,7.5,0,0,0,5.019-.032,4.652,4.652,0,0,1,2.351.137,20.542,20.542,0,0,1,3.5,1.224,5.387,5.387,0,0,1,1.84,1.431c1.749,2.134,3.374,4.369,5.128,6.5,1.027,1.247,2.19,2.385,3.329,3.537a4.137,4.137,0,0,1,.849,1.182,5.909,5.909,0,0,0,2.129-.712c2.154-1.565,4.1-3.41,6.242-5a10.187,10.187,0,0,1,1.078-.69,2.754,2.754,0,0,1,1.872-.494,5.359,5.359,0,0,0,3.154-.074c.906-.27,1.766-.687,2.64-1.033C1029,224.493,1029.748,223.216,1029.273,221.78ZM886.427,255.459c-.542-4.709-1.069-9.294-1.63-14.174C887.546,244.686,888.373,252.224,886.427,255.459Z" fill="#585858"/>
          <path id="Path_58" data-name="Path 58" d="M961.69,278.6a12.776,12.776,0,0,1,.705,1.484,5.166,5.166,0,0,1,.163.984,1.629,1.629,0,0,1,.321.33c.058.08.119.158.178.237q.355.282.726.528a8.918,8.918,0,0,1,1.661.553c.287-.068.541-.131.721-.166.619-.121,1.236-.229,1.855-.323.393-.06.786-.119,1.182-.155a31.665,31.665,0,0,1-1.489-3.447c-.1-.293-.237-.572-.314-.875-.011-.03-.02-.071-.031-.1a6.809,6.809,0,0,1-.259-1.094,19.327,19.327,0,0,1-.456-2.764c-.025-1.325-.239-2.842.307-3.94.111-.221.2-.444.306-.666.226-.487.431-.979.616-1.472a16.727,16.727,0,0,0,.981-3.836c.043-.346.511-.933.743-.915,1.746.14,3.149-.705,4.607-1.421.823-.4,1.624-.836,2.395-1.306.256-.156.484-.343.732-.507a15.275,15.275,0,0,0,5.095-5.238,31.76,31.76,0,0,1,4.718-6.536,19.974,19.974,0,0,1,7.113-5.292,10.01,10.01,0,0,0,2.258-.731c1.669-1.213,3.179-2.642,4.837-3.873a4.457,4.457,0,0,1,1.916-.919,1.066,1.066,0,0,1,.37,0c1.727.5,3.085-.3,4.49-.858,1.7-.674,2.258-1.764,1.708-2.978a4.137,4.137,0,0,0-.849-1.182c-1.139-1.152-2.3-2.29-3.329-3.537-1.754-2.13-3.379-4.365-5.128-6.5a5.387,5.387,0,0,0-1.84-1.431,20.542,20.542,0,0,0-3.5-1.224,4.652,4.652,0,0,0-2.351-.137,7.5,7.5,0,0,1-5.019.032,1.7,1.7,0,0,0-2.33,1.773c-.945-.061-1.879-.071-2.8-.192-1.886-.248-3.756-.7-5.646-.8-2.856-.152-5.772-.059-8.26,1.553a14.763,14.763,0,0,1-5.032,1.846c-4.806,1.065-9.617,2.148-14.474,2.927a52.949,52.949,0,0,1-9.545.642c-3.707-.084-7.408-.581-11.1-.975-1.536-.164-3.049-.535-4.575-.8a32.275,32.275,0,0,0-4.769-.748,53.222,53.222,0,0,0-5.7.457,13.1,13.1,0,0,0-1.345.146c-3.056.6-6.115,1.18-9.161,1.828a31.862,31.862,0,0,0-4,1.1,5.207,5.207,0,0,0-3.6,3.456,34.328,34.328,0,0,0-1.569,11.38,20.689,20.689,0,0,0,.71,5.007,11.973,11.973,0,0,1-.46,8.5,6.7,6.7,0,0,0-.547,3.823,29.793,29.793,0,0,0,.89,2.928c.515,1.471,1.093,2.927,1.618,4.395.025.072.163.1.37.224.258-.614.515-1.225.778-1.853.321-.763.652-1.552,1.019-2.424a62.388,62.388,0,0,1,3.867,14.643c.039.278.095.55.131.829l-.056.01-.143.024c0,.029.007.057.008.088a8.512,8.512,0,0,0,.565,2.57,5.834,5.834,0,0,0,.57.574,3.672,3.672,0,0,0,2.4.786,21.969,21.969,0,0,0,3.562-.409c.175-.112.345-.23.51-.339.014-.009.071-.057.115-.093.243-.2.854-.727,1.252-1.046a3.423,3.423,0,0,1-.565-.6c-.242-.223-.482-.455-.717-.7-.007-.008-.011-.016-.019-.024a10.722,10.722,0,0,1-.943-.939,1.6,1.6,0,0,1-.121-.159,2.464,2.464,0,0,1-1.6-1.58c-.573-1.522-1.051-3.08-1.548-4.632-.208-.646-.406-1.3-.636-1.934-.747-2.073.192-3.893.847-5.693.419-1.15,1.492-2.045,2.1-3.149a10.208,10.208,0,0,0,1.727-5.155,14.439,14.439,0,0,0-.284-1.844,2.236,2.236,0,0,1,.765,2.741,16.227,16.227,0,0,1-1.977,4.869c-1.61,2.187-.882,4.219-.173,6.274.866,2.506,2.274,4.813,2.647,7.511a.946.946,0,0,0,.216.442,1.626,1.626,0,0,1,.171.171c.51.6,1.327,1.246,2.034,1.964a8.5,8.5,0,0,0,2.575,1.522,23.292,23.292,0,0,1,2.8.25c.248-.072.5-.147.746-.193.051-.01.1-.012.149-.017a1.262,1.262,0,0,0,.162-.271c.256-.615-.435-1.244-.995-1.732a2.182,2.182,0,0,1-.89-.8c-1.226-1.793-2.646-3.451-3.945-5.2-1.1-1.473-1.032-3.284-1.2-4.976a16.848,16.848,0,0,1,.324-3.7,2.969,2.969,0,0,1,1.531-2.309,5.283,5.283,0,0,0,2.8-5.478c-.131-1.084.269-1.589,1.336-1.445a28.514,28.514,0,0,1,5.285,1.053c3.05,1.029,6.039,2.249,9.012,3.487a7.91,7.91,0,0,0,6.166-.108,40.077,40.077,0,0,1,4.615-1.606,8.666,8.666,0,0,1,2.991-.064c3.108.34,6.222.669,9.3,1.183,2.923.487,5.326,1.957,5.392,5.3a9.168,9.168,0,0,0,.527,2.311,32.489,32.489,0,0,1,.672,11.229C962.031,278.536,961.69,278.6,961.69,278.6Zm-62.454-18.95c-.1-.872-.2-1.734-.3-2.6-.048-.422-.1-.847-.146-1.269-.268-2.335-.538-4.678-.818-7.116a9.9,9.9,0,0,1,1.735,3.985,14.82,14.82,0,0,1,.261,1.554A9.3,9.3,0,0,1,899.236,259.651Z" fill="#313131"/>
          <path id="Path_59" data-name="Path 59" d="M961.559,278.421" fill="#313131"/>
          <path id="Path_60" data-name="Path 60" d="M961.679,277.99c.743-1.131.438-6.26-.054-9.382-.725,3.174-2.916,6.262-.172,9.643A.979.979,0,0,0,961.679,277.99Z" fill="#313131"/>
        </g>
      </g>
      <g id="Group_8" data-name="Group 8">
        <path id="Path_61" data-name="Path 61" d="M823.484,316.077v-2.894l-.572-.572h-2.807v3.466Z" fill="none"/>
        <path id="Path_62" data-name="Path 62" d="M823.484,327.28V324.4l-.571-.571h-2.807v3.447Z" fill="none"/>
        <path id="Path_63" data-name="Path 63" d="M823.484,316.077h-3.379v-3.466h-.033v3.515h3.411Z" fill="#ddd"/>
        <path id="Path_64" data-name="Path 64" d="M829.582,318.769h0l.755.755v1.3l0,0v8.152l.033-.032v-8.169l0,0v-1.3l-.755-.755v.015Z" fill="#ddd"/>
        <path id="Path_65" data-name="Path 65" d="M823.484,327.329v-.049h-3.379v-3.447h-.033v3.5Z" fill="#ddd"/>
        <path id="Path_66" data-name="Path 66" d="M815.072,304.952V305h11.912l3.356,3.268v8.052l-.008.008v1.317l.033-.033v-1.333l.008-.008v-8.052l-3.356-3.268Z" fill="#ddd"/>
        <path id="Path_67" data-name="Path 67" d="M830.34,316.32v-8.052L826.984,305H815.039v.049h-.032v.049h-.033v.049h-.033v.049h-.032v.049h-.033v.049h-.032v.049h-.033v.049h-.033v.049h-.032v.048h-.033v.049h-.032v.049h-.033v.049h-.033v.049h-.032v.049h-.033v.049h-.032v.049h-.033v.049h-.033v.049h-.032v.048h-.033v.049h-.032v.049h-.033v.049h-.033v.049h-.032v.049h-.033v.049h-.033v.049h-.032v.049h-.033v.049h-.032v.048h-.033v.049h-.033v.049H814v.049h-.033v.049h-.032v.049H813.9v.049h-.033v.049h-.032v.049H813.8v.049h-.032v.048h-.033v.049H813.7v.049h-.032v.049h-.033v.049H813.6v.049h-.033v.049h-.033v.049h-.032v.049h-.033v.049h-.032v.048h-.033v.049h-.033v.049h-.032v.049h-.033v.049h-.032v.049h-.033v27.268h11.945l3.356-3.267v-.017l.032-.032v-.017l.033-.032v-.017l.033-.032v-.017l.032-.032v-.017l.033-.032v-.017l.032-.032v-.017l.033-.031v-.018l.033-.031v-.018l.032-.031v-.017l.033-.032v-.017l.032-.032v-.017l.033-.032v-.017l.033-.032v-.017l.032-.032v-.017l.033-.032v-.017l.032-.032v-.017l.033-.031v-.018l.033-.031v-.018l.032-.031v-.017l.033-.032V330.7l.032-.032v-.017l.033-.032V330.6l.033-.032v-.017l.032-.032V330.5l.033-.032v-.017l.032-.032V330.4l.033-.031v-.018l.033-.031V330.3l.032-.032v-.017l.033-.032v-.017l.032-.032v-.017l.033-.032v-.017l.033-.032v-.017l.032-.032v-.017l.033-.032v-.017l.033-.032v-.017l.032-.031v-.018l.033-.031v-.017l.032-.032v-.017l.033-.032v-.017l.033-.032v-.017l.032-.032v-.017l.033-.032v-.017l.032-.032v-.017l.033-.032v-.017l.033-.031v-.018l.032-.031v-.018l.033-.031v-.017l.032-.032v-.017l.033-.032v-.017l.033-.032v-.017l.032-.032v-.017l.033-.032v-.017l.032-.032v-.017l.033-.032v-8.168l0,0v-1.3l-.755-.756h0l.033-.032v-.015h0l.032-.033v-.016l.033-.033v-.016l.032-.033v-.016l.033-.033v-.016l.033-.033v-.016l.032-.033v-.016l.033-.032v-.017l.033-.032v-.017l.032-.032v-.017l.033-.032v-.016l.032-.033v-.016l.033-.033v-.016l.033-.033v-.016l.032-.033v-.016L830.1,318v-.016l.032-.033v-.016l.033-.032v-.017l.033-.032v-.017l.032-.032v-.016l.033-.033v-.016l.032-.033v-.016l.033-.033v-1.333Zm-10.234,7.513h2.807l.571.571v2.925h-3.411v-3.5Zm-.033-11.222h2.84l.571.571v2.895h-3.411Z" fill="#3c3c3c"/>
        <line id="Line_1" data-name="Line 1" y2="24.773" transform="translate(817.626 304.946)" fill="#565656" stroke="#565656" stroke-miterlimit="10" stroke-width="0.094"/>
        <path id="Path_68" data-name="Path 68" d="M825.31,321.666" fill="#565656" stroke="#565656" stroke-miterlimit="10" stroke-width="0.094"/>
        <path id="Path_69" data-name="Path 69" d="M830.37,319.477" fill="#565656" stroke="#565656" stroke-miterlimit="10" stroke-width="0.094"/>
        <path id="Path_70" data-name="Path 70" d="M825.31,321.666" fill="#565656" stroke="#565656" stroke-miterlimit="10" stroke-width="0.094"/>
        <path id="Path_71" data-name="Path 71" d="M817.626,329.719l-2.555,2.5v-27.3l2.55,2.572Z" fill="#bbb"/>
        <path id="Path_72" data-name="Path 72" d="M817.626,329.719l2.459-2.46v-6.165l-2.5-2.5Z" fill="#9f9f9f"/>
        <path id="Path_73" data-name="Path 73" d="M817.626,318.578l2.459-2.46v-6.246l-2.5-2.423Z" fill="#9f9f9f"/>
        <path id="Path_74" data-name="Path 74" d="M817.581,307.449h8.227l-1.069,2.424h-4.653Z" fill="#8d8d8d"/>
        <path id="Path_75" data-name="Path 75" d="M817.581,307.449h8.227l1.183-2.534h-11.92Z" fill="#cecece"/>
        <path id="Path_76" data-name="Path 76" d="M826.991,304.915l3.381,3.3-2.715,1.107-1.85-1.876Z" fill="#828282"/>
        <path id="Path_77" data-name="Path 77" d="M824.739,309.873l1.069-2.423,1.85,1.876-2.347,1.119Z" fill="#b6b6b6"/>
        <path id="Path_78" data-name="Path 78" d="M820.086,327.26h4.6l1.135,2.46h-8.195Z" fill="#cecece"/>
        <path id="Path_79" data-name="Path 79" d="M815.071,332.219l2.555-2.5h8.195l1.2,2.5Z" fill="#8d8d8d"/>
        <path id="Path_80" data-name="Path 80" d="M817.626,318.578" fill="#8d8d8d"/>
        <path id="Path_81" data-name="Path 81" d="M820.086,321.094h4.653l.92-2.49h-8.033Z" fill="#8d8d8d"/>
        <path id="Path_82" data-name="Path 82" d="M820.086,316.12h4.653l.92,2.49h-8.033Z" fill="#cecece"/>
        <path id="Path_83" data-name="Path 83" d="M825.31,310.444v5l2.347,1.026v-7.149Z" fill="#bbb"/>
        <path id="Path_84" data-name="Path 84" d="M830.372,308.218l-2.715,1.107v7.149l2.707,1.137Z" fill="#9f9f9f"/>
        <path id="Path_85" data-name="Path 85" d="M824.739,316.12l.572-.672,2.347,1.026-2,2.135Z" fill="#ddd"/>
        <path id="Path_86" data-name="Path 86" d="M825.659,318.61l2-2.135,2.707,1.137-.93.93Z" fill="#7e7e7e"/>
        <path id="Path_87" data-name="Path 87" d="M827.748,320.582v7.209l2.624,1.161v-9.476Z" fill="#9f9f9f"/>
        <path id="Path_88" data-name="Path 88" d="M824.686,327.26l.624-.589,2.438,1.122-1.927,1.927Z" fill="#ddd"/>
        <path id="Path_89" data-name="Path 89" d="M825.659,318.61l2.089,1.973,2.624-1.105-.937-.935Z" fill="#828282"/>
        <path id="Path_90" data-name="Path 90" d="M824.739,321.094l.92-2.485,2.089,1.973-2.438,1.084Z" fill="#b6b6b6"/>
        <path id="Path_91" data-name="Path 91" d="M825.31,321.666v5l2.438,1.122v-7.209Z" fill="#bbb"/>
        <path id="Path_92" data-name="Path 92" d="M827.748,327.792l-1.927,1.927,1.2,2.5,3.356-3.268Z" fill="#7e7e7e"/>
        <path id="Path_93" data-name="Path 93" d="M846.42,327.28h2.747V313.31l-.4-.4-.321-.321h-2.689V326.62Z" fill="none"/>
        <path id="Path_94" data-name="Path 94" d="M849.167,327.28H846.42l-.66-.66V312.591h-.033v14.077l.66.66h2.78Z" fill="#ddd"/>
        <path id="Path_95" data-name="Path 95" d="M844.081,304.952l-3.356,3.268v.017L844.049,305h8.589l3.356,3.268v20.678l.033-.032V308.219l-3.356-3.268Z" fill="#ddd"/>
        <path id="Path_96" data-name="Path 96" d="M852.638,305h-8.589l-3.323,3.236-.033.032v.017l-.032.032v.017l-.033.032v.017l-.033.032v.017l-.032.032v.017l-.033.032v.017l-.033.031v.018l-.032.031v.017l-.033.032v.017l-.032.032v.017l-.033.032v.017l-.033.032v.017l-.032.032v.017l-.033.032v.017l-.032.032v.017L840.2,309v.017l-.033.031v.018l-.032.031v.017l-.033.032v.017l-.032.032v.017l-.033.032v.017l-.033.032v.017l-.032.032v.017l-.033.032v.017l-.032.032v.017l-.033.032v.017l-.033.031v.018l-.032.031v.017l-.033.032v.017l-.032.032v.017l-.033.032v.017l-.033.032v.017l-.032.032v.017l-.033.032v.017l-.032.032v.017l-.033.032V310l-.033.031v.018l-.032.031v.017l-.033.032v.017l-.032.032v.017l-.033.032v.017l-.033.032v.017l-.032.032v.017l-.033.032v.017l-.032.032v.017l-.033.031v.018l-.033.031v.018l-.032.031v.017l-.033.032v.017l-.033.032v.017l-.032.032v.017l-.033.032v.017l-.032.032v.017l-.033.032v.017l-.033.032v.017l-.032.031v20.7l3.356,3.306h8.589l3.356-3.306v-.017l.032-.032v-.017l.033-.032v-.017l.032-.032v-.017l.033-.032v-.016l.033-.033v-.016l.032-.032v-.017l.033-.032v-.017l.032-.032v-.017l.033-.032V331.2l.033-.032v-.017l.032-.032V331.1l.033-.032v-.017l.032-.032V331l.033-.032v-.016l.033-.033V330.9l.032-.032v-.017l.033-.032V330.8l.032-.032v-.017l.033-.032v-.017l.033-.032v-.017l.032-.032v-.017l.033-.032v-.017l.033-.032v-.017l.032-.032v-.016l.033-.033v-.016l.032-.032v-.017l.033-.032v-.017l.033-.032v-.017l.032-.032v-.017l.033-.032v-.017l.032-.032v-.017l.033-.032v-.017l.033-.032v-.016l.032-.033v-.016l.033-.032v-.017l.032-.032v-.017l.033-.032v-.017l.033-.032v-.017l.032-.032v-.017l.033-.032v-.017l.032-.032v-.017l.033-.032v-.017l.033-.032v-.016l.032-.033v-.016l.033-.032v-.017l.032-.032v-.017l.033-.032v-.017l.033-.032v-.017l.032-.032v-.017l.033-.032v-.017l.032-.032v-.017l.033-.032v-.017l.033-.032v-.016l.032-.033v-.016l.033-.032v-20.7Zm-6.911,21.668V312.591h2.721l.321.321.4.4v14.019h-2.78Z" fill="#3c3c3c"/>
        <path id="Path_97" data-name="Path 97" d="M845.225,307.374" fill="#cecece"/>
        <path id="Path_98" data-name="Path 98" d="M844.081,304.951l1.144,2.424-2,2-2.5-1.156Z" fill="#ddd"/>
        <path id="Path_99" data-name="Path 99" d="M852.67,304.951l-1.184,2.424h-6.261l-1.144-2.424Z" fill="#cecece"/>
        <path id="Path_100" data-name="Path 100" d="M851.486,307.374l1.184-2.424,3.338,3.253-2.508,1.185Z" fill="#828282"/>
        <path id="Path_101" data-name="Path 101" d="M853.5,309.389v18.362l2.525,1.163-.018-20.71Z" fill="#9f9f9f"/>
        <path id="Path_102" data-name="Path 102" d="M853.5,327.751l-1.994,2,1.163,2.466,3.356-3.307Z" fill="#7e7e7e"/>
        <path id="Path_103" data-name="Path 103" d="M852.67,332.22l-1.163-2.466h-6.28l-1.146,2.466Z" fill="#8d8d8d"/>
        <path id="Path_104" data-name="Path 104" d="M844.081,332.22l-3.355-3.307,2.5-1.162,2,2Z" fill="#b6b6b6"/>
        <path id="Path_105" data-name="Path 105" d="M851.507,329.754l1.994-2-2.5-1.135-.68.665Z" fill="#ddd"/>
        <path id="Path_106" data-name="Path 106" d="M845.228,329.754l-2-2,2.531-1.135.637.643Z" fill="#828282"/>
        <path id="Path_107" data-name="Path 107" d="M851.507,329.754h-6.28l1.165-2.5h3.926Z" fill="#cecece"/>
        <path id="Path_108" data-name="Path 108" d="M840.726,328.914v-20.7l2.5,1.156v18.377Z" fill="#bbb"/>
        <path id="Path_109" data-name="Path 109" d="M851,310.577l2.5-1.188v18.362l-2.5-1.135Z" fill="#bbb"/>
        <path id="Path_110" data-name="Path 110" d="M843.225,309.375l2.531,1.2v16.039l-2.531,1.135Z" fill="#9f9f9f"/>
        <path id="Path_111" data-name="Path 111" d="M845.756,310.577l-2.531-1.2,2-2,1.245,2.471Z" fill="#7e7e7e"/>
        <path id="Path_112" data-name="Path 112" d="M846.47,309.845h3.8l1.213-2.471h-6.261Z" fill="#8d8d8d"/>
        <path id="Path_113" data-name="Path 113" d="M851,310.577l2.5-1.188-2.015-2.015-1.213,2.471Z" fill="#b6b6b6"/>
        <path id="Path_114" data-name="Path 114" d="M897.18,332.22h.033V326.16l-.033-.083Z" fill="#ddd"/>
        <path id="Path_115" data-name="Path 115" d="M900.62,313.822v-.133l-3.407-8.738h-5.034V305h5Z" fill="#ddd"/>
        <path id="Path_116" data-name="Path 116" d="M902.446,305h5v27.22h.033V304.952h-5.034Z" fill="#ddd"/>
        <path id="Path_117" data-name="Path 117" d="M902.446,305h-.033v.049h-.033v.049h-.033v.049h-.033v.049h-.033v.049h-.033v.049h-.033v.049h-.033v.049h-.033v.049h-.033v.049h-.033v.049h-.033v.049h-.033v.049h-.033v.049h-.033v.049h-.033v.049h-.033v.049h-.033v.049h-.033v.049h-.033v.049h-.033v.049h-.033v.049H901.7v.049h-.033v.049h-.033v.049H901.6v.049h-.033v.049h-.033v.049H901.5v.049h-.033v.049h-.033v.049H901.4v.049h-.033v.049h-.033v.049H901.3v.049h-.033v.049h-.033v.049h-.033v.049h-.033v.049h-.033v.049h-.033v.049h-.033v.049h-.033v.049h-.033v.049h-.033v.049h-.033v.049h-.033v.049h-.033v.049h-.033v.049h-.033v.049h-.033v.049h-.033v.049h-.033v.049h-.033v.049h-.033v.049h-.033v6.132L897.18,305h-5.034v.049h-.033v.049h-.033v.049h-.033v.049h-.033v.049h-.033v.049h-.033v.049h-.033v.049h-.033v.049h-.033v.049h-.033v.049h-.033v.049h-.033v.049h-.033v.049h-.033v.049h-.033v.049h-.033v.049h-.033v.049h-.033v.049h-.033v.049h-.033v.049h-.033v.049h-.033v.049H891.4v.049h-.033v.049h-.033v.049H891.3v.049h-.033v.049h-.033v.049H891.2v.049h-.033v.049h-.033v.049H891.1v.049h-.033v.049h-.033v.049h-.033v.049h-.033v.049h-.033v.049h-.033v.049h-.033v.049h-.033v.049h-.033v.049h-.033v.049h-.033v.049h-.033v.049h-.033v.049h-.033v.049h-.033v.049h-.033v.049h-.033v.049h-.033v.049h-.033v.049h-.033v.049h-.033v.049h-.033v.049h-.033v27.268h5.034v-.049h.033v-.049h.033v-.049h.033v-.049h.033v-.049h.033v-.049h.033v-.049h.033v-.049h.033v-.049h.033v-.049h.033v-.049h.033v-.049h.033v-.049h.033v-.049h.033v-.049h.033v-.049h.033v-.049h.033v-.049h.033v-.049h.033v-.049h.033v-.049h.033v-.049h.033v-.049h.033v-.049h.033v-.049h.033v-.049h.033v-.049h.033v-.049h.033v-.049h.033v-.049h.033v-.049h.033v-.049h.033v-.049h.033V333.3h.033v-.049h.033V333.2h.033v-.049h.033V333.1h.033v-.049h.033V333h.033v-.049h.033V332.9h.033v-.049h.033v-.049h.033v-.049h.033v-.049h.033v-.049h.033v-.049h.033v-.049h.033v-.049h.033v-.049h.033v-.049h.033v-.049h.033v-.049h.033v-.049h.033v-6.193l.033.083,3.447,8.8h4.994v-.049h.033v-.049h.033v-.049h.033v-.049h.033v-.049h.033v-.049h.033v-.049h.033v-.049h.033v-.049h.033v-.049h.033v-.049h.033v-.049h.033v-.049h.033v-.049h.033v-.049h.033v-.049h.033v-.049h.033v-.049h.033v-.049h.033v-.049h.033v-.049h.033v-.049h.033v-.049h.033v-.049h.033v-.049h.033v-.049h.033v-.049h.033v-.049h.033v-.049h.033v-.049h.033v-.049h.033v-.049h.033v-.049h.033V333.3h.033v-.049h.033V333.2h.033v-.049h.033V333.1h.033v-.049h.033V333h.033v-.049h.033V332.9h.033v-.049h.033v-.049h.033v-.049h.033v-.049h.033v-.049h.033v-.049h.033v-.049h.033v-.049h.033v-.049h.033v-.049h.033v-.049h.033v-.049h.033v-.049h.033V305Z" fill="#3c3c3c"/>
        <path id="Path_118" data-name="Path 118" d="M892.179,332.22V304.946l2.518,2.5v22.315Z" fill="#bbb"/>
        <path id="Path_119" data-name="Path 119" d="M892.179,332.22h5.033l-2.517-2.462Z" fill="#8d8d8d"/>
        <path id="Path_120" data-name="Path 120" d="M894.7,307.443l2.525-2.493h-5.042Z" fill="#cecece"/>
        <path id="Path_121" data-name="Path 121" d="M894.7,329.758V307.443l2.516,11.32V332.22Z" fill="#9f9f9f"/>
        <path id="Path_122" data-name="Path 122" d="M897.221,304.95l5.223,13.418,2.516,11.366L894.7,307.443Z" fill="#9f9f9f"/>
        <path id="Path_123" data-name="Path 123" d="M902.486,332.22l2.474-2.486L894.7,307.443l2.516,11.32Z" fill="#bbb"/>
        <path id="Path_124" data-name="Path 124" d="M902.444,304.947h5.023l-2.508,2.477Z" fill="#cecece"/>
        <path id="Path_125" data-name="Path 125" d="M904.96,329.734v-22.31l-2.516-2.477v13.421Z" fill="#bbb"/>
        <path id="Path_126" data-name="Path 126" d="M902.486,332.22h4.994l-2.52-2.486Z" fill="#8d8d8d"/>
        <path id="Path_127" data-name="Path 127" d="M904.96,307.424l2.507-2.477.012,27.273-2.519-2.486S904.95,307.424,904.96,307.424Z" fill="#9f9f9f"/>
        <path id="Path_128" data-name="Path 128" d="M874.833,316.077v-2.894l-.572-.572h-2.8v3.466Z" fill="none"/>
        <path id="Path_129" data-name="Path 129" d="M878.691,321.625l-.038.037L883.9,332.22h.057Z" fill="#ddd"/>
        <path id="Path_130" data-name="Path 130" d="M871.425,332.22h.033v-7.557l-.033-.066Z" fill="#ddd"/>
        <path id="Path_131" data-name="Path 131" d="M874.833,316.077h-3.376v-3.466h-.033v3.515h3.408Z" fill="#ddd"/>
        <path id="Path_132" data-name="Path 132" d="M881.692,308.268v9.474l.033-.032v-9.491l-3.356-3.268H866.424V305h11.912Z" fill="#ddd"/>
        <path id="Path_133" data-name="Path 133" d="M878.691,321.625l1.208-1.176v-.017l.032-.032v-.017l.033-.032v-.017L880,320.3v-.017l.033-.032v-.017l.033-.032v-.017l.032-.032v-.017l.033-.031v-.018l.032-.031v-.017l.033-.032v-.017l.033-.032v-.017l.032-.032v-.017l.033-.032v-.017l.033-.032V319.8l.032-.032v-.017l.033-.032V319.7l.032-.031v-.018l.033-.031V319.6l.033-.031v-.017l.032-.032V319.5l.033-.032v-.017l.032-.032V319.4l.033-.032v-.017l.033-.032v-.017l.032-.032v-.017l.033-.032v-.017l.032-.031v-.018l.033-.031v-.018l.033-.031v-.017l.032-.032v-.017l.033-.032v-.017l.032-.032v-.017l.033-.032v-.017l.033-.032v-.017l.032-.032v-.017l.033-.032v-.017l.032-.031v-.018l.033-.031v-.018l.033-.031v-.017l.032-.032v-.017l.033-.032v-.017l.032-.032v-.017l.033-.032v-.017l.033-.032v-.017l.032-.032v-.017l.033-.032v-.017l.032-.031v-.018l.033-.031v-.017l.033-.032v-.017l.032-.032v-.017l.033-.032v-.017l.033-.032v-.017l.032-.032v-.017l.033-.032v-.017l.032-.032v-.017l.033-.031v-9.492L878.336,305H866.391v.049h-.032v.049h-.033v.049h-.033v.049h-.032v.049h-.033v.049H866.2v.049h-.033v.049h-.033v.049H866.1v.048h-.033v.049h-.032v.049H866v.049h-.033v.049h-.032v.049H865.9v.049h-.032v.049h-.033v.049H865.8v.049h-.032v.048h-.033v.049h-.033v.049h-.032v.049h-.033v.049h-.032v.049h-.033v.049h-.033v.049h-.032v.049h-.033v.049h-.032v.048h-.033v.049h-.033v.049h-.032v.049h-.033v.049h-.032v.049h-.033v.049h-.033v.049h-.032v.049h-.033v.049h-.032v.048h-.033v.049h-.033v.049h-.032v.049h-.033v.049h-.033v.049h-.032v.049h-.033v.049h-.032v.049h-.033v.049h-.033v.048h-.032v.049h-.033v.049H864.7v.049h-.033v.049h-.033v.049H864.6v27.268h5.034v-.049h.032v-.048h.033v-.049h.032v-.049h.033v-.049h.033v-.049h.032v-.049h.033v-.049h.032v-.049h.033v-.049h.033v-.049h.032v-.048h.033v-.049h.032v-.049h.033v-.049h.033v-.049h.032v-.049h.033v-.049h.032v-.049h.033v-.049h.033v-.048h.032v-.049h.033v-.049h.032v-.049h.033v-.049h.033v-.049h.032v-.049h.033v-.049h.033v-.049h.032v-.049h.033v-.048h.032v-.049h.033v-.049h.033V333.3h.032v-.049h.033V333.2h.032v-.049h.033V333.1h.033v-.049h.032V333h.033v-.048h.032V332.9H871v-.049h.033v-.049h.032v-.049h.033v-.049h.032v-.049h.033v-.049h.033v-.049h.032v-.048h.033v-.049h.032v-.049h.033v-.049h.033v-.049h.032v-.049h.033V324.6l.033.066,5.085,10.3h5.593l-.025-.049h.057l-.024-.048h.057l-.024-.049h.057l-.025-.049h.057l-.024-.049h.057l-.024-.049h.056l-.024-.049h.057l-.024-.049h.057l-.025-.049h.057l-.024-.049h.057l-.024-.049h.057l-.025-.048h.057l-.024-.049h.057l-.025-.049h.057l-.024-.049h.057l-.024-.049h.057l-.025-.049h.057l-.024-.049h.057l-.025-.049h.057l-.024-.049h.057l-.024-.048h.057l-.025-.049h.057l-.024-.049h.057l-.025-.049h.057l-.024-.049h.057l-.024-.049h.057l-.025-.049h.057l-.024-.049h.057l-.025-.049h.057l-.024-.049h.057l-.024-.048h.057l-.025-.049h.057l-.024-.049h.057l-.024-.049h.056l-.024-.049h.057l-.024-.049h.057l-.025-.049h.057l-.024-.049h.057l-.024-.049h.056l-.024-.049h.057l-.024-.048h.057l-.025-.049h.057l-.024-.049h.057l-.024-.049h.056l-.024-.049h.057l-.024-.049h.057l-.025-.049h.057l-.024-.049h.057l-.024-.049h.057l-.025-.048h.057l-.024-.049h.057l-.025-.049h.057l-.024-.049h.057l-.024-.049h.057l-.025-.049h.057l-.024-.049-5.253-10.558Zm-7.266-9.014h2.837l.571.571v2.944h-3.408Z" fill="#3c3c3c"/>
        <path id="Path_134" data-name="Path 134" d="M866.424,332.22" fill="none"/>
        <path id="Path_135" data-name="Path 135" d="M868.929,307.394l-2.522-2.454v27.28l2.5-2.472Z" fill="#bbb"/>
        <path id="Path_136" data-name="Path 136" d="M866.406,304.94h11.977l-1.187,2.454h-8.268Z" fill="#cecece"/>
        <path id="Path_137" data-name="Path 137" d="M877.2,307.394l1.942,1.942,2.582-1.124-3.336-3.271Z" fill="#828282"/>
        <path id="Path_138" data-name="Path 138" d="M868.929,307.394l2.5,2.478h4.657l1.109-2.478Z" fill="#8d8d8d"/>
        <path id="Path_139" data-name="Path 139" d="M876.659,310.444l2.479-1.109-1.942-1.942-1.109,2.478Z" fill="#b6b6b6"/>
        <path id="Path_140" data-name="Path 140" d="M881.72,308.211l0,9.5-2.586-1.144v-7.23Z" fill="#9f9f9f"/>
        <path id="Path_141" data-name="Path 141" d="M879.138,309.336v7.23l-2.479-1.117v-5Z" fill="#bbb"/>
        <path id="Path_142" data-name="Path 142" d="M879.138,316.566l-1.945,1.945,1.175,2.467,3.356-3.268Z" fill="#7e7e7e"/>
        <path id="Path_143" data-name="Path 143" d="M871.457,316.076l-.027-6.2-2.5-2.478-.012,11.117Z" fill="#9f9f9f"/>
        <path id="Path_144" data-name="Path 144" d="M876.035,316.072l-4.578,0-2.54,2.435h8.276Z" fill="#cecece"/>
        <path id="Path_145" data-name="Path 145" d="M868.917,318.511l2.54,2.467V332.22l-2.555-2.472Z" fill="#9f9f9f"/>
        <path id="Path_146" data-name="Path 146" d="M874.415,318.567" fill="#0d0d0d"/>
        <path id="Path_147" data-name="Path 147" d="M868.917,318.511h5.531l-1.632,2.467h-1.358Z" fill="#8d8d8d"/>
        <path id="Path_148" data-name="Path 148" d="M874.448,318.511l-1.632,2.467,5.553,11.242,1.62-2.462Z" fill="#cecece"/>
        <path id="Path_149" data-name="Path 149" d="M874.448,318.511h2.745l1.175,2.467Z" fill="#8d8d8d"/>
        <path id="Path_150" data-name="Path 150" d="M874.448,318.511l5.541,11.248,3.973,2.462-5.593-11.242Z" fill="#9f9f9f"/>
        <path id="Path_151" data-name="Path 151" d="M868.9,329.748l-2.5,2.472h5.051Z" fill="#8d8d8d"/>
        <path id="Path_152" data-name="Path 152" d="M878.368,332.22l1.62-2.462,3.973,2.462Z" fill="#8d8d8d"/>
        <path id="Path_153" data-name="Path 153" d="M876.659,315.448l2.479,1.117-1.945,1.945-1.158-2.439Z" fill="#ddd"/>
        <path id="Path_154" data-name="Path 154" d="M978.083,316.077v-2.894l-.572-.572h-2.758v3.466Z" fill="none"/>
        <path id="Path_155" data-name="Path 155" d="M981.987,321.625l-.038.037L987.2,332.22h.057Z" fill="#ddd"/>
        <path id="Path_156" data-name="Path 156" d="M984.988,308.268v9.474l.033-.032v-9.491l-3.356-3.268H969.72V305h11.912Z" fill="#ddd"/>
        <path id="Path_157" data-name="Path 157" d="M974.754,316.077v-3.466h-.033v3.515h3.362v-.049Z" fill="#ddd"/>
        <path id="Path_158" data-name="Path 158" d="M974.721,332.22h.033v-7.557l-.033-.066Z" fill="#ddd"/>
        <path id="Path_159" data-name="Path 159" d="M981.987,321.625l1.208-1.176v-.017l.032-.032v-.017l.033-.032v-.017l.033-.032v-.017l.032-.032v-.017l.033-.032v-.017l.032-.032v-.017l.033-.031v-.018l.033-.031v-.017l.032-.032v-.017l.033-.032v-.017l.033-.032v-.017l.032-.032v-.017l.033-.032V319.8l.032-.032v-.017l.033-.032V319.7l.033-.031v-.018l.032-.031V319.6l.033-.031v-.017l.032-.032V319.5l.033-.032v-.017l.033-.032V319.4l.032-.032v-.017l.033-.032v-.017l.032-.032v-.017l.033-.032v-.017l.033-.031v-.018l.032-.031v-.018l.033-.031v-.017l.032-.032v-.017l.033-.032v-.017l.033-.032v-.017l.032-.032v-.017l.033-.032v-.017l.032-.032v-.017l.033-.032v-.017l.033-.031v-.018l.032-.031v-.018l.033-.031v-.017l.032-.032v-.017l.033-.032v-.017l.033-.032v-.017l.032-.032v-.017l.033-.032v-.017l.032-.032v-.017l.033-.032v-.017l.033-.031v-.018l.032-.031v-.017l.033-.032v-.017l.033-.032v-.017l.032-.032v-.017l.033-.032v-.017l.032-.032v-.017l.033-.032v-.017l.033-.032v-.017l.032-.031v-9.492L981.632,305H969.687v.049h-.032v.049h-.033v.049h-.032v.049h-.033v.049h-.033v.049h-.032v.049h-.033v.049h-.032v.049h-.033v.048h-.033v.049h-.032v.049H969.3v.049h-.032v.049h-.033v.049H969.2v.049h-.032v.049h-.033v.049H969.1v.049h-.033v.048h-.033v.049H969v.049h-.033v.049h-.033v.049h-.032v.049h-.033v.049h-.032v.049h-.033v.049h-.033v.049h-.032v.048h-.033v.049h-.032v.049h-.033v.049h-.033v.049h-.032v.049h-.033v.049h-.032v.049h-.033v.049h-.033v.049h-.032v.048h-.033v.049h-.032v.049h-.033v.049h-.033v.049h-.032v.049h-.033v.049h-.032v.049h-.033v.049h-.033v.049h-.032v.048h-.033v.049h-.032v.049h-.033v.049h-.033v.049h-.032v.049h-.033v27.268h5.034v-.049h.032v-.048h.033v-.049h.033v-.049h.032v-.049h.033v-.049h.032v-.049h.033v-.049h.033v-.049h.032v-.049h.033v-.049h.032v-.048h.033v-.049h.033v-.049h.032v-.049h.033v-.049h.032v-.049h.033v-.049h.033v-.049h.032v-.049h.033v-.048h.032v-.049h.033v-.049h.033v-.049h.032v-.049h.033v-.049h.033v-.049h.032v-.049h.033v-.049h.032v-.049h.033v-.048h.033v-.049h.032v-.049H974V333.3h.032v-.049h.033V333.2h.033v-.049h.032V333.1h.033v-.049h.032V333h.033v-.048h.033V332.9h.032v-.049h.033v-.049h.032v-.049h.033v-.049h.033v-.049h.032v-.049h.033v-.049h.032v-.048h.033v-.049h.033v-.049h.032v-.049h.033v-.049h.033v-.049h.032V324.6l.033.066,5.085,10.3h5.593l-.024-.049h.057l-.025-.048h.057l-.024-.049h.057l-.024-.049h.056l-.024-.049h.057l-.024-.049h.057l-.025-.049h.057l-.024-.049h.057l-.024-.049h.057l-.025-.049h.057l-.024-.049h.057l-.025-.048h.057l-.024-.049h.057l-.024-.049h.057l-.025-.049h.057l-.024-.049h.057l-.025-.049h.057l-.024-.049h.057l-.024-.049h.057l-.025-.049h.057l-.024-.048h.057l-.025-.049h.057l-.024-.049h.057l-.024-.049h.057l-.025-.049h.057l-.024-.049h.057l-.025-.049h.057l-.024-.049h.057l-.024-.049h.057l-.025-.049h.057l-.024-.048h.057l-.024-.049h.056l-.024-.049h.057l-.024-.049h.057l-.025-.049h.057l-.024-.049h.057l-.024-.049h.056l-.024-.049h.057l-.024-.049h.057l-.025-.049h.057l-.024-.048h.057l-.024-.049h.056l-.024-.049h.057l-.024-.049h.057l-.025-.049h.057l-.024-.049h.057l-.024-.049h.057l-.025-.049H987l-.024-.049h.057l-.025-.048h.057l-.024-.049h.057l-.024-.049h.057l-.025-.049h.057l-.024-.049h.057l-.025-.049h.057l-.024-.049-5.252-10.558Zm-7.266-5.5v-3.515h2.791l.571.571v2.944Z" fill="#3c3c3c"/>
        <path id="Path_160" data-name="Path 160" d="M969.746,332.22" fill="none"/>
        <path id="Path_161" data-name="Path 161" d="M972.251,307.394l-2.522-2.454v27.28l2.5-2.472Z" fill="#bbb"/>
        <path id="Path_162" data-name="Path 162" d="M969.728,304.94h11.978l-1.187,2.454h-8.268Z" fill="#cecece"/>
        <path id="Path_163" data-name="Path 163" d="M980.518,307.394l1.942,1.942,2.582-1.124-3.336-3.271Z" fill="#828282"/>
        <path id="Path_164" data-name="Path 164" d="M972.251,307.394l2.5,2.478h4.657l1.109-2.478Z" fill="#8d8d8d"/>
        <path id="Path_165" data-name="Path 165" d="M979.981,310.444l2.479-1.109-1.942-1.942-1.109,2.478Z" fill="#b6b6b6"/>
        <path id="Path_166" data-name="Path 166" d="M985.042,308.211l0,9.5-2.586-1.144v-7.23Z" fill="#9f9f9f"/>
        <path id="Path_167" data-name="Path 167" d="M982.46,309.336v7.23l-2.479-1.117v-5Z" fill="#bbb"/>
        <path id="Path_168" data-name="Path 168" d="M982.46,316.566l-1.945,1.945,1.175,2.467,3.356-3.268Z" fill="#7e7e7e"/>
        <path id="Path_169" data-name="Path 169" d="M974.779,316.076l-.027-6.2-2.5-2.478-.012,11.117Z" fill="#9f9f9f"/>
        <path id="Path_170" data-name="Path 170" d="M979.357,316.072l-4.578,0-2.54,2.435h8.276Z" fill="#cecece"/>
        <path id="Path_171" data-name="Path 171" d="M972.239,318.511l2.54,2.467V332.22l-2.555-2.472Z" fill="#9f9f9f"/>
        <path id="Path_172" data-name="Path 172" d="M977.737,318.567" fill="#0d0d0d"/>
        <path id="Path_173" data-name="Path 173" d="M972.239,318.511h5.531l-1.632,2.467h-1.358Z" fill="#8d8d8d"/>
        <path id="Path_174" data-name="Path 174" d="M977.769,318.511l-1.632,2.467,5.553,11.242,1.62-2.462Z" fill="#cecece"/>
        <path id="Path_175" data-name="Path 175" d="M977.769,318.511h2.745l1.175,2.467Z" fill="#8d8d8d"/>
        <path id="Path_176" data-name="Path 176" d="M977.769,318.511l5.541,11.248,3.972,2.462-5.593-11.242Z" fill="#9f9f9f"/>
        <path id="Path_177" data-name="Path 177" d="M972.225,329.748l-2.5,2.472h5.051Z" fill="#8d8d8d"/>
        <path id="Path_178" data-name="Path 178" d="M981.69,332.22l1.62-2.462,3.972,2.462Z" fill="#8d8d8d"/>
        <path id="Path_179" data-name="Path 179" d="M979.981,315.448l2.479,1.117-1.945,1.945-1.158-2.439Z" fill="#ddd"/>
        <path id="Path_180" data-name="Path 180" d="M934.378,327.068h3.052v-3.313h-3.509v2.856Z" fill="none"/>
        <path id="Path_181" data-name="Path 181" d="M934.378,327.068l-.457-.457v-2.856h-.033v2.9l.457.457h3.084v-.049Z" fill="#ddd"/>
        <path id="Path_182" data-name="Path 182" d="M940.741,305l3.316,3.268v4.5h.033v-4.551l-3.316-3.268h-8.829l-3.276,3.229v.017l3.243-3.2Z" fill="#ddd"/>
        <path id="Path_183" data-name="Path 183" d="M933.9,315.368v-2.776h-.033v2.825l.554.554h12.27v5.047h.033v-5.1h-12.27Z" fill="#ddd"/>
        <path id="Path_184" data-name="Path 184" d="M944.376,328.829l.033-.032v-5.042h-.033Z" fill="#ddd"/>
        <path id="Path_185" data-name="Path 185" d="M934.423,315.97l-.554-.553v-2.826H936.7l.528.528v.677h0v1.713h5.033v-.049h.033v-.049h.032v-.049h.033v-.049h.033v-.049h.032v-.049h.033v-.049h.032v-.049h.033v-.048h.033v-.049h.032v-.049h.033v-.049h.033v-.049h.032v-.049h.033v-.049h.032v-.049h.033v-.049h.033v-.048h.032v-.049h.033v-.049h.032v-.049h.033v-.049h.033v-.049h.032v-.049h.033v-.049h.032v-.049h.033v-.049h.033v-.048h.032v-.049h.033v-.049h.032v-.049h.033v-.049h.033v-.049h.032v-.049h.033V313.8h.032v-.049h.033V313.7h.033v-.048h.032V313.6h.033v-.049h.033V313.5h.032v-.049h.033v-.049h.032v-.049h.033v-.049h.033v-.049h.032v-.049h.033v-.048h.032v-.049h.033v-.049h.033v-.049h.032v-.049h.033v-.049h.032v-.049h.033v-.049h.033v-4.551L940.741,305h-8.829l-3.243,3.2-.033.032v.017l-.033.032v.017l-.032.032v.017l-.033.032v.017l-.032.032v.017l-.033.032v.016l-.033.033v.016l-.032.032v.017l-.033.032v.017l-.032.032v.017l-.033.032v.017l-.033.032v.017l-.032.032v.017l-.033.032v.017l-.032.032v.017l-.033.032v.016l-.033.033v.016l-.032.032v.017l-.033.032v.017l-.032.032v.017l-.033.032v.017l-.033.032v.017l-.032.032v.017l-.033.032v.017l-.033.032v.016l-.032.033v.016l-.033.032v.017l-.032.032v.017l-.033.032v.017l-.033.032v.017l-.032.032v.017l-.033.032v.017l-.032.032v.017l-.033.032v.017l-.033.032v.016l-.032.033v.016l-.033.032v.017l-.032.032v.017l-.033.032v.017l-.033.032v.017l-.032.032v.017l-.033.032v.017l-.032.032v.017l-.033.032v.017l-.033.032v.016l-.032.033v.016l-.033.032v.017l-.033.032v.017l-.032.032v.017l-.033.032v.017l-.032.032v.017l-.033.032v.017l-.033.032v.017l-.032.032v.017l-.033.032v.016l-.032.033v8.052l1.813,1.765-.02.019v.017l-.033.032v.017l-.032.032v.017l-.033.031v.018l-.032.031v.018l-.033.031v.018l-.033.031v.018l-.032.031v.018l-.033.031v.018l-.032.031v.018l-.033.031v.017l-.033.032v.017l-.032.032v.017l-.033.031v.018l-.032.031v.018l-.033.031v.018l-.033.031v.018l-.032.031v.018l-.033.031v.018l-.032.031v.018l-.033.031v.017l-.033.032v.017l-.032.032v.017l-.033.031v.018l-.033.031v.018l-.032.031v.018l-.033.031v.018l-.032.031v.018l-.033.031v.018l-.033.031v.018l-.032.031v.017l-.033.032v.017l-.032.031v.018l-.033.031v.018l-.033.031v.018l-.032.031v.018l-.033.031v.018l-.032.031v.018l-.033.031v.018l-.033.031v.018l-.032.031v.017l-.033.032v.017l-.032.031v.018l-.033.031v.018l-.033.031v.018l-.032.031v.018l-.033.031v.018l-.033.031v.018l-.032.031v.018l-.033.031v.017l-.032.032v.017l-.033.032v.017l-.033.031v.018l-.032.031v.018l-.033.031v.018l-.032.031v8.169l3.435,3.345h8.829l3.476-3.423v-.017l.033-.032v-.016l.032-.033v-.016l.033-.032v-.017l.032-.032v-.017l.033-.032v-.017l.033-.032v-.017l.032-.032v-.017l.033-.032v-.017l.032-.032v-.017l.033-.032v-.017l.033-.032v-.016l.032-.033v-.016l.033-.032v-.017l.032-.032v-.017l.033-.032v-.017l.033-.032v-.017l.032-.032v-.017l.033-.032v-.017l.032-.032v-.017l.033-.032v-.017l.033-.032v-.016l.032-.033v-.016l.033-.032v-.017l.032-.032v-.017l.033-.032V330.3l.033-.032v-.017l.032-.032V330.2l.033-.032v-.017l.032-.032V330.1l.033-.032v-.017l.033-.032V330l.032-.033v-.016l.033-.032V329.9l.032-.032v-.017l.033-.032v-.017l.033-.032v-.017l.032-.032v-.017l.033-.032v-.017l.033-.032v-.017l.032-.032v-.017l.033-.032v-.016l.032-.033v-.016l.033-.032v-.017l.033-.032v-.017l.032-.032v-.017l.033-.032v-.017l.032-.032v-.017l.033-.032v-.017l.033-.032v-.017l.032-.032v-.016l.033-.033v-.016l.032-.032v-.017l.033-.032v-.017l.033-.032v-.017l.032-.032v-5.091h.524v-.049h.033v-.048h.032v-.049H945v-.049h.032v-.049h.033v-.049h.033v-.049h.032v-.049h.033v-.049h.032v-.049h.033v-.049h.033v-.048h.032v-.049h.033v-.049h.032v-.049h.033v-.049h.033v-.049h.032v-.049h.033v-.049h.032v-.049h.033v-.049h.033v-.048h.032v-.049h.033v-.049h.033v-.049h.032v-.049h.033v-.049h.032v-.049h.033v-.049h.033v-.049h.032v-.049h.033v-.048h.032v-.049h.033v-.049h.033v-.049h.032v-.049h.033v-.049h.032V321.9h.033v-.049h.033V321.8h.032v-.048h.033V321.7h.032v-.049h.033V321.6h.033v-.049h.032v-.049h.033v-.049h.032v-.049h.033v-.049h.033v-.049h.032v-.048h.033v-.049h.032v-.049h.033v-.049h.033v-.049h.032v-5.1Zm-.078,11.147-.457-.457v-2.9h3.541v3.362Z" fill="#3c3c3c"/>
        <path id="Path_186" data-name="Path 186" d="M928.649,315.63v1.734l1.079,1.079-1.064,1.116v1.808l3.213-1.937.166-2.454-1.992-1.162Z" fill="#0d0d0d"/>
        <path id="Path_187" data-name="Path 187" d="M931.227,316.37" fill="#0d0d0d"/>
        <path id="Path_188" data-name="Path 188" d="M939.671,307.242h-6.633l-1.1-2.291h8.832Z" fill="#cecece"/>
        <path id="Path_189" data-name="Path 189" d="M931.94,304.95l1.1,2.291-1.818,1.956-2.56-1.03Z" fill="#ddd"/>
        <path id="Path_190" data-name="Path 190" d="M933.038,307.242l1.311,2.608-.457.457-2.672-1.108Z" fill="#7e7e7e"/>
        <path id="Path_191" data-name="Path 191" d="M928.66,308.168l2.56,1.03.008,7.172-2.579.994Z" fill="#bbb"/>
        <path id="Path_192" data-name="Path 192" d="M933.892,310.307v5.051l-2.665,1.012-.008-7.172Z" fill="#9f9f9f"/>
        <path id="Path_193" data-name="Path 193" d="M931.227,316.37l2.665-1.012.583.583-1.137,2.5Z" fill="#828282"/>
        <path id="Path_194" data-name="Path 194" d="M928.649,317.364l1.079,1.079h3.61l-2.111-2.073Z" fill="#b6b6b6"/>
        <path id="Path_195" data-name="Path 195" d="M934.475,315.94h12.25l-2.409,2.5H933.338Z" fill="#cecece"/>
        <path id="Path_196" data-name="Path 196" d="M929.728,318.443h3.61l-2.078,2.121-2.6-1Z" fill="#ddd"/>
        <path id="Path_197" data-name="Path 197" d="M928.664,319.559l0,9.315,2.606-1.077v-7.234Z" fill="#bbb"/>
        <path id="Path_198" data-name="Path 198" d="M931.26,320.564l2.661,1,.573-.549-1.155-2.568Z" fill="#7e7e7e"/>
        <path id="Path_199" data-name="Path 199" d="M933.921,321.56v5.051l-2.646,1.186v-7.234Z" fill="#9f9f9f"/>
        <path id="Path_200" data-name="Path 200" d="M934.378,327.068l-1.183,2.635-1.913-1.913,2.639-1.179Z" fill="#828282"/>
        <path id="Path_201" data-name="Path 201" d="M928.669,328.875l3.435,3.345,1.091-2.517-1.913-1.913Z" fill="#b6b6b6"/>
        <path id="Path_202" data-name="Path 202" d="M933.338,318.443h8.576l-2.659,2.574-4.762-.006Z" fill="#8d8d8d"/>
        <path id="Path_203" data-name="Path 203" d="M934.378,327.068h4.388l1.1,2.635h-6.675Z" fill="#cecece"/>
        <path id="Path_204" data-name="Path 204" d="M939.255,321.017v5.52l2.642,1.138.022-9.239Z" fill="#bbb"/>
        <path id="Path_205" data-name="Path 205" d="M938.765,327.068l.49-.531,2.642,1.138L939.87,329.7Z" fill="#ddd"/>
        <path id="Path_206" data-name="Path 206" d="M932.1,332.22l1.091-2.517h6.675l1.063,2.517Z" fill="#8d8d8d"/>
        <path id="Path_207" data-name="Path 207" d="M941.9,327.675l2.511,1.122-3.476,3.423L939.87,329.7Z" fill="#7e7e7e"/>
        <path id="Path_208" data-name="Path 208" d="M941.914,318.443l-.016,9.232,2.511,1.122v-7.78Z" fill="#9f9f9f"/>
        <path id="Path_209" data-name="Path 209" d="M944.409,321.017h2.317l-2.409-2.574h-2.4Z" fill="#8d8d8d"/>
        <path id="Path_210" data-name="Path 210" d="M946.725,315.94l-2.409,2.5,2.409,2.574Z" fill="#9f9f9f"/>
        <path id="Path_211" data-name="Path 211" d="M933.038,307.242h6.633l-1.148,2.608h-4.174Z" fill="#8d8d8d"/>
        <path id="Path_212" data-name="Path 212" d="M938.522,309.85l.531.531,2.635-1.122-2.018-2.018Z" fill="#b6b6b6"/>
        <path id="Path_213" data-name="Path 213" d="M939.055,312.77l0-2.389,2.635-1.122Z" fill="#bbb"/>
        <path id="Path_214" data-name="Path 214" d="M944.089,312.77h-5.034l2.633-3.51Z" fill="#8d8d8d"/>
        <path id="Path_215" data-name="Path 215" d="M940.772,304.95l-1.1,2.291,2.018,2.018,2.39-1.053Z" fill="#828282"/>
        <path id="Path_216" data-name="Path 216" d="M944.089,312.77l-.01-4.564-2.39,1.053Z" fill="#9f9f9f"/>
        <path id="Path_217" data-name="Path 217" d="M1006.732,304.952h-5.154l-.009.049h5.13l5.184,27.22h.042Z" fill="#ddd"/>
        <path id="Path_218" data-name="Path 218" d="M1001.634,332.22h.025l.041-.257h-.025Z" fill="#ddd"/>
        <path id="Path_219" data-name="Path 219" d="M1001.569,305h-.023l-.009.049h-.024l-.009.049h-.023l-.009.049h-.024l-.009.049h-.023l-.01.049h-.023l-.009.049h-.024l-.009.049h-.023l-.01.049h-.023l-.009.049h-.023l-.01.048h-.023l-.009.049h-.024l-.009.049h-.023l-.01.049h-.023l-.009.049h-.023l-.01.049h-.023l-.009.049h-.024l-.009.049h-.023l-.01.049h-.023l-.009.049h-.023l-.01.048h-.023l-.009.049h-.024l-.009.049h-.023l-.01.049h-.023l-.009.049h-.024l-.009.049h-.023l-.009.049h-.024l-.009.049h-.023l-.01.049h-.023l-.009.049h-.024l-.009.048h-.023l-.009.049h-.024l-.009.049h-.023l-.01.049h-.023l-.009.049h-.024l-.009.049h-.023l-.009.049h-.024l-.009.049h-.023l-.01.049h-.023l-.009.049h-.024l-.009.048h-.023l-.01.049h-.023l-.009.049h-.023l-.01.049h-.023l-.009.049h-.024l-.009.049h-.023l-.01.049h-.023l-.009.049h-.023l-.01.049h-.023l-.009.049h-.024l-.009.048h-.023l-.01.049h-.023l-.009.049h-.024l-.009.049h-.023l-.009.049h-.024l-.009.049h-.023l-5.194,27.268h5.274l.007-.049h.025l.008-.048h.025l.008-.049h.024l.008-.049h.025l.008-.049H1000l.007-.049h.025l.008-.049h.025l.008-.049h.024l.008-.049h.025l.008-.049h.025l.008-.049h.024l.008-.048h.025l.008-.049h.024l.008-.049h.025l.008-.049h.025l.008-.049h.024l.008-.049h.025l.008-.049h.024l.008-.049h.025l.008-.049h.025l.007-.048h.025l.008-.049h.025l.008-.049h.025l.007-.049h.025l.008-.049h.025l.008-.049h.024l.008-.049h.025l.008-.049h.025l.007-.049h.025l.008-.049h.025l.008-.048h.024l.008-.049h.025l.008-.049h.025l.007-.049h.025l.008-.049h.025l.008-.049h.024l.008-.049h.025l.008-.049h.025l.007-.049h.025l.008-.049h.025l.008-.048h.024l.008-.049h.025l.008-.049h.025l.007-.049h.025l.008-.049h.025l.008-.049h.024l.008-.049h.025l.008-.049h.025l.008-.049h.024l.008-.048h.025l.008-.049h.025l.007-.049h.025l.008-.049h.025l.008-.049h.024l.008-.049h.025l.008-.049.041-.257h2.672l.519,2.995h5.234l-.01-.049h.042l-.009-.048h.042l-.009-.049h.042l-.01-.049h.042l-.009-.049h.042l-.01-.049h.042l-.009-.049h.042l-.009-.049h.042l-.01-.049h.042l-.009-.049h.042l-.01-.049h.042l-.009-.048h.042l-.009-.049h.042l-.01-.049h.042l-.009-.049h.042l-.01-.049h.042l-.009-.049h.042l-.009-.049h.042l-.01-.049h.042l-.009-.049h.042l-.009-.048h.041l-.009-.049h.042l-.009-.049h.042l-.01-.049h.042l-.009-.049h.042l-.009-.049h.041l-.009-.049h.042l-.009-.049h.042l-.01-.049h.042l-.009-.049h.042l-.009-.048h.042l-.01-.049h.042l-.009-.049h.042l-.01-.049h.042l-.009-.049h.042l-.009-.049h.042l-.01-.049h.042l-.009-.049h.042l-.01-.049h.042l-.009-.049h.042l-.009-.048h.042l-.01-.049h.042l-.009-.049h.042l-.01-.049h.042l-.009-.049h.042l-.009-.049h.042l-.01-.049h.042l-.009-.049h.042l-.009-.049h.041l-.009-.048h.042l-.009-.049h.042l-.01-.049h.042l-.009-.049h.042l-.009-.049h.041l-.009-.049h.042l-.009-.049L1006.7,305Zm1.459,18.147.17.981h-.341Z" fill="#3c3c3c"/>
        <path id="Path_220" data-name="Path 220" d="M1001.579,304.951h5.153l-2.571,2.314Z" fill="#cecece"/>
        <path id="Path_221" data-name="Path 221" d="M1004.161,307.264v9.213l-1.3,7.652-2.85,2.567Z" fill="#9f9f9f"/>
        <path id="Path_222" data-name="Path 222" d="M1008.323,326.679l-8.306.006,2.839-2.556h2.637Z" fill="#cecece"/>
        <path id="Path_223" data-name="Path 223" d="M999.358,329.758l.659-3.073,2.12,2.54-.479,3Z" fill="#9f9f9f"/>
        <path id="Path_224" data-name="Path 224" d="M996.385,332.22l2.973-2.462,2.3,2.462Z" fill="#8d8d8d"/>
        <path id="Path_225" data-name="Path 225" d="M1001.579,304.951l2.582,2.314-4.75,22.521-3.026,2.435Z" fill="#bbb"/>
        <path id="Path_226" data-name="Path 226" d="M1006.732,304.951l-2.571,2.314,4.808,22.494,2.957,2.462Z" fill="#9f9f9f"/>
        <path id="Path_227" data-name="Path 227" d="M1006.692,332.22l-.519-3,2.137-2.545.659,3.079Z" fill="#bbb"/>
        <path id="Path_228" data-name="Path 228" d="M1011.925,332.22l-2.957-2.462-2.277,2.462Z" fill="#8d8d8d"/>
        <path id="Path_229" data-name="Path 229" d="M1002.118,329.23h4.035l2.157-2.55-8.292.005Z" fill="#8d8d8d"/>
        <path id="Path_230" data-name="Path 230" d="M1004.161,307.264v9.213l1.333,7.652,2.816,2.551Z" fill="#bbb"/>
        <path id="Path_231" data-name="Path 231" d="M1022.2,305h5v27.22h.033V304.952H1022.2Z" fill="#ddd"/>
        <path id="Path_232" data-name="Path 232" d="M1022.2,305h-.033v.049h-.033v.049h-.033v.049h-.033v.049h-.033v.049H1022v.049h-.033v.049h-.033v.049h-.033v.049h-.033v.049h-.033v.049h-.033v.049h-.033v.049h-.033v.049h-.033v.049h-.033v.049h-.033v.049h-.033v.049h-.033v.049h-.033v.049h-.033v.049h-.033v.049h-.033v.049h-.033v.049h-.033v.049h-.033v.049h-.033v.049h-.033v.049h-.033v.049h-.033v.049h-.033v.049h-.033v.049h-.033v.049h-.033v.049h-.033v.049h-.033v.049h-.033v.049h-.033v.049h-.033v.049h-.033v.049h-.033v.049h-.033v.049h-.033v.049h-.033v.049h-.033v.049h-.033v.049h-.033v.049h-.033v.049h-.033v.049h-.033v.049h-.033v.049h-.033v.049h-.033v.049h-.033v.049h-.033v.049h-.033v27.268h5.034v-.049h.033v-.049h.033v-.049h.033v-.049h.033v-.049h.033v-.049h.033v-.049h.033v-.049h.033v-.049h.032v-.049h.033v-.049h.033v-.049h.033v-.049h.033v-.049h.033v-.049h.033v-.049h.033v-.049h.033v-.049h.033v-.049h.033v-.049h.033v-.049h.033v-.049h.033v-.049h.033v-.049h.033v-.049h.033v-.049h.033v-.049h.033v-.049h.033v-.049h.033v-.049h.033v-.049h.033v-.049h.033v-.049h.033V333.3h.033v-.049h.033V333.2h.033v-.049h.033V333.1h.032v-.049h.033V333h.033v-.049h.033V332.9h.033v-.049h.033v-.049h.033v-.049h.033v-.049h.033v-.049h.033v-.049h.033v-.049H1027v-.049h.033v-.049h.033v-.049h.033v-.049h.033v-.049h.033v-.049h.032V305Z" fill="#3c3c3c"/>
        <path id="Path_233" data-name="Path 233" d="M1022.2,304.951l2.535,2.314,2.5-2.314Z" fill="#cecece"/>
        <path id="Path_234" data-name="Path 234" d="M1022.2,332.22l2.535-2.462,2.5,2.462Z" fill="#8d8d8d"/>
        <path id="Path_235" data-name="Path 235" d="M1027.229,304.951l-2.5,2.314v22.494l2.5,2.462Z" fill="#9f9f9f"/>
        <path id="Path_236" data-name="Path 236" d="M1022.2,304.951l2.535,2.314v22.494l-2.535,2.462Z" fill="#bbb"/>
        <path id="Path_237" data-name="Path 237" d="M1042.564,315.528l.637.637h6.269l3.356,3.267v9.552l.033-.032v-9.569l-3.356-3.268h-6.269l-.637-.637v-2.887h-.032Z" fill="#ddd"/>
        <path id="Path_238" data-name="Path 238" d="M1040.917,305.6l-3.359,2.62v.017l3.323-3.236h8.589l3.356,3.268v4.541h.033v-4.59l-3.136-2.564Z" fill="#ddd"/>
        <path id="Path_239" data-name="Path 239" d="M1042.559,327.329h1.993l0-.023h1.412v-.049h-1.379l0,.023h-1.992v-2.918h-5.034v.049h5Z" fill="#ddd"/>
        <path id="Path_240" data-name="Path 240" d="M1049.47,305h-8.589l-3.323,3.236-.033.032v.017l-.032.032v.017l-.033.032v.017l-.032.032v.017l-.033.032v.017l-.033.032v.017l-.032.031v.018l-.033.031v.017l-.032.032v.017l-.033.032v.017l-.033.032v.017l-.032.032v.017l-.033.032v.017l-.032.032v.017l-.033.032v.017l-.033.032v.017l-.032.031v.018l-.033.031v.017l-.032.032v.017l-.033.032v.017l-.033.032v.017l-.032.032v.017l-.033.032v.017l-.032.032v.017l-.033.032v.017l-.033.032v.017l-.032.031v.018l-.033.031v.017l-.033.032v.017l-.032.032v.017l-.033.032v.017l-.032.032v.017l-.033.032v.017l-.033.032v.017l-.032.032v.017l-.033.032V310l-.032.031v.018l-.033.031v.017l-.033.032v.017l-.032.032v.017l-.033.032v.017l-.032.032v.017l-.033.032v.017l-.033.032v.017l-.032.032v.017l-.033.031v.018l-.032.031v.018l-.033.031v.017l-.033.032v.017l-.032.032v.017l-.033.032v.017l-.032.032v.017l-.033.032v.017l-.033.032v.017l-.032.032v.017l-.033.031v9.531l3.356,3.267,6.306.036.566.565v2.95h-1.412l0,.023h-1.993v-2.918h-5.034v.049h-.032v.049h-.033v.049h-.032v.049h-.033v.049h-.033v.049h-.032v.049h-.033v.048h-.032v.049h-.033v.049h-.033v.049h-.032V325h-.033v.049h-.032v.049h-.033v.049h-.033v.049H1037v.049h-.033v.048h-.032v.049h-.033v.049h-.033v.049h-.032v.049h-.033v.049h-.032v.049h-.033v.049h-.033v.049h-.032v.049h-.033v.048h-.033v.049h-.032v.049h-.033v.049h-.032v.049h-.033v.049h-.033v.049h-.032v.049h-.033v.049h-.032v.049h-.033v.048h-.033v.049h-.032v.049h-.033v.049h-.032v.049h-.033v.049h-.033v.049h-.032v.049h-.033v.049h-.032v.049h-.033v.048h-.033v.049h-.032v.049h-.033v.049h-.032v.049h-.033V327h-.033v.049h-.032v.049h-.033v4.59l3.356,3.267h8.589l3.356-3.267v-.017l.032-.032v-.017l.033-.032v-.017l.033-.032v-.017l.032-.032v-.017l.033-.032v-.017l.033-.032v-.017l.032-.031v-.018l.033-.031v-.018l.032-.031v-.017l.033-.032v-.017l.033-.032v-.017l.032-.032v-.017l.033-.032v-.017l.032-.032v-.017l.033-.032v-.017l.033-.032v-.017l.032-.031v-.018l.033-.031v-.018l.032-.031v-.017l.033-.032V330.7l.033-.032v-.017l.032-.032V330.6l.033-.032v-.017l.032-.032V330.5l.033-.032v-.017l.033-.032V330.4l.032-.031v-.018l.033-.031V330.3l.032-.032v-.017l.033-.032v-.017l.033-.032v-.017l.032-.032v-.017l.033-.032v-.017l.032-.032v-.017l.033-.032v-.017l.033-.032v-.017l.032-.031v-.018l.033-.031v-.017l.032-.032v-.017l.033-.032v-.017l.033-.032v-.017l.032-.032v-.017l.033-.032v-.017l.033-.032v-.017l.032-.032v-.017l.033-.031v-.018l.032-.031v-.018l.033-.031v-.017l.033-.032v-.017l.032-.032v-.017l.033-.032v-.017l.032-.032v-.017l.033-.032v-.017l.033-.032v-.017l.032-.032v-9.569l-3.356-3.267H1043.2l-.637-.637v-2.937H1046v2.957h5.034V315.5h.032v-.049h.033V315.4h.033v-.049h.032V315.3h.033v-.049h.033V315.2h.032v-.049h.033v-.049h.032v-.048h.033v-.049h.033v-.049h.032v-.049h.033v-.049h.032v-.049h.033v-.049h.033v-.049h.032v-.049h.033v-.049h.032v-.048h.033v-.049h.033v-.049h.032v-.049h.033v-.049h.032v-.049h.033v-.049h.033v-.049h.032v-.049h.033v-.048h.032v-.049h.033v-.049h.033v-.049h.032v-.049h.033v-.049h.032v-.049h.033v-.049h.033v-.049h.032v-.049h.033v-.048h.032v-.049h.033v-.049h.033v-.049h.032v-.049h.033V313.4h.033v-.049h.032V313.3h.033v-.049h.032V313.2h.033v-.048h.033V313.1h.032v-.049h.033v-.049h.032v-.049h.033v-.049h.033v-.049h.032v-4.59Z" fill="#3c3c3c"/>
        <path id="Path_241" data-name="Path 241" d="M1042.043,307.382h8.433l-1.01-2.406h-8.592Z" fill="#cecece"/>
        <path id="Path_242" data-name="Path 242" d="M1050.347,307.382l-2.522,2.47-.008,2.96,2.528-2.459Z" fill="#bbb"/>
        <path id="Path_243" data-name="Path 243" d="M1050.345,310.353l0-2.971,2.576.891-.02,4.542Z" fill="#9f9f9f"/>
        <path id="Path_244" data-name="Path 244" d="M1047.81,312.815l2.535-2.462,2.556,2.462Z" fill="#8d8d8d"/>
        <path id="Path_245" data-name="Path 245" d="M1037.558,308.218l2.524,1.155,1.961-1.991-1.168-2.406Z" fill="#ddd"/>
        <path id="Path_246" data-name="Path 246" d="M1043.2,309.857l-.606.59-2.515-1.073,1.961-1.991Z" fill="#7e7e7e"/>
        <path id="Path_247" data-name="Path 247" d="M1037.558,308.218l2.524,1.155v7.236l-2.524,1.14Z" fill="#bbb"/>
        <path id="Path_248" data-name="Path 248" d="M1042.6,315.479l-2.515,1.13v-7.236l2.515,1.073Z" fill="#9f9f9f"/>
        <path id="Path_249" data-name="Path 249" d="M1040.914,321.017l1.139-2.436-1.971-1.971-2.524,1.14Z" fill="#b6b6b6"/>
        <path id="Path_250" data-name="Path 250" d="M1042.6,315.479l-2.515,1.13,1.971,1.971,1.179-2.47Z" fill="#828282"/>
        <path id="Path_251" data-name="Path 251" d="M1048.353,318.58l1.15-2.465-6.271,0-1.179,2.47Z" fill="#cecece"/>
        <path id="Path_252" data-name="Path 252" d="M1040.914,321.017l6.3.024,1.135-2.46h-6.3Z" fill="#8d8d8d"/>
        <path id="Path_253" data-name="Path 253" d="M1052.858,319.383l-2.583,1.119-1.922-1.922,1.15-2.465Z" fill="#828282"/>
        <path id="Path_254" data-name="Path 254" d="M1047.786,321.618l2.49-1.116-1.922-1.922-1.135,2.46Z" fill="#b6b6b6"/>
        <path id="Path_255" data-name="Path 255" d="M1047.817,312.812" fill="#9f9f9f"/>
        <path id="Path_256" data-name="Path 256" d="M1052.9,312.812" fill="#9f9f9f"/>
        <path id="Path_257" data-name="Path 257" d="M1049.466,304.977l3.456,3.3h0l-2.576-.891Z" fill="#828282"/>
        <path id="Path_258" data-name="Path 258" d="M1047.825,309.852l2.522-2.47h-8.3l1.16,2.474Z" fill="#8d8d8d"/>
        <g id="Group_7" data-name="Group 7">
          <path id="Path_259" data-name="Path 259" d="M1048.344,329.728h-8.433l1.01,2.406h8.592Z" fill="#8d8d8d"/>
          <path id="Path_260" data-name="Path 260" d="M1040.041,329.728l2.522-2.47.008-2.96-2.528,2.459Z" fill="#9f9f9f"/>
          <path id="Path_261" data-name="Path 261" d="M1040.043,326.757l0,2.971-2.576-.891.02-4.542Z" fill="#bbb"/>
          <path id="Path_262" data-name="Path 262" d="M1042.578,324.3l-2.535,2.462-2.557-2.462Z" fill="#cecece"/>
          <path id="Path_263" data-name="Path 263" d="M1040.921,332.134l-3.456-3.3h0l2.576.891Z" fill="#b6b6b6"/>
          <path id="Path_264" data-name="Path 264" d="M1042.562,327.258l-2.522,2.47h8.3l-1.16-2.474Z" fill="#cecece"/>
        </g>
        <path id="Path_265" data-name="Path 265" d="M1047.786,321.618l2.49-1.116v7.279l-2.49-1.131Z" fill="#bbb"/>
        <path id="Path_266" data-name="Path 266" d="M1048.344,329.728l1.931-1.947-2.49-1.131-.606.606Z" fill="#ddd"/>
        <path id="Path_267" data-name="Path 267" d="M1049.544,332.192l3.314-3.24-2.583-1.172-1.931,1.947Z" fill="#7e7e7e"/>
        <path id="Path_268" data-name="Path 268" d="M1050.275,320.5v7.279l2.583,1.172v-9.57Z" fill="#9f9f9f"/>
        <path id="Path_269" data-name="Path 269" d="M1068.286,327.329h10.267v4.891h.033v-4.94h-10.267v-3.447h-.033Z" fill="#ddd"/>
        <path id="Path_270" data-name="Path 270" d="M1063.285,305h15.268v4.852h.033v-4.9h-15.3Z" fill="#ddd"/>
        <path id="Path_271" data-name="Path 271" d="M1068.286,316.126h5.233v4.969h.033v-5.018h-5.233v-3.486h-.033Z" fill="#ddd"/>
        <path id="Path_272" data-name="Path 272" d="M1063.285,305h-.033v.049h-.033v.049h-.033v.049h-.033v.049h-.033v.049h-.033v.049h-.033v.049h-.033v.049h-.033v.049h-.033v.049h-.033v.049h-.033v.049h-.033v.049h-.033v.049h-.033v.049h-.032v.049h-.033v.049h-.033v.049h-.033v.049h-.033v.049h-.033v.049h-.033v.049h-.033v.049h-.033v.049h-.033v.049h-.033v.049h-.033v.049h-.033v.049h-.033v.049h-.033v.049h-.033v.049h-.032v.049h-.033v.049h-.033v.049h-.033v.049h-.033v.049h-.033v.049h-.033v.049h-.033v.049h-.033v.049h-.033v.049h-.033v.049h-.033v.049h-.033v.049h-.033v.049h-.033v.049h-.033v.049h-.033v.049h-.033v.049h-.033v.049h-.033v.049h-.033v.049h-.033v.049h-.033v.049h-.033v.049h-.033v27.268h15.3v-.049h.033v-.049h.033v-.049h.033v-.049h.033v-.049h.033v-.049h.033v-.049h.033v-.049h.033v-.049h.033v-.049h.033v-.049h.033v-.049h.033v-.049h.033v-.049h.033v-.049h.033v-.049h.033v-.049h.033v-.049h.033v-.049h.032v-.049h.033v-.049h.033v-.049h.033v-.049h.033v-.049h.033v-.049h.033v-.049h.033v-.049h.033v-.049h.033v-.049h.033v-.049h.033v-.049h.033v-.049h.033v-.049h.033V333.3h.033v-.049h.032V333.2h.033v-.049h.033V333.1H1078v-.049h.033V333h.033v-.049h.033V332.9h.033v-.049h.033v-.049h.033v-.049h.033v-.049h.033v-.049h.033v-.049h.033v-.049h.033v-.049h.033v-.049h.033v-.049h.032v-.049h.033v-.049h.033v-.049h.033v-4.94h-10.267v-3.5h3.44v-.049h.033v-.049h.033v-.049h.033v-.049h.033v-.049h.033v-.049h.033v-.049h.033v-.049h.033v-.049h.033v-.049h.033V323.3h.033v-.049h.033V323.2h.033v-.049h.033V323.1h.033v-.049h.033V323h.033v-.049h.033V322.9h.033v-.049h.033v-.049h.033v-.049h.033v-.049h.033v-.049h.033v-.049h.033v-.049h.033v-.049h.032v-.049h.033v-.049h.033v-.049h.033v-.049h.033v-.049h.033v-.049h.033v-.049h.033v-.049h.033v-.049h.033v-.049h.033v-.049h.033v-.049H1073v-.049h.033v-.049h.033v-.049h.033v-.049h.033v-.049h.032v-.049h.033v-.049h.033v-.049h.033v-.049h.033v-.049h.033v-.049h.033v-.049h.033v-.049h.033v-.049h.033v-.049h.033v-.049h.033v-5.018h-5.233v-3.535h8.474v-.049h.033v-.049h.033v-.049h.033V312.4h.033v-.049h.033V312.3h.033v-.049h.033V312.2h.033v-.049h.033V312.1h.033v-.049h.033V312h.033v-.049h.033v-.049h.033v-.049h.033v-.049h.033v-.049h.033v-.049h.033v-.049h.032v-.049h.033v-.049h.033v-.049h.033v-.049h.033v-.049h.033v-.049h.033v-.049h.033v-.049h.033v-.049h.033v-.049h.033v-.049h.033v-.049h.033v-.049h.033v-.049h.033v-.049h.033v-.049h.032v-.049h.033v-.049h.033v-.049H1078v-.049h.033v-.049h.033v-.049h.033v-.049h.033v-.049h.033v-.049h.033v-.049h.033v-.049h.033v-.049h.033v-.049h.033V310.2h.033v-.049h.033V310.1h.033v-.049h.032V310h.033v-.049h.033V309.9h.033V305Z" fill="#3c3c3c"/>
        <path id="Path_273" data-name="Path 273" d="M1078.585,309.852l-1.84-2.392,1.84-2.509Z" fill="#9f9f9f"/>
        <path id="Path_274" data-name="Path 274" d="M1078.585,332.22l-1.84-2.462,1.84-2.485Z" fill="#9f9f9f"/>
        <path id="Path_275" data-name="Path 275" d="M1073.553,321.1l-1.84-2.45,1.84-2.57Z" fill="#9f9f9f"/>
        <path id="Path_276" data-name="Path 276" d="M1063.285,304.951l2.509,2.509v22.3l-2.509,2.462Z" fill="#bbb"/>
        <path id="Path_277" data-name="Path 277" d="M1065.794,307.46h10.951l1.84-2.509h-15.3Z" fill="#cecece"/>
        <path id="Path_278" data-name="Path 278" d="M1065.794,307.46l2.524,2.392h10.267l-1.84-2.392Z" fill="#8d8d8d"/>
        <path id="Path_279" data-name="Path 279" d="M1065.794,329.758h10.951l1.84,2.462h-15.3Z" fill="#8d8d8d"/>
        <path id="Path_280" data-name="Path 280" d="M1068.318,327.28l-2.524,2.479h10.951l1.84-2.485Z" fill="#cecece"/>
        <path id="Path_281" data-name="Path 281" d="M1071.713,318.65h-5.943l2.549,2.445h5.235Z" fill="#8d8d8d"/>
        <path id="Path_282" data-name="Path 282" d="M1073.553,316.079h-5.235l-2.549,2.57h5.943Z" fill="#cecece"/>
        <path id="Path_283" data-name="Path 283" d="M1065.794,307.46l-.025,11.19,2.549-2.57v-6.227Z" fill="#9f9f9f"/>
        <path id="Path_284" data-name="Path 284" d="M1068.318,327.28l-2.524,2.479-.025-11.109,2.549,2.445Z" fill="#9f9f9f"/>
        <path id="Path_285" data-name="Path 285" d="M1097.229,327.28V313.2l-.607-.607h-2.793V327.28Z" fill="none"/>
        <path id="Path_286" data-name="Path 286" d="M1093.829,327.28V312.591h-.033v14.738h3.433v-.049Z" fill="#ddd"/>
        <path id="Path_287" data-name="Path 287" d="M1104.1,308.219l-3.356-3.268H1088.8V305h11.912l3.356,3.268v20.716l.033-.032Z" fill="#ddd"/>
        <path id="Path_288" data-name="Path 288" d="M1100.708,305h-11.945v.049h-.033v.049h-.033v.049h-.032v.049h-.033v.049h-.032v.049h-.033v.049h-.033v.049h-.032v.049h-.033v.048h-.032v.049h-.033v.049h-.033v.049h-.032v.049h-.033v.049h-.032v.049h-.033v.049h-.033v.049h-.032v.049h-.033v.048h-.032v.049h-.033v.049h-.033v.049h-.032v.049h-.033v.049h-.033v.049h-.032v.049h-.033v.049h-.032v.049h-.033v.048h-.033v.049h-.032v.049h-.033v.049h-.032v.049h-.033v.049h-.033v.049h-.032v.049h-.033v.049h-.032v.049h-.033v.048h-.033v.049h-.032v.049h-.033v.049h-.032v.049h-.033v.049h-.033v.049h-.032v.049h-.033v.049h-.032v.049h-.033v.048h-.033v.049h-.032v.049h-.033v.049h-.033v.049H1087v.049h-.033v27.268h11.945l3.356-3.267v-.017l.033-.032v-.017l.032-.032v-.017l.033-.032v-.017l.032-.032v-.017l.033-.032v-.017l.033-.032v-.017l.032-.031v-.018l.033-.031v-.018l.032-.031v-.017l.033-.032v-.017l.033-.032v-.017l.032-.032v-.017l.033-.032v-.017l.032-.032v-.017l.033-.032v-.017l.033-.032v-.017l.032-.031v-.018l.033-.031v-.018l.033-.031v-.017l.032-.032V330.7l.033-.032v-.017l.032-.032V330.6l.033-.032v-.017l.033-.032V330.5l.032-.032v-.017l.033-.032V330.4l.032-.031v-.018l.033-.031V330.3l.033-.032v-.017l.032-.032v-.017l.033-.032v-.017l.032-.032v-.017l.033-.032v-.017l.033-.032v-.017l.032-.032v-.017l.033-.032v-.017l.032-.031v-.018l.033-.031v-.017l.033-.032v-.017l.032-.032v-.017l.033-.032v-.017l.033-.032v-.017l.032-.032v-.017l.033-.032v-.017l.032-.032v-.017l.033-.031v-.018l.033-.031v-.018l.032-.031v-.017l.033-.032v-.017l.032-.032v-.017l.033-.032v-.017l.033-.032v-.017l.032-.032v-.017l.033-.032v-.017l.032-.032V308.268Zm-6.912,22.329V312.591h2.826l.607.607v14.131Z" fill="#3c3c3c"/>
        <path id="Path_289" data-name="Path 289" d="M1088.8,332.22l2.5-2.462V307.38l-2.514-2.479Z" fill="#bbb"/>
        <path id="Path_290" data-name="Path 290" d="M1099.055,326.591l5.04,2.362-3.356,3.268-2.378-4.955Z" fill="#cecece"/>
        <path id="Path_291" data-name="Path 291" d="M1091.3,329.758h8.26l-1.2-2.493h-4.547Z" fill="#cecece"/>
        <path id="Path_292" data-name="Path 292" d="M1099.558,329.758l2.009-1.991,2.528,1.185-3.356,3.268Z" fill="#7e7e7e"/>
        <path id="Path_293" data-name="Path 293" d="M1088.8,332.22h11.944l-1.182-2.462h-8.26Z" fill="#8d8d8d"/>
        <path id="Path_294" data-name="Path 294" d="M1099.044,310.53l5.04-2.362-3.356-3.268-2.378,4.955Z" fill="#b6b6b6"/>
        <path id="Path_295" data-name="Path 295" d="M1091.287,307.362h8.259l-1.2,2.493H1093.8Z" fill="#8d8d8d"/>
        <path id="Path_296" data-name="Path 296" d="M1099.547,307.362l2.009,1.991,2.528-1.185-3.356-3.268Z" fill="#828282"/>
        <path id="Path_297" data-name="Path 297" d="M1088.784,304.9h11.944l-1.182,2.462h-8.259Z" fill="#cecece"/>
        <path id="Path_298" data-name="Path 298" d="M1093.814,327.266V309.852l-2.516-2.473v22.379Z" fill="#9f9f9f"/>
        <path id="Path_299" data-name="Path 299" d="M1101.567,327.768l-.011-18.415-2.512,1.177.011,16.061Z" fill="#bbb"/>
        <path id="Path_300" data-name="Path 300" d="M1104.084,308.169l-2.528,1.185.011,18.415,2.528,1.185Z" fill="#9f9f9f"/>
      </g>
      <g id="Group_9" data-name="Group 9">
        <path id="Path_301" data-name="Path 301" d="M899.551,362.858v-7.487h1.713v5.893h3.318v1.594Z" fill="#bbb"/>
        <path id="Path_302" data-name="Path 302" d="M912.825,355.212a3.9,3.9,0,1,1-4,3.908A3.842,3.842,0,0,1,912.825,355.212Zm0,6.157a2.265,2.265,0,1,0-2.223-2.259A2.137,2.137,0,0,0,912.825,361.369Z" fill="#bbb"/>
        <path id="Path_303" data-name="Path 303" d="M921.361,359.13a3.865,3.865,0,0,1,3.968-3.918,3.4,3.4,0,0,1,3.578,2.524l-1.616.5a1.847,1.847,0,0,0-1.962-1.393,2.255,2.255,0,0,0,.022,4.509,1.954,1.954,0,0,0,2.016-1.4L929,360.4a3.53,3.53,0,0,1-3.653,2.62A3.819,3.819,0,0,1,921.361,359.13Z" fill="#bbb"/>
        <path id="Path_304" data-name="Path 304" d="M938.169,361.337H935.2l-.552,1.521h-1.8l2.9-7.487h1.985l2.862,7.487h-1.865Zm-2.407-1.52h1.865l-.922-2.587Z" fill="#bbb"/>
        <path id="Path_305" data-name="Path 305" d="M945.295,362.858v-7.487h1.713v5.893h3.318v1.594Z" fill="#bbb"/>
        <path id="Path_306" data-name="Path 306" d="M961.628,362.858v-7.487h4.955v1.584h-3.242v1.584h2.852v1.521h-2.841v2.8Z" fill="#bbb"/>
        <path id="Path_307" data-name="Path 307" d="M975.508,361.337h-2.971l-.552,1.521h-1.8l2.895-7.487h1.984l2.863,7.487h-1.865Zm-2.407-1.52h1.865l-.922-2.587Z" fill="#bbb"/>
        <path id="Path_308" data-name="Path 308" d="M984.954,360.071h-.607v2.787h-1.713v-7.487h3.047a2.318,2.318,0,0,1,2.494,2.344,2.154,2.154,0,0,1-1.518,2.113l1.561,3.03h-1.887Zm.4-1.437c.7,0,1.083-.38,1.083-.908,0-.56-.379-.908-1.083-.908h-1.009v1.816Z" fill="#bbb"/>
        <path id="Path_309" data-name="Path 309" d="M1000.234,362.858v-4.963l-2.006,4.963H996.84l-2.006-4.9v4.9h-1.626v-7.487h2.233l2.114,5.058,2.006-5.058h2.353v7.487Z" fill="#bbb"/>
        <path id="Path_310" data-name="Path 310" d="M1011.1,357.631a1.156,1.156,0,0,0-1.28-.94c-.639,0-1.051.391-1.051.8,0,.358.227.622.759.717l1.03.191a2.36,2.36,0,0,1,2.223,2.249,2.559,2.559,0,0,1-2.841,2.366,2.853,2.853,0,0,1-3.145-2.4l1.573-.37a1.417,1.417,0,0,0,1.594,1.29c.671,0,1.083-.318,1.083-.782,0-.381-.314-.655-.823-.75l-1.052-.19a2.275,2.275,0,0,1-2.093-2.2,2.571,2.571,0,0,1,2.755-2.408,2.538,2.538,0,0,1,2.807,2Z" fill="#bbb"/>
      </g>
    </g>
  </g>
</svg>
