<svg xmlns="http://www.w3.org/2000/svg" xmlns:xlink="http://www.w3.org/1999/xlink" width="789" height="196" viewBox="0 0 789 196">
  <defs>
    <clipPath id="clip-path">
      <rect id="Rectangle_217" data-name="Rectangle 217" width="789" height="196" transform="translate(482 5789)" fill="none"/>
    </clipPath>
  </defs>
  <g id="Group_351" data-name="Group 351" transform="translate(-482 -5789)">
    <g id="Group_350" data-name="Group 350" clip-path="url(#clip-path)">
      <g id="Group_349" data-name="Group 349" opacity="0.27" style="mix-blend-mode: multiply;isolation: isolate">
        <path id="Path_7762" data-name="Path 7762" d="M642.837,6198.3c8.592,11.53,17.869,22.574,26.108,34.332.077-.012.185-.033.249-.043-.158-1.234-.408-2.439-.581-3.669-.968-.941-1.867-1.863-2.636-2.76a9.557,9.557,0,0,0-.976-.977,5.43,5.43,0,0,1-1.235-2.524c-2.128-15.4-10.168-28.578-15.11-42.886-.566-1.64-1.124-3.277-1.658-4.914l-3.444,8.2c-.914-.537-1.524-.676-1.637-.993-2.322-6.5-4.882-12.935-7.159-19.444-.1.264-.2.532-.3.8,0,.024,0,.049,0,.073C635.62,6175.329,635.157,6188,642.837,6198.3Z" fill="none"/>
        <path id="Path_7763" data-name="Path 7763" d="M657.732,6116.056a47.489,47.489,0,0,1-4.058,13.851l.646,5.615a109.718,109.718,0,0,0,4.564-12.59A65.817,65.817,0,0,0,657.732,6116.056Z" fill="none"/>
        <path id="Path_7764" data-name="Path 7764" d="M983.9,6209.208a48.182,48.182,0,0,0,1.206,8.876,222.526,222.526,0,0,0,.031-29.735C982.872,6194.444,983.764,6202.249,983.9,6209.208Z" fill="none"/>
        <path id="Path_7765" data-name="Path 7765" d="M604.637,6195.992c1.687,2.264,3.469,4.461,5.195,6.7a355.55,355.55,0,0,0-15.146-49.215c.03.436-.011.88.031,1.314C596.094,6168.8,595.546,6183.795,604.637,6195.992Z" fill="none"/>
        <path id="Path_7766" data-name="Path 7766" d="M562.33,6245.447c.538-.1,1.032-.185,1.391-.238a437.446,437.446,0,0,0-26.375-103.839c-4.927,12.81-9.84,25.944-4.553,40.615,6.474,17.963,11.359,36.507,18.09,54.364,2.339,6.207,6.468,10.409,11.889,12.5-.1-.934-.357-1.851-.389-2.789C562.376,6245.848,562.346,6245.652,562.33,6245.447Z" fill="none"/>
        <path id="Path_7767" data-name="Path 7767" d="M957.091,6226.652c.049.138.085.321.136.452.341,1.341.943,2.575,1.39,3.873a8.331,8.331,0,0,0,.8-2.523c1.7-15.351,2.041-30.628-.054-45.764q-1.233,3.276-2.728,6.515C958.43,6201.664,959.532,6214.127,957.091,6226.652Z" fill="none"/>
        <path id="Path_7768" data-name="Path 7768" d="M485.624,6091.382c12.485-20.76,7.182-69.122-10.459-90.944C478.765,6031.749,482.149,6061.164,485.624,6091.382Z" fill="none"/>
        <path id="Path_7769" data-name="Path 7769" d="M615.322,6239.094c.439-.078.842-.151,1.135-.2-1.568-12.243-3.862-24.255-6.625-36.21-1.726-2.236-3.508-4.433-5.195-6.7-9.091-12.2-8.543-27.193-9.92-41.2-.042-.434,0-.878-.031-1.314-.379-.974-.668-1.938-1.057-2.913l-10.259,24.422c-1.18-.693-1.966-.874-2.112-1.283-.254-.709-.529-1.413-.788-2.121a32.735,32.735,0,0,0,1.675,14.889c5.469,15.176,9.6,30.841,15.282,45.926,2.14,5.682,5.993,9.479,11.16,11.051a12.131,12.131,0,0,0,.844,1.114,76.38,76.38,0,0,0,6.6,6.57c.051.053.082.112.134.165.711.741,1.448,1.41,2.17,2.119a47.214,47.214,0,0,1-2.969-13.819C615.36,6239.421,615.335,6239.261,615.322,6239.094Z" fill="#ececec"/>
        <path id="Path_7770" data-name="Path 7770" d="M622.938,6258.27a12.8,12.8,0,0,0,2.188,2.08c-.6.483-1.328,1.089-2.041,1.682a197.617,197.617,0,0,1,21.075,1.95c2.056-.6,4.107-1.217,6.177-1.6.419-.078.825-.094,1.236-.135a10.537,10.537,0,0,0,1.222-2.055C642.764,6261.832,631,6264.173,622.938,6258.27Z" fill="#f5f5f5"/>
        <path id="Path_7771" data-name="Path 7771" d="M1394.428,5863.443c-9.426-9.533-19.055-18.964-27.561-29.289-14.524-17.631-27.981-36.137-42.461-53.809a44.6,44.6,0,0,0-15.236-11.845,169.637,169.637,0,0,0-28.985-10.132c-6.242-1.6-13.586-2.913-19.465-1.143-14.077,4.236-27.164,5.577-41.557.271-10.553-3.89-20.192,4.167-19.291,14.681-7.83-.508-15.564-.591-23.177-1.591-15.614-2.051-31.1-5.816-46.752-6.646-23.645-1.252-47.792-.483-68.39,12.867-13.049,8.458-27.289,12.1-41.664,15.284-39.8,8.811-79.633,17.782-119.848,24.235a438.9,438.9,0,0,1-79.032,5.314c-30.693-.7-61.333-4.81-91.925-8.077-12.721-1.359-25.251-4.427-37.886-6.6-13.148-2.268-26.29-5.94-39.488-6.193-15.7-.3-31.465,2.373-47.2,3.784a109.9,109.9,0,0,0-11.139,1.209c-25.3,4.94-50.633,9.772-75.849,15.135a264.025,264.025,0,0,0-33.112,9.076c-14.009,4.956-25.4,13.415-29.785,28.612-8.89,30.777-14.7,62.084-12.992,94.231.738,13.918,1.787,28.282,5.879,41.458,7.564,24.352,5.877,47.05-3.808,70.408-4.008,9.668-6.848,21.929-4.53,31.66,4.926,20.686,13.564,40.492,20.764,60.63.212.593,1.352.854,3.064,1.86,4.731-11.262,9.347-22.254,14.877-35.417a517.437,517.437,0,0,1,33.106,128.107c-.426.062-1.01.169-1.647.282.019.243.055.475.063.725.246,7.238,2.2,14.356,4.682,21.28a47.748,47.748,0,0,0,4.719,4.758c12.844,11.075,33.365,5.411,49.336,3.12,1.446-.931,2.852-1.9,4.218-2.807.551-.365,4.006-3.339,7.357-6.157a21.994,21.994,0,0,1-9.388-4.663,40.376,40.376,0,0,1-3.987-4.02,64.706,64.706,0,0,1-3.566-15.187c-5.421-2.091-9.55-6.293-11.889-12.5-6.731-17.857-11.616-36.4-18.09-54.364-5.287-14.671-.374-27.8,4.553-40.615-.568-1.465-1.006-2.916-1.592-4.384-4.672,11.12-8.572,20.406-12.568,29.919-1.446-.849-2.409-1.07-2.588-1.57-6.082-17.012-13.38-33.745-17.541-51.22-1.959-8.221.44-18.579,3.826-26.746,8.182-19.733,9.608-38.908,3.217-59.48-3.456-11.131-4.343-23.265-4.967-35.023-1.44-27.157,3.466-53.6,10.977-79.6,3.707-12.838,13.327-19.984,25.161-24.172a223.119,223.119,0,0,1,27.973-7.666c21.3-4.53,42.7-8.613,64.076-12.785a92.064,92.064,0,0,1,9.41-1.022c13.292-1.192,26.608-3.451,39.874-3.2,11.149.214,22.251,3.316,33.358,5.231,10.675,1.841,21.26,4.432,32.006,5.58,25.844,2.761,51.729,6.237,77.657,6.824a370.711,370.711,0,0,0,66.765-4.489c33.973-5.451,67.627-13.03,101.246-20.474,12.145-2.688,24.174-5.766,35.2-12.911,17.4-11.279,37.8-11.929,57.775-10.87,13.225.7,26.306,3.882,39.5,5.614,6.432.845,12.965.915,19.58,1.345a11.907,11.907,0,0,1,16.3-12.4c12.159,4.483,23.215,3.349,35.107-.229,4.967-1.5,11.171-.39,16.444.966a143.363,143.363,0,0,1,24.486,8.558,37.7,37.7,0,0,1,12.871,10.008c12.232,14.929,23.6,30.563,35.871,45.457,7.185,8.722,15.32,16.689,23.283,24.743a29.426,29.426,0,0,1,5.592,7.658c5.112-4.253,10.246-8.476,15.577-12.435,5.427-4.03,13.727-9.111,18.932-7.595,14.3,4.166,25.542-2.5,37.173-7.107C1405.876,5890.54,1408.063,5877.234,1394.428,5863.443Zm-908.8,227.939c-3.475-30.218-6.859-59.633-10.459-90.944C492.806,6022.26,498.109,6070.622,485.624,6091.382Z" fill="#ececec"/>
        <path id="Path_7772" data-name="Path 7772" d="M1266.719,5953.223a33.038,33.038,0,0,0-6.549,3.24Q1263.374,5954.747,1266.719,5953.223Z" fill="#f5f5f5"/>
        <path id="Path_7773" data-name="Path 7773" d="M1038.429,6133.144q-4.172,2.439-8.518,4.653a6.24,6.24,0,0,0-.59,1.69c-1.857,14.817-6.592,28.3-13.307,41.789-3.824,7.677-2.324,18.289-2.148,27.557.122,6.462,2.1,12.884,3.191,19.334a43.919,43.919,0,0,0,2.027,8.368c2.712,10.681,7.844,20.373,12.613,30.234a201.9,201.9,0,0,0-20.544,3.211,11.578,11.578,0,0,1,1.435,1.471c.48.668.979,1.315,1.469,1.971q2.95,2.325,6.016,4.371a73.658,73.658,0,0,1,13.75,4.571c2.379-.557,4.483-1.079,5.968-1.37a245.678,245.678,0,0,1,25.152-3.954c-5.646-11.674-11.721-23.145-14.931-35.79a51.941,51.941,0,0,1-2.4-9.9c-1.29-7.635-3.633-15.236-3.778-22.886-.208-10.972-1.983-23.532,2.543-32.62,7.949-15.964,13.554-31.929,15.752-49.467a6.91,6.91,0,0,1,.387-1.109C1054.886,6129.1,1047.245,6132.818,1038.429,6133.144Z" fill="#ececec"/>
        <path id="Path_7774" data-name="Path 7774" d="M533.461,6033.1c3.041,26.451,5.9,51.3,8.836,76.827C552.844,6092.39,548.364,6051.534,533.461,6033.1Z" fill="#ececec"/>
        <path id="Path_7775" data-name="Path 7775" d="M1195.118,5999.949c-2.264-.66-5.355.549-8.285,2.185-10.793,7.405-20.426,16.378-29.576,25.977-13.088,13.734-23.709,29.049-33,45.715-11.282,20.231-28.884,34-48.8,44.829,11.252-1.133,20.967-6.709,30.972-11.619,27.747-13.62,52.806-31,68.079-58.389a268.8,268.8,0,0,1,34.564-49.027A23.748,23.748,0,0,1,1195.118,5999.949Z" fill="#ececec"/>
        <path id="Path_7776" data-name="Path 7776" d="M598.97,6128.474c8.609-14.315,4.952-47.665-7.213-62.712C594.24,6087.353,596.573,6107.637,598.97,6128.474Z" fill="#c5c5c5"/>
        <path id="Path_7777" data-name="Path 7777" d="M670.849,6244.5a37.712,37.712,0,0,1-2.5-11.37c-.005-.134-.023-.258-.034-.388.244-.043.437-.075.631-.108-8.239-11.758-17.516-22.8-26.108-34.332-7.68-10.3-7.217-22.972-8.38-34.808,0-.024,0-.049,0-.073-3.334,8.683-6.54,17.6-2.959,27.532,4.464,12.387,7.833,25.174,12.474,37.487,1.748,4.638,4.893,7.737,9.11,9.02a10.146,10.146,0,0,0,.688.91,62.29,62.29,0,0,0,5.389,5.363c.041.044.066.091.108.135,1.342,1.4,2.708,2.718,4.091,3.993a19.465,19.465,0,0,0,3.225,3.4c-1.069.859-2.422,2-3.718,3.094,4.466.308,8.925.747,13.363,1.385,1.736-.509,3.469-1.028,5.218-1.356.354-.066.7-.079,1.044-.113a8.8,8.8,0,0,0,1.13-1.9,4.85,4.85,0,0,0,.354-1.848c-3.94-.1-7.655-.938-10.6-3.478A25.55,25.55,0,0,1,670.849,6244.5Z" fill="#c5c5c5"/>
        <path id="Path_7778" data-name="Path 7778" d="M1315.634,5925.027a29.426,29.426,0,0,0-5.592-7.658c-7.963-8.054-16.1-16.021-23.283-24.743-12.27-14.894-23.639-30.528-35.871-45.457a37.7,37.7,0,0,0-12.871-10.008,143.363,143.363,0,0,0-24.486-8.558c-5.273-1.356-11.477-2.462-16.444-.966-11.892,3.578-22.948,4.712-35.107.229a11.907,11.907,0,0,0-16.3,12.4c-6.615-.43-13.148-.5-19.58-1.345-13.19-1.732-26.271-4.914-39.5-5.614-19.975-1.059-40.374-.409-57.775,10.87-11.023,7.145-23.052,10.223-35.2,12.911-33.619,7.444-67.273,15.023-101.246,20.474a370.711,370.711,0,0,1-66.765,4.489c-25.928-.587-51.813-4.063-77.657-6.824-10.746-1.148-21.331-3.739-32.006-5.58-11.107-1.915-22.209-5.017-33.358-5.231-13.266-.254-26.582,2-39.874,3.2a92.064,92.064,0,0,0-9.41,1.022c-21.377,4.172-42.774,8.255-64.076,12.785a223.119,223.119,0,0,0-27.973,7.666c-11.834,4.188-21.454,11.334-25.161,24.172-7.511,26-12.417,52.448-10.977,79.6.624,11.758,1.511,23.892,4.967,35.023,6.391,20.572,4.965,39.747-3.217,59.48-3.386,8.167-5.785,18.525-3.826,26.746,4.161,17.475,11.459,34.208,17.541,51.22.179.5,1.142.721,2.588,1.57,4-9.513,7.9-18.8,12.568-29.919.586,1.468,1.024,2.919,1.592,4.384a437.446,437.446,0,0,1,26.375,103.839c-.359.053-.853.142-1.391.238.016.205.046.4.053.613.032.938.293,1.855.389,2.789a64.706,64.706,0,0,0,3.566,15.187,40.376,40.376,0,0,0,3.987,4.02,21.994,21.994,0,0,0,9.388,4.663c10.05,2.425,22.235-.585,32.29-2.027,1.222-.787,2.41-1.608,3.564-2.372.541-.358,4.338-3.641,7.518-6.288.713-.593,1.439-1.2,2.041-1.682a12.8,12.8,0,0,1-2.188-2.08c-.354-.259-.75-.428-1.09-.721a32.918,32.918,0,0,1-3.254-3.281c-.1-.281-.161-.573-.259-.855-.722-.709-1.459-1.378-2.17-2.119-.052-.053-.083-.112-.134-.165a76.38,76.38,0,0,1-6.6-6.57,12.131,12.131,0,0,1-.844-1.114c-5.167-1.572-9.02-5.369-11.16-11.051-5.686-15.085-9.813-30.75-15.282-45.926a32.735,32.735,0,0,1-1.675-14.889c-4.8-13.157-10.308-26.151-13.531-39.687-1.6-6.71.36-15.166,3.123-21.832,6.679-16.107,7.843-31.759,2.626-48.551-2.821-9.086-3.545-18.991-4.054-28.589-1.176-22.168,2.829-43.755,8.96-64.979,3.026-10.479,10.878-16.312,20.539-19.73a182.034,182.034,0,0,1,22.832-6.258c17.389-3.7,34.855-7.031,52.3-10.437a75.475,75.475,0,0,1,7.681-.834c10.85-.973,21.719-2.816,32.547-2.609,9.1.174,18.164,2.706,27.23,4.27,8.713,1.5,17.354,3.618,26.125,4.554,21.1,2.254,42.224,5.092,63.389,5.571a302.546,302.546,0,0,0,54.5-3.664c27.731-4.45,55.2-10.636,82.644-16.713,9.912-2.194,19.732-4.706,28.73-10.539,14.2-9.206,30.854-9.736,47.16-8.872,10.795.571,21.472,3.168,32.239,4.582,5.25.689,10.583.747,15.982,1.1a9.721,9.721,0,0,1,13.3-10.124c9.924,3.659,18.948,2.734,28.656-.187,4.054-1.221,9.118-.319,13.422.788a116.994,116.994,0,0,1,19.988,6.987,30.74,30.74,0,0,1,10.507,8.168c9.984,12.186,19.264,24.948,29.279,37.1,5.865,7.12,12.505,13.623,19.006,20.2a21.32,21.32,0,0,1,5.331,8.17c8.544-6.862,16.855-14.044,25.65-20.575,1.061-.788,2.274-1.622,3.533-2.426a33.038,33.038,0,0,1,6.549-3.24c2.153-.771,4.238-1.238,5.912-.75,12.081,3.52,21.578-2.112,31.4-6C1316.222,5941.642,1319.944,5933.764,1315.634,5925.027ZM542.3,6109.927c-2.937-25.527-5.795-50.376-8.836-76.827C548.364,6051.534,552.844,6092.39,542.3,6109.927Z" fill="#c5c5c5"/>
        <path id="Path_7779" data-name="Path 7779" d="M1019.084,6236.535a43.919,43.919,0,0,1-2.027-8.368c-1.09-6.45-3.069-12.872-3.191-19.334-.176-9.268-1.676-19.88,2.148-27.557,6.715-13.486,11.45-26.972,13.307-41.789a6.24,6.24,0,0,1,.59-1.69c-.954.487-1.888,1-2.852,1.472-8.194,4.021-16.1,8.7-25.85,8.091-1.1.727-2.107,1.555-3.237,2.244a7.317,7.317,0,0,0-1.46,3c-1.516,12.093-5.38,23.1-10.862,34.111a16.261,16.261,0,0,0-.517,1.635,222.526,222.526,0,0,1-.031,29.735c.48,2.3,1.01,4.6,1.4,6.9a35.947,35.947,0,0,0,1.654,6.831c2.214,8.719,6.4,16.629,10.3,24.679-4.49.4-8.936,1.167-13.384,2,.048.427.1.8.152,1.244a11.413,11.413,0,0,1,2.248,2.306c.406.564.828,1.11,1.242,1.665q2.491,1.965,5.081,3.693a62.232,62.232,0,0,1,11.617,3.861c2.009-.47,3.787-.912,5.041-1.158.235-.046.469-.083.7-.129a201.9,201.9,0,0,1,20.544-3.211C1026.928,6256.908,1021.8,6247.216,1019.084,6236.535Z" fill="#c5c5c5"/>
        <path id="Path_7780" data-name="Path 7780" d="M1124.255,6073.826c9.293-16.666,19.914-31.981,33-45.715,9.15-9.6,18.783-18.572,29.576-25.977a45.341,45.341,0,0,0-4.771,3.051c-9.463,7.029-18.085,15.192-27.617,22.115-2.56,1.86-6.059,2.36-9.417,3.149,2.431,5.373-.027,10.195-7.559,13.177-6.215,2.462-12.222,6.024-19.864,3.8a4.669,4.669,0,0,0-1.638-.007,199.5,199.5,0,0,0-15.025,14.273A181.155,181.155,0,0,0,1074,6099c-8.391,15.046-21.095,25.674-35.575,34.139,8.816-.326,16.457-4.039,24.088-7.881,1.405-.708,2.813-1.417,4.226-2.111q4.416-2.167,8.713-4.5C1095.371,6107.824,1112.973,6094.057,1124.255,6073.826Z" fill="#c5c5c5"/>
        <path id="Path_7781" data-name="Path 7781" d="M654.32,6135.522c.44,3.826.879,7.643,1.323,11.5,3.335-5.547,4.295-14.782,3.241-24.088A109.718,109.718,0,0,1,654.32,6135.522Z" fill="#585858"/>
        <path id="Path_7782" data-name="Path 7782" d="M650.053,6098.424c1.24,10.786,2.433,21.153,3.621,31.483a47.489,47.489,0,0,0,4.058-13.851C656.207,6109.2,653.6,6102.808,650.053,6098.424Z" fill="#585858"/>
        <path id="Path_7783" data-name="Path 7783" d="M956.637,6189.205c-.454.981-.863,1.966-1.351,2.946-2.419,4.856-1.47,11.568-1.359,17.43.078,4.089,1.329,8.15,2.018,12.23a29.819,29.819,0,0,0,1.146,4.841C959.532,6214.127,958.43,6201.664,956.637,6189.205Z" fill="#585858"/>
        <path id="Path_7784" data-name="Path 7784" d="M697.574,6231.474a7.406,7.406,0,0,0,.533.705,48.088,48.088,0,0,0,4.175,4.156c.032.034.052.07.084.1,1.04,1.081,2.1,2.106,3.17,3.094a15.137,15.137,0,0,0,2.5,2.634c-1.759,1.413-4.46,3.747-5.537,4.63,1.933.211,3.868.419,5.794.7a43.822,43.822,0,0,1,4.259-1.107c.289-.055.569-.065.852-.093a7.147,7.147,0,0,0,.922-1.552c1.465-3.507-2.48-7.1-5.68-9.886a12.434,12.434,0,0,1-5.08-4.587c-6.2-9.059-13.218-17.549-19.905-26.278,2.2,6.863,4.315,13.758,6.854,20.493A10.884,10.884,0,0,0,697.574,6231.474Z" fill="#585858"/>
        <path id="Path_7785" data-name="Path 7785" d="M663.766,6222.66a5.43,5.43,0,0,0,1.235,2.524,9.557,9.557,0,0,1,.976.977c.769.9,1.668,1.819,2.636,2.76a275.788,275.788,0,0,0-17.11-64.785c-1.62,3.858-3.087,7.349-4.505,10.724.534,1.637,1.092,3.274,1.658,4.914C653.6,6194.082,661.638,6207.258,663.766,6222.66Z" fill="#585858"/>
        <path id="Path_7786" data-name="Path 7786" d="M988.155,6231.82a35.947,35.947,0,0,1-1.654-6.831c-.389-2.3-.919-4.6-1.4-6.9a48.182,48.182,0,0,1-1.206-8.876c-.132-6.959-1.024-14.764,1.237-20.859a16.261,16.261,0,0,1,.517-1.635c5.482-11.009,9.346-22.018,10.862-34.111a7.317,7.317,0,0,1,1.46-3c-3.411,2.078-6.958,3.994-10.6,5.781-6.452,3.166-12.658,6.907-20.384,6.288-1.025-.083-3.1,2.515-3.287,4.045a74.1,74.1,0,0,1-4.338,16.972c2.1,15.136,1.753,30.413.054,45.764a8.331,8.331,0,0,1-.8,2.523,140.18,140.18,0,0,0,6.589,15.251c-1.753.158-3.492.42-5.231.684.207,1.139.38,2.417.539,3.85a9.328,9.328,0,0,1,1.835,1.883c.332.46.676.906,1.014,1.359q2.034,1.6,4.147,3.014a50.856,50.856,0,0,1,9.482,3.152c1.641-.385,3.092-.744,4.116-.945,1.322-.258,2.64-.481,3.96-.727,4.448-.832,8.894-1.6,13.384-2C994.558,6248.449,990.369,6240.539,988.155,6231.82Z" fill="#585858"/>
        <path id="Path_7787" data-name="Path 7787" d="M1107.489,6051.482c-7.334,5.446-14.015,11.772-21.4,17.137-2.689,1.953-6.715,1.97-9.99,3.233-12.649,4.881-22.322,13.817-31.471,23.416a140.477,140.477,0,0,0-20.875,28.916c-5.493,9.852-13.468,17.152-22.543,23.176,9.75.611,17.656-4.07,25.85-8.091.964-.473,1.9-.985,2.852-1.472q4.345-2.217,8.518-4.653c14.48-8.465,27.184-19.093,35.575-34.139a181.155,181.155,0,0,1,26.938-37.315,199.5,199.5,0,0,1,15.025-14.273C1113.275,6047.661,1109.882,6049.705,1107.489,6051.482Z" fill="#585858"/>
        <path id="Path_7788" data-name="Path 7788" d="M1230.987,5979.464a21.32,21.32,0,0,0-5.331-8.17c-6.5-6.574-13.141-13.077-19.006-20.2-10.015-12.157-19.3-24.919-29.279-37.1a30.74,30.74,0,0,0-10.507-8.168,116.994,116.994,0,0,0-19.988-6.987c-4.3-1.107-9.368-2.009-13.422-.788-9.708,2.921-18.732,3.846-28.656.187a9.721,9.721,0,0,0-13.3,10.124c-5.4-.351-10.732-.409-15.982-1.1-10.767-1.414-21.444-4.011-32.239-4.582-16.306-.864-32.956-.334-47.16,8.872-9,5.833-18.818,8.345-28.73,10.539-27.442,6.077-54.913,12.263-82.644,16.713a302.546,302.546,0,0,1-54.5,3.664c-21.165-.479-42.293-3.317-63.389-5.571-8.771-.936-17.412-3.051-26.125-4.554-9.066-1.564-18.128-4.1-27.23-4.27-10.828-.207-21.7,1.636-32.547,2.609a75.475,75.475,0,0,0-7.681.834c-17.449,3.406-34.915,6.739-52.3,10.437a182.034,182.034,0,0,0-22.832,6.258c-9.661,3.418-17.513,9.251-20.539,19.73-6.131,21.224-10.136,42.811-8.96,64.979.509,9.6,1.233,19.5,4.054,28.589,5.217,16.792,4.053,32.444-2.626,48.551-2.763,6.666-4.722,15.122-3.123,21.832,3.223,13.536,8.733,26.53,13.531,39.687.259.708.534,1.412.788,2.121.146.409.932.59,2.112,1.283l10.259-24.422c.389.975.678,1.939,1.057,2.913a355.55,355.55,0,0,1,15.146,49.215c2.763,11.955,5.057,23.967,6.625,36.21-.293.044-.7.117-1.135.2.013.167.038.327.044.5a47.214,47.214,0,0,0,2.969,13.819c.1.282.158.574.259.855a32.918,32.918,0,0,0,3.254,3.281c.34.293.736.462,1.09.721,8.061,5.9,19.826,3.562,29.857,1.917,1.038-.17,2.081-.344,3.074-.486,1-.643,1.966-1.313,2.908-1.936.325-.216,2.13-1.758,4.086-3.412,1.3-1.1,2.649-2.235,3.718-3.094a19.465,19.465,0,0,1-3.225-3.4c-1.383-1.275-2.749-2.6-4.091-3.993-.042-.044-.067-.091-.108-.135a62.29,62.29,0,0,1-5.389-5.363,10.146,10.146,0,0,1-.688-.91c-4.217-1.283-7.362-4.382-9.11-9.02-4.641-12.313-8.01-25.1-12.474-37.487-3.581-9.936-.375-18.849,2.959-27.532.1-.265.2-.533.3-.8a132.174,132.174,0,0,1-3.937-12.954c-1.238-5.2.279-11.752,2.42-16.918,5.176-12.482,6.078-24.61,2.036-37.623-2.187-7.041-2.747-14.717-3.142-22.154-.911-17.178,2.192-33.907,6.943-50.353,2.345-8.12,8.43-12.64,15.916-15.289a141.22,141.22,0,0,1,17.693-4.85c13.475-2.865,27.009-5.448,40.531-8.087a58.779,58.779,0,0,1,5.952-.646c8.408-.754,16.831-2.183,25.222-2.022,7.052.135,14.075,2.1,21.1,3.309,6.752,1.164,13.448,2.8,20.245,3.529,16.348,1.747,32.72,3.945,49.121,4.316a234.444,234.444,0,0,0,42.231-2.838c21.489-3.449,42.777-8.243,64.042-12.951,7.682-1.7,15.291-3.648,22.263-8.167,11.007-7.134,23.91-7.545,36.545-6.876,8.366.443,16.639,2.455,24.983,3.551,4.068.534,8.2.579,12.385.85a7.532,7.532,0,0,1,10.308-7.844c7.69,2.835,14.684,2.119,22.206-.145,3.141-.946,7.066-.247,10.4.611a90.738,90.738,0,0,1,15.489,5.414,23.834,23.834,0,0,1,8.141,6.33c7.737,9.442,14.928,19.331,22.689,28.753,4.546,5.517,9.691,10.556,14.728,15.651a18.309,18.309,0,0,1,3.759,5.229c3.358-.789,6.857-1.289,9.417-3.149,9.532-6.923,18.154-15.086,27.617-22.115a45.341,45.341,0,0,1,4.771-3.051c2.93-1.636,6.021-2.845,8.285-2.185a23.748,23.748,0,0,0,13.953-.329c4.007-1.2,7.815-3.041,11.68-4.572C1229.8,5991.465,1233.086,5985.816,1230.987,5979.464ZM598.97,6128.474c-2.4-20.837-4.73-41.121-7.213-62.712C603.922,6080.809,607.579,6114.159,598.97,6128.474Z" fill="#585858"/>
        <path id="Path_7789" data-name="Path 7789" d="M931.966,6230.863a56.066,56.066,0,0,1,3.12,6.568,22.748,22.748,0,0,1,.721,4.352,7.223,7.223,0,0,1,1.422,1.459c.257.357.524.7.786,1.053q1.576,1.242,3.214,2.335a39.436,39.436,0,0,1,7.348,2.443c1.271-.3,2.395-.577,3.189-.732q4.109-.8,8.209-1.429c1.739-.264,3.478-.526,5.231-.684a140.18,140.18,0,0,1-6.589-15.251c-.447-1.3-1.049-2.532-1.39-3.873-.051-.131-.087-.314-.136-.452a29.819,29.819,0,0,1-1.146-4.841c-.689-4.08-1.94-8.141-2.018-12.23-.111-5.862-1.06-12.574,1.359-17.43.488-.98.9-1.965,1.351-2.946q1.5-3.237,2.728-6.515a74.1,74.1,0,0,0,4.338-16.972c.191-1.53,2.262-4.128,3.287-4.045,7.726.619,13.932-3.122,20.384-6.288,3.64-1.787,7.187-3.7,10.6-5.781,1.13-.689,2.14-1.517,3.237-2.244,9.075-6.024,17.05-13.324,22.543-23.176a140.477,140.477,0,0,1,20.875-28.916c9.149-9.6,18.822-18.535,31.471-23.416,3.275-1.263,7.3-1.28,9.99-3.233,7.386-5.365,14.067-11.691,21.4-17.137,2.393-1.777,5.786-3.821,8.478-4.065a4.669,4.669,0,0,1,1.638.007c7.642,2.226,13.649-1.336,19.864-3.8,7.532-2.982,9.99-7.8,7.559-13.177a18.309,18.309,0,0,0-3.759-5.229c-5.037-5.1-10.182-10.134-14.728-15.651-7.761-9.422-14.952-19.311-22.689-28.753a23.834,23.834,0,0,0-8.141-6.33,90.738,90.738,0,0,0-15.489-5.414c-3.335-.858-7.26-1.557-10.4-.611-7.522,2.264-14.516,2.98-22.206.145a7.532,7.532,0,0,0-10.308,7.844c-4.185-.271-8.317-.316-12.385-.85-8.344-1.1-16.617-3.108-24.983-3.551-12.635-.669-25.538-.258-36.545,6.876-6.972,4.519-14.581,6.467-22.263,8.167-21.265,4.708-42.553,9.5-64.042,12.951a234.444,234.444,0,0,1-42.231,2.838c-16.4-.371-32.773-2.569-49.121-4.316-6.8-.725-13.493-2.365-20.245-3.529-7.025-1.212-14.048-3.174-21.1-3.309-8.391-.161-16.814,1.268-25.222,2.022a58.779,58.779,0,0,0-5.952.646c-13.522,2.639-27.056,5.222-40.531,8.087a141.22,141.22,0,0,0-17.693,4.85c-7.486,2.649-13.571,7.169-15.916,15.289-4.751,16.446-7.854,33.175-6.943,50.353.4,7.437.955,15.113,3.142,22.154,4.042,13.013,3.14,25.141-2.036,37.623-2.141,5.166-3.658,11.718-2.42,16.918a132.174,132.174,0,0,0,3.937,12.954c2.277,6.509,4.837,12.949,7.159,19.444.113.317.723.456,1.637.993l3.444-8.2c1.418-3.375,2.885-6.866,4.505-10.724a275.788,275.788,0,0,1,17.11,64.785c.173,1.23.423,2.435.581,3.669-.064.01-.172.031-.249.043-.194.033-.387.065-.631.108.011.13.029.254.034.388a37.712,37.712,0,0,0,2.5,11.37,25.55,25.55,0,0,0,2.522,2.543c2.946,2.54,6.661,3.383,10.6,3.478,5.241.126,10.89-1.112,15.762-1.81.773-.5,1.524-1.018,2.254-1.5.064-.043.314-.252.51-.412,1.077-.883,3.778-3.217,5.537-4.63a15.137,15.137,0,0,1-2.5-2.634c-1.071-.988-2.13-2.013-3.17-3.094-.032-.035-.052-.071-.084-.1a48.088,48.088,0,0,1-4.175-4.156,7.406,7.406,0,0,1-.533-.705,10.884,10.884,0,0,1-7.06-6.989c-2.539-6.735-4.653-13.63-6.854-20.493-.917-2.86-1.795-5.734-2.813-8.557-3.306-9.175.851-17.226,3.75-25.189,1.853-5.088,6.6-9.048,9.291-13.931,3.9-7.084,7.856-14.331,7.642-22.811a64.58,64.58,0,0,0-1.26-8.161c3.733,3.021,5.148,6.436,3.387,12.132-2.29,7.415-4.281,15.479-8.746,21.542-7.125,9.673-3.905,18.667-.766,27.756,3.83,11.088,10.06,21.3,11.708,33.233a4.215,4.215,0,0,0,.957,1.956,7.213,7.213,0,0,1,.757.757c2.259,2.638,5.874,5.511,9,8.688a37.564,37.564,0,0,0,11.395,6.735,102.1,102.1,0,0,1,12.4,1.109c1.1-.322,2.2-.651,3.3-.858.224-.042.441-.05.661-.072a5.525,5.525,0,0,0,.714-1.2c1.135-2.719-1.922-5.5-4.4-7.661a9.636,9.636,0,0,1-3.936-3.555c-5.423-7.931-11.708-15.268-17.457-22.983-4.858-6.518-4.566-14.531-5.3-22.018-.527-5.366.742-10.935,1.437-16.385a13.119,13.119,0,0,1,6.774-10.216c8.971-5.412,13.7-13.331,12.385-24.24-.576-4.8,1.191-7.03,5.915-6.392,7.872,1.061,15.906,2.139,23.38,4.66,13.494,4.552,26.72,9.949,39.876,15.426,9.315,3.879,18.205,3.021,27.281-.479,6.727-2.593,13.454-5.354,20.417-7.1,4.18-1.051,8.863-.761,13.233-.283,13.751,1.5,27.529,2.96,41.164,5.232,12.932,2.155,23.563,8.662,23.854,23.471.068,3.425,1.351,6.866,2.333,10.225,4.779,16.342,4.458,43.6,2.973,49.679S931.966,6230.863,931.966,6230.863ZM655.643,6147.02c-.444-3.855-.883-7.672-1.323-11.5l-.646-5.615c-1.188-10.33-2.381-20.7-3.621-31.483,3.545,4.384,6.154,10.775,7.679,17.632a65.817,65.817,0,0,1,1.152,6.876C659.938,6132.238,658.978,6141.473,655.643,6147.02Z" fill="#313131"/>
        <path id="Path_7790" data-name="Path 7790" d="M931.386,6230.067" fill="#313131"/>
        <path id="Path_7791" data-name="Path 7791" d="M931.918,6228.163c3.287-5.007,1.937-27.7-.24-41.51-3.208,14.039-12.9,27.705-.757,42.664A4.367,4.367,0,0,0,931.918,6228.163Z" fill="#313131"/>
      </g>
    </g>
  </g>
</svg>
