<svg xmlns="http://www.w3.org/2000/svg" xmlns:xlink="http://www.w3.org/1999/xlink" viewBox="0 0 660.76 132.69"><defs><style>.cls-1{fill:none;}.cls-2{clip-path:url(#clip-path);}.cls-3{fill:#f5f2f2;}</style><clipPath id="clip-path" transform="translate(-22.25 -8.96)"><rect class="cls-1" width="701.98" height="146.04"/></clipPath></defs><title>Asset 7</title><g id="Layer_2" data-name="Layer 2"><g id="Layer_1-2" data-name="Layer 1"><g class="cls-2"><path class="cls-3" d="M102.1,10.51a2.12,2.12,0,0,1,1.86,1.8,6.3,6.3,0,0,1-.11,3.25,6.64,6.64,0,0,1-1.75,2.92,2.94,2.94,0,0,1-3,.85A58.17,58.17,0,0,0,91.36,18c-2.91-.32-6-.58-9.35-.8A94.38,94.38,0,0,0,68.5,33.31,200.65,200.65,0,0,0,57,52.71q-5.26,10.11-9.41,20.21t-7,18.55q-2.82,8.44-4.2,14.41a36.08,36.08,0,0,0-1.27,7.65,2.31,2.31,0,0,1-1.65,2.29,8,8,0,0,1-3.77.69,5.69,5.69,0,0,1-3.51-1.38c-1-.85-1.24-2.2-.75-4q2-8.19,5-17.07t6.59-17.75q3.57-8.88,7.5-17.44T52.5,42.56q4-7.71,7.76-14.14t7.07-11A55.06,55.06,0,0,0,55.53,20,38.93,38.93,0,0,0,45,25.39a34.7,34.7,0,0,0-8.4,8.82,35.17,35.17,0,0,0-5,12.87,2.62,2.62,0,0,1-1.91,1.81,6.74,6.74,0,0,1-3.35.21,6.19,6.19,0,0,1-3-1.43,2.76,2.76,0,0,1-.85-2.93A52,52,0,0,1,30.92,27.2,44,44,0,0,1,43,16.41a46.46,46.46,0,0,1,14.3-5.59A86.34,86.34,0,0,1,72.7,9a139.71,139.71,0,0,1,15.37.42q7.55.64,14,1.07" transform="translate(-22.25 -8.96)"/><path class="cls-3" d="M109.44,74.4a1.27,1.27,0,0,1,1.33-.31,2.47,2.47,0,0,1,1.32.85,2.56,2.56,0,0,1,.59,1.54,2.44,2.44,0,0,1-1,1.86q-5,4.89-9.89,8.93a76.7,76.7,0,0,1-9.2,6.64,28.26,28.26,0,0,1-7.86,3.46,7.46,7.46,0,0,1-5.8-.53,4.84,4.84,0,0,1-2.34-4.52,21.46,21.46,0,0,1,1.23-6.8,54.88,54.88,0,0,1,3.13-7.45q1.92-3.76,3.3-6.59a22.92,22.92,0,0,0,1.7-4.15c.21-.88-.32-.9-1.6,0a37,37,0,0,0-5.74,4.79,82,82,0,0,0-5.84,6.53q-2.88,3.57-5.64,7.45T62,93.49c-1.59,2.38-3,4.57-4.25,6.59s-2.25,3.64-3,4.84a5.53,5.53,0,0,1-3,2.66,4.84,4.84,0,0,1-3.24-.06,4.67,4.67,0,0,1-2.34-2,3.88,3.88,0,0,1-.43-3.09,110.34,110.34,0,0,1,4.1-12.38q2.7-7,6.22-14.51t7.55-15.21q4-7.65,8.29-14.62t8.4-12.7a77.6,77.6,0,0,1,7.87-9.47,3.46,3.46,0,0,1,3.45-.85,6.72,6.72,0,0,1,3.35,2.13,6.85,6.85,0,0,1,1.65,3.67,3.74,3.74,0,0,1-1.65,3.56,38.42,38.42,0,0,0-4.47,4.25q-2.66,2.88-5.79,6.91t-6.49,9q-3.34,5-6.59,10.47c-2.16,3.66-4.2,7.39-6.11,11.22a103.15,103.15,0,0,0-4.89,11.38c.85-1.21,2-2.73,3.35-4.58s2.9-3.81,4.57-5.9,3.44-4.2,5.32-6.32,3.75-4.08,5.63-5.85a47.92,47.92,0,0,1,5.42-4.47A13.36,13.36,0,0,1,89.55,56a8.23,8.23,0,0,1,4.15.21,5.3,5.3,0,0,1,2.92,2.24,6.91,6.91,0,0,1,.91,4.09,15.15,15.15,0,0,1-1.81,5.9q-1.59,3.09-3.19,6.27c-1.06,2.13-2,4.12-2.76,6s-1.42,3.49-1.92,4.94a6.75,6.75,0,0,0-.53,3.14c.14.78.87.92,2.18.42a26.12,26.12,0,0,0,5-2.76q3-2,6.91-5.16t8-6.86" transform="translate(-22.25 -8.96)"/><path class="cls-3" d="M115.49,91.1a4.39,4.39,0,0,0,3.51.37,26,26,0,0,0,5.32-1.81,64.07,64.07,0,0,0,6.27-3.24c2.2-1.28,4.34-2.62,6.43-4s4-2.85,5.8-4.31,3.26-2.74,4.46-3.88a1.42,1.42,0,0,1,1.49-.21,2.48,2.48,0,0,1,1.33,1.17,2.89,2.89,0,0,1,.32,1.91A2.86,2.86,0,0,1,148.77,79q-2.34,2.13-5.47,4.84c-2.09,1.8-4.33,3.58-6.7,5.31s-4.84,3.37-7.39,4.89a55.42,55.42,0,0,1-7.49,3.78,28.19,28.19,0,0,1-7.07,1.91,11.19,11.19,0,0,1-6.17-.85,8,8,0,0,1-4.26-4,11.19,11.19,0,0,1-.79-5.9,24.22,24.22,0,0,1,2-7,49.58,49.58,0,0,1,4-7.33A48.53,48.53,0,0,1,121,62.5a18.11,18.11,0,0,1,7.71-3.35,7.85,7.85,0,0,1,5.69,1,5.75,5.75,0,0,1,2.34,4.62q.21,3.15-2.23,7.39a31.77,31.77,0,0,1-3.88,5,30.14,30.14,0,0,1-4.9,4.14,21.65,21.65,0,0,1-5.31,2.66,10.2,10.2,0,0,1-5,.48,7.76,7.76,0,0,0-.64,1.44,6.67,6.67,0,0,0-.37,1.91,7.19,7.19,0,0,0,.16,2,2,2,0,0,0,.95,1.38m1.92-10.85c1.49-.14,3.33-1,5.53-2.66a20.24,20.24,0,0,0,5.74-7.23,4.23,4.23,0,0,0,.74-2.12c-.07-.36-.33-.44-.79-.27a8.49,8.49,0,0,0-1.92,1.23,20.37,20.37,0,0,0-2.5,2.34A63.67,63.67,0,0,0,120,76.48a22.65,22.65,0,0,0-2.55,3.77" transform="translate(-22.25 -8.96)"/><path class="cls-3" d="M205.65,95a5,5,0,0,1-2.71-4.73A22.31,22.31,0,0,1,204.22,83a59.36,59.36,0,0,1,3.3-7.92l3.24-6.48a22.52,22.52,0,0,0-5,4,79.26,79.26,0,0,0-5.53,6.32q-2.82,3.57-5.74,7.5T188.64,94a24.47,24.47,0,0,1-5.74,5.31c-2,1.28-3.79,1.56-5.42.86a3.5,3.5,0,0,1-1.86-3,17,17,0,0,1,.42-5.48,52.54,52.54,0,0,1,2.08-6.91q1.38-3.72,3-7.13c1.1-2.26,2.19-4.32,3.29-6.16a26,26,0,0,1,2.93-4.15,3.32,3.32,0,0,1,3.08-1.06,6.58,6.58,0,0,1,4.89,4.2,2.25,2.25,0,0,1-.42,2.5,21.28,21.28,0,0,0-2.66,3.5c-1,1.56-2,3.19-2.93,4.9s-1.82,3.29-2.6,4.78-1.31,2.59-1.6,3.3q1.6-1.82,4.15-5.16t5.64-7.12q3.08-3.78,6.43-7.5A53.6,53.6,0,0,1,208,63.3a19.38,19.38,0,0,1,6.28-3.51,5.59,5.59,0,0,1,5.31.9,4.13,4.13,0,0,1,1.49,3.93,22.22,22.22,0,0,1-1.38,5.85,64.24,64.24,0,0,1-2.77,6.43q-1.59,3.25-2.6,5.74a11.44,11.44,0,0,0-1,3.83c0,.89.67,1.1,2,.64a34.17,34.17,0,0,0,6.59-3.77q4.58-3.09,12.55-9.47a1.62,1.62,0,0,1,1.59-.21,2.56,2.56,0,0,1,1.33,1.12,3.25,3.25,0,0,1,.43,1.86,2.34,2.34,0,0,1-1.12,1.81q-1.27.94-3.56,2.87c-1.53,1.27-3.19,2.64-5,4.09s-3.74,2.91-5.79,4.36a50.59,50.59,0,0,1-6.12,3.72,21.88,21.88,0,0,1-5.74,2.07,7.34,7.34,0,0,1-4.84-.53" transform="translate(-22.25 -8.96)"/><path class="cls-3" d="M342.81,42.19q1.38.54,1.17,2.76a9.91,9.91,0,0,1-1.28,4.36,2.88,2.88,0,0,1-3.08,1.6q-11.49-3.61-28.82-4.36a202.85,202.85,0,0,0-18.39,37.74q-6.17,18.18-7.65,28.29a3,3,0,0,1-2.13,1.91,10.36,10.36,0,0,1-3.83.53,4.94,4.94,0,0,1-3.29-1.49c-.85-.85-1.07-2.13-.64-3.83q3.08-10.2,7.44-21.1t10.31-22.7c-.35.57-.78,1.21-1.27,1.91s-1,1.49-1.6,2.34q-1.9,3.09-4.25,6.49t-5.1,7.23a68.7,68.7,0,0,1-11.48,12.44q-6.07,4.68-10.85,2.23c-1.91-1.06-3-3.3-3.19-6.7s1.06-8,3.61-13.71c-.84.78-1.75,1.66-2.71,2.65s-1.93,2-2.92,3.09Q250.94,86,249,88c-1.31,1.35-2.68,2.7-4.09,4a38.64,38.64,0,0,1-8.51,6.27,11.3,11.3,0,0,1-8.29,1.17q-5.11-1.92-3.62-8.4,1.38-6.27,7-13.61A44.56,44.56,0,0,1,244.57,66q8.72-4.58,14.24,3.29c.93-.92,2.09-2.19,3.51-3.83a42.39,42.39,0,0,1,4.79-5,5.07,5.07,0,0,1,4-1.07,4.22,4.22,0,0,1,2.66,6.38q-13,23.19-8,23.18,2.24,0,7.87-6.38,2.76-3.18,5.9-7.23t6.64-8.93q3.51-5,7-9.94t7-10.05a192.74,192.74,0,0,0-31.89,3.19,138.1,138.1,0,0,0-31.37,9.78c-1.2.43-2.23-.07-3.08-1.48A9.7,9.7,0,0,1,232.55,53q.21-2.77,2.34-3.51,9.88-3,19.19-5t18.34-3.19q9-1.17,17.17-1.76T305.17,39c.49-.78,1-1.51,1.44-2.18s.9-1.36,1.33-2.07c2.4-3.62,4.46-6.66,6.16-9.15s3.08-4.43,4.15-5.85q1.38-1.59,3.93-.63a7,7,0,0,1,3.94,3.08,3.79,3.79,0,0,1-.54,4.68c-1.77,2-3.47,4-5.1,6s-3.19,4.09-4.68,6.22q10.32.53,17,1.27a55,55,0,0,1,10,1.81M254.14,73.13c.35-.78,0-1.31-1.07-1.59s-2.8.21-5,1.27q-3.51,1.69-8.19,6.91c-.43.5-.87,1-1.33,1.65s-1,1.29-1.54,2.07a20.26,20.26,0,0,0-2.55,4.26c-.64,1.41-.64,2.16,0,2.23s2.26-.57,4.89-2.34a31.25,31.25,0,0,0,2.66-2c.92-.78,1.91-1.67,3-2.66s2.08-2,3-2.87,1.86-1.84,2.71-2.76a29.49,29.49,0,0,0,3.41-4.15" transform="translate(-22.25 -8.96)"/><path class="cls-3" d="M314.84,62.92a2.74,2.74,0,0,1,2.82-1.22A7.42,7.42,0,0,1,320.9,63a7,7,0,0,1,2.24,2.55,1.87,1.87,0,0,1-.32,2.45,12.13,12.13,0,0,0-1.86,2.6q-1.33,2.18-3,5.16c-1.1,2-2.18,4.06-3.24,6.22a60.74,60.74,0,0,0-2.55,5.84,14.11,14.11,0,0,0-1,4.05c0,.95.44,1.18,1.43.69a18.13,18.13,0,0,0,4.31-3.19q2.49-2.34,5.21-5.37t5.47-6.54c1.85-2.34,3.56-4.57,5.16-6.7s3-4.08,4.2-5.85,2.09-3.12,2.66-4a3.1,3.1,0,0,1,2.87-1.75,6.48,6.48,0,0,1,3.4,1.11,7.65,7.65,0,0,1,2.45,2.56,2.25,2.25,0,0,1,.1,2.55,21.65,21.65,0,0,0-1.27,2.34q-1,1.91-2.08,4.52c-.74,1.73-1.49,3.59-2.23,5.58a45.63,45.63,0,0,0-1.7,5.47,16.53,16.53,0,0,0-.53,4.2c0,1.14.48,1.7,1.33,1.7a7.22,7.22,0,0,0,3.24-1.38A42.84,42.84,0,0,0,350,84.19q2.61-2.23,5.48-4.89t5.42-5.11a2,2,0,0,1,1.65-.63,2.49,2.49,0,0,1,1.54.74,2.42,2.42,0,0,1,.69,1.7,3.74,3.74,0,0,1-.69,2.23q-1.59,1.71-3.72,3.88c-1.42,1.46-3,3-4.62,4.52s-3.35,3.05-5.06,4.47a48.21,48.21,0,0,1-5.05,3.72A22.83,22.83,0,0,1,341,97.16a5.64,5.64,0,0,1-3.72.21,7.41,7.41,0,0,1-5.21-5.26q-1.06-3.89.42-10.26-4.25,5-8.5,9.83a35.75,35.75,0,0,1-9.68,7.82,10.38,10.38,0,0,1-5.05,1.49,9.14,9.14,0,0,1-4.25-1,7.49,7.49,0,0,1-3-2.77,8.47,8.47,0,0,1-1.22-4.14,11.66,11.66,0,0,1,.69-4.1,57.3,57.3,0,0,1,2.07-5.42c.86-1.95,1.81-4,2.88-6.06s2.12-4.09,3.18-6,2.06-3.62,3-5.11,1.67-2.66,2.23-3.51" transform="translate(-22.25 -8.96)"/><path class="cls-3" d="M386.5,70.58a20.33,20.33,0,0,0-5.74,4.36q-3.28,3.3-6.85,7.44t-7.07,8.56q-3.51,4.41-6.28,7.81a6,6,0,0,1-3.72,2.45,5.69,5.69,0,0,1-3.56-.48,5.14,5.14,0,0,1-2.34-2.5,4.73,4.73,0,0,1-.16-3.61,84.68,84.68,0,0,1,4-8.67q2.72-5.26,5.85-10.42t5.95-9.25a30.77,30.77,0,0,1,4.31-5.37,2.88,2.88,0,0,1,3-.74A6.61,6.61,0,0,1,376.78,62a6.06,6.06,0,0,1,1.54,2.92,2.32,2.32,0,0,1-.75,2.45,23.27,23.27,0,0,0-3.13,3.08q-1.76,2-3.62,4.57c-1.24,1.7-2.48,3.48-3.72,5.32s-2.36,3.58-3.35,5.21-1.86,3.05-2.6,4.25-1.23,2-1.44,2.45c1-1.14,2.36-2.82,4.09-5s3.65-4.65,5.75-7.23,4.34-5.16,6.75-7.71a66.23,66.23,0,0,1,7.12-6.59,25.83,25.83,0,0,1,6.8-4,6.57,6.57,0,0,1,5.85.27,3.55,3.55,0,0,1,2.13,3.61,16.72,16.72,0,0,1-1.33,5c-.74,1.77-1.53,3.54-2.34,5.31a8.11,8.11,0,0,0-.9,4.58c.07.49.49.69,1.27.58a9.64,9.64,0,0,0,2.87-1,27.94,27.94,0,0,0,3.83-2.39,35.52,35.52,0,0,0,4.15-3.56,1.69,1.69,0,0,1,1.33-.59,1.5,1.5,0,0,1,1.11.59,1.74,1.74,0,0,1,.32,1.38,3.25,3.25,0,0,1-1.06,1.81q-6.27,6.16-11.8,8.39t-8.83,1.12q-3.3-1.11-3.72-5.31t3.4-10.9" transform="translate(-22.25 -8.96)"/><path class="cls-3" d="M489.11,19.75c.91-1.06,2.23-1.27,3.93-.63A7,7,0,0,1,497,22.2q1.38,2.34-.64,4.68a161.21,161.21,0,0,0-21.58,31.58,210.86,210.86,0,0,0-13.29,31.26q-2.34,7.23-3.83,12.91a80.16,80.16,0,0,0-2,10,3,3,0,0,1-2.12,1.91,10.36,10.36,0,0,1-3.83.53,5,5,0,0,1-3.3-1.49c-.85-.85-1.06-2.13-.63-3.83q3.07-10.2,7.44-21.1t10.31-22.7c-.36.57-.78,1.21-1.27,1.91s-1,1.49-1.6,2.34c-1.28,2.06-2.69,4.22-4.25,6.49s-3.26,4.68-5.11,7.23a68,68,0,0,1-11.48,12.44q-6.06,4.68-10.84,2.23c-1.92-1.06-3-3.3-3.19-6.7s1.06-8,3.61-13.71l-2.71,2.71q-1.44,1.44-2.92,3.13-1.92,2.13-3.88,4.1c-1.32,1.31-2.68,2.64-4.1,4a38.59,38.59,0,0,1-8.5,6.27,11.32,11.32,0,0,1-8.3,1.17q-5.1-1.92-3.61-8.4,1.38-6.27,7-13.61A44.65,44.65,0,0,1,415.42,66q8.73-4.58,14.25,3.29c.92-.92,2.09-2.19,3.51-3.83,1-1.06,1.86-2,2.61-2.87A16.44,16.44,0,0,1,438,60.48a5.09,5.09,0,0,1,4-1.07,4.54,4.54,0,0,1,2.87,2.24,4,4,0,0,1-.21,4.14q-13,23.19-8,23.18,3-.21,10.1-9.14,3.72-4.47,7.65-9.78t8.3-11.7q4.45-6.37,8.4-12.23l7.65-11.37c2.41-3.62,4.47-6.66,6.17-9.15s3.08-4.43,4.15-5.85M425,73.13c.36-.78,0-1.31-1.06-1.59s-2.8.21-5,1.27-5.07,3.44-8.18,6.91c-.43.5-.87,1-1.33,1.65s-1,1.29-1.54,2.07a20.82,20.82,0,0,0-2.56,4.26c-.64,1.41-.64,2.16,0,2.23s2.27-.57,4.89-2.34a29.74,29.74,0,0,0,2.66-2c.92-.78,1.92-1.67,3-2.66s2.07-2,3-2.87,1.86-1.84,2.71-2.76a29.2,29.2,0,0,0,3.4-4.15" transform="translate(-22.25 -8.96)"/><path class="cls-3" d="M541,66.64a3.36,3.36,0,0,1,2.82-1.75,6.41,6.41,0,0,1,3.35.85A6.87,6.87,0,0,1,549.6,68a1.74,1.74,0,0,1,0,2.29,54.68,54.68,0,0,0-5.37,8.88,35.23,35.23,0,0,0-2.6,7.07,7,7,0,0,0-.06,4.14c.39.85,1.15.93,2.29.22a14.07,14.07,0,0,0,2.44-2.24c1.14-1.2,2.36-2.64,3.67-4.3s2.61-3.49,3.88-5.48A42.46,42.46,0,0,0,557,72.7a45.31,45.31,0,0,1,1.7-9.09,21.85,21.85,0,0,1,2.66-5.79A7.53,7.53,0,0,1,564.59,55a5.06,5.06,0,0,1,3.3-.26,4.1,4.1,0,0,1,3.29,3.13,11.3,11.3,0,0,1-.21,5.32A28.77,28.77,0,0,1,568.79,69a43.77,43.77,0,0,1-2.5,4.47q-.21,4.36,1,5.79a2.91,2.91,0,0,0,3.24.91,14.2,14.2,0,0,0,4.84-2.66c1.84-1.42,3.76-3,5.74-4.89a1.64,1.64,0,0,1,1.7-.48,2.79,2.79,0,0,1,1.54,1.06A3.33,3.33,0,0,1,585,75a2.54,2.54,0,0,1-1,2c-.78.78-1.8,1.7-3.08,2.77S578.2,82,576.71,83a33.15,33.15,0,0,1-4.62,2.76,12.7,12.7,0,0,1-4.63,1.33,7,7,0,0,1-4.14-1,8.22,8.22,0,0,1-3.19-4.09c-.57.71-1.35,1.76-2.34,3.14s-2.15,2.81-3.46,4.3a52.72,52.72,0,0,1-4.2,4.26,20.05,20.05,0,0,1-4.36,3.08,7.51,7.51,0,0,1-5.1.69,10.25,10.25,0,0,1-4.36-2.23,11.43,11.43,0,0,1-3-4,11,11,0,0,1-1.06-4.57,39.76,39.76,0,0,1-2.55,3.19q-1.92,2.23-4.2,4.57a47.75,47.75,0,0,1-4.73,4.25,10.56,10.56,0,0,1-4.15,2.24,7.26,7.26,0,0,1-6.32-1.65A8.32,8.32,0,0,1,507.6,93a13.8,13.8,0,0,1,1.07-4.62,65.65,65.65,0,0,1,2.71-6.12Q513,79,515.05,75.52c1.34-2.3,2.64-4.45,3.88-6.43s2.35-3.74,3.35-5.26,1.7-2.64,2.12-3.35a2.77,2.77,0,0,1,2.93-1.23,8.91,8.91,0,0,1,3.77,1.49,9.15,9.15,0,0,1,2.77,2.82,2.07,2.07,0,0,1-.22,2.77A41,41,0,0,0,530,70.79c-1.45,2-2.92,4.09-4.41,6.33s-2.89,4.48-4.2,6.75a56.22,56.22,0,0,0-3,5.79,7.4,7.4,0,0,0-.85,3.3c.11.6.84.41,2.18-.59A42.91,42.91,0,0,0,525,87.32q3.08-3.34,6.17-7.12c2-2.51,4-5,5.74-7.44a68.66,68.66,0,0,0,4-6.12" transform="translate(-22.25 -8.96)"/><path class="cls-3" d="M604.89,77.06q-3,2.88-6.81,7.07t-7.92,8a39.61,39.61,0,0,1-8.29,6,10.26,10.26,0,0,1-8,1.07,4.7,4.7,0,0,1-3.35-3,10,10,0,0,1-.21-5.26,23.76,23.76,0,0,1,2.44-6.54,50.2,50.2,0,0,1,4.52-7,46.74,46.74,0,0,1,6-6.44,39.22,39.22,0,0,1,7-5q4.26-2.45,7.92-1.49a10.81,10.81,0,0,1,6.23,4.68q.74-.75,1.8-1.92c.71-.78,1.44-1.59,2.18-2.44s1.49-1.67,2.24-2.45a16.59,16.59,0,0,1,2-1.81,4.27,4.27,0,0,1,3-1.11,4.79,4.79,0,0,1,2.71.85,3.86,3.86,0,0,1,1.49,2.28,4.26,4.26,0,0,1-.59,3.19q-5.83,10.74-7.7,16.27c-1.25,3.69-1.33,5.81-.27,6.38s3.26-.35,6.59-2.77a136.17,136.17,0,0,0,12.87-11,2.55,2.55,0,0,1,1.8-.8,1.74,1.74,0,0,1,1.33.69,2.36,2.36,0,0,1,.38,1.7A4.67,4.67,0,0,1,633,78.55q-10,11.7-16.59,15.58t-11.16,1.54c-1.92-1-3-2.91-3.3-5.74s.71-7.12,3-12.87M585,87.38a50.31,50.31,0,0,0,4.09-3.3q2.28-2,4.46-4.15t3.88-4A18.7,18.7,0,0,0,599.68,73c.28-.49.14-.92-.43-1.27a3.69,3.69,0,0,0-2.71-.11,15.92,15.92,0,0,0-4.68,2.23,32.51,32.51,0,0,0-6.32,5.74c-.5.57-1.12,1.33-1.86,2.29a33.48,33.48,0,0,0-2,2.87,22.78,22.78,0,0,0-1.49,2.71,3.18,3.18,0,0,0-.43,1.86c.11.39.57.46,1.38.22A17.63,17.63,0,0,0,585,87.38" transform="translate(-22.25 -8.96)"/><path class="cls-3" d="M671.87,60.05a43.4,43.4,0,0,1-1.49,4.09q-1.17,2.94-2.71,6.76t-3.3,8c-1.17,2.77-2.28,5.32-3.35,7.66,1.92-1.28,4.48-3,7.71-5s6.65-4.1,10.26-6a2.54,2.54,0,0,1,2.08-.16,3.11,3.11,0,0,1,1.54,1.17,2.55,2.55,0,0,1,.37,1.86,2.72,2.72,0,0,1-1.22,1.81c-1,.63-2.29,1.49-3.88,2.55s-3.32,2.2-5.16,3.4L667,89.82l-5.37,3.51c-1.63,1.06-3,2-4.14,2.77a20.82,20.82,0,0,0-2,1.48q-3.4,6.18-6.54,11.7t-6.44,10.47a102.55,102.55,0,0,1-6.91,9.25,66.82,66.82,0,0,1-7.86,7.92,20.82,20.82,0,0,1-7.13,4.1,12.33,12.33,0,0,1-6.11.42,8.23,8.23,0,0,1-4.47-2.5,8.54,8.54,0,0,1-2.12-4.83,13.69,13.69,0,0,1,1-6.49,24.22,24.22,0,0,1,4.73-7.39,82.28,82.28,0,0,1,9.89-9.14q5.53-4.36,10.58-7.71t8.67-5.58A35.15,35.15,0,0,0,646.88,95c.64-1,1.31-2.16,2-3.51s1.44-2.74,2.18-4.2,1.44-2.9,2.08-4.36,1.24-2.78,1.8-4c-1.27,1.49-2.55,3-3.82,4.67s-2.61,3.2-4,4.68-2.8,2.89-4.25,4.2a22.2,22.2,0,0,1-4.63,3.25,11,11,0,0,1-5.1,1.54,8.59,8.59,0,0,1-4.31-1,7.83,7.83,0,0,1-3-2.82,7.73,7.73,0,0,1-1.11-4.14,16.94,16.94,0,0,1,1.54-6.49q1.65-4.14,3.88-8.56t4.57-8.29c1.56-2.59,2.77-4.48,3.62-5.69a2.73,2.73,0,0,1,2.81-1.22,7.41,7.41,0,0,1,3.25,1.33A7,7,0,0,1,646.67,63a1.85,1.85,0,0,1-.32,2.44,14.19,14.19,0,0,0-1.91,2.61c-.93,1.45-1.94,3.14-3,5s-2.22,3.93-3.35,6.06a58.17,58.17,0,0,0-2.71,5.69,12.58,12.58,0,0,0-1.07,3.88c0,.92.45,1.17,1.44.74a21.53,21.53,0,0,0,6.7-5.26,106,106,0,0,0,7.44-9q3.72-5,7-10.21t5.53-9.15a3.55,3.55,0,0,1,2.76-1.8,6.38,6.38,0,0,1,3.45.53,6.7,6.7,0,0,1,2.72,2.23,3.47,3.47,0,0,1,.53,3.19m-29.77,45.3q-2.34,1.59-5,3.5c-1.77,1.28-3.53,2.59-5.26,3.94s-3.42,2.67-5.05,4-3.09,2.5-4.36,3.57a30.52,30.52,0,0,0-6,6.85c-1.17,2-1.66,3.51-1.49,4.47s1,1.26,2.34.9,3.24-1.59,5.59-3.72q2.65-2.45,5.31-5.42t5.16-6.06c1.66-2.06,3.24-4.11,4.73-6.17s2.83-4,4-5.84" transform="translate(-22.25 -8.96)"/></g></g></g></svg>