<svg xmlns="http://www.w3.org/2000/svg" viewBox="0 0 22.67 22.65"><g id="Layer_2" data-name="Layer 2"><g id="Layer_1-2" data-name="Layer 1"><path fill="currentColor" d="M22.67,11.25c0,1.62,0,3.22-.1,4.82a7,7,0,0,1-1,3.71,5.8,5.8,0,0,1-4.18,2.65,20.45,20.45,0,0,1-2.71.19c-2,0-3.9,0-5.85,0a31.17,31.17,0,0,1-3.2-.16A5.9,5.9,0,0,1,.22,17.31,21.18,21.18,0,0,1,0,14.56c0-1.89,0-3.77,0-5.65a29.6,29.6,0,0,1,.2-3.53A5.84,5.84,0,0,1,5.32.22,18.52,18.52,0,0,1,8,0C10,0,11.9,0,13.85,0A30.64,30.64,0,0,1,17,.17,5.87,5.87,0,0,1,21.8,3.32a7,7,0,0,1,.77,3.1c.06,1.62.07,3.23.1,4.83M2,11.33h.05c0,1,0,2,0,3s.07,1.78.18,2.66a3.75,3.75,0,0,0,1.38,2.57,4.34,4.34,0,0,0,2.55.94c1.15.07,2.3.1,3.45.11,1.46,0,2.92,0,4.38,0,.83,0,1.66,0,2.48-.1a4.63,4.63,0,0,0,2.19-.69,4.07,4.07,0,0,0,1.8-3.29c.08-1,.1-2.07.11-3.1,0-1.7,0-3.39,0-5.09a23.12,23.12,0,0,0-.19-2.76A3.73,3.73,0,0,0,17.19,2.3a21.69,21.69,0,0,0-3-.22c-1.88,0-3.77,0-5.66,0a23.65,23.65,0,0,0-2.8.17A3.77,3.77,0,0,0,2.63,4.43a4.88,4.88,0,0,0-.47,2C2.11,8.05,2.07,9.69,2,11.33"/><path fill="currentColor" d="M17.15,11.32a5.82,5.82,0,1,1-5.7-5.82,5.83,5.83,0,0,1,5.7,5.82m-2.06,0a3.77,3.77,0,1,0-3.79,3.75,3.76,3.76,0,0,0,3.79-3.75"/><path fill="currentColor" d="M17.36,6.64A1.36,1.36,0,1,1,18.73,5.3a1.33,1.33,0,0,1-1.37,1.34"/></g></g></svg>