<?xml version="1.0" encoding="utf-8"?>
<!-- Generator: Adobe Illustrator 23.0.0, SVG Export Plug-In . SVG Version: 6.00 Build 0)  -->
<svg version="1.1" id="Layer_1" xmlns="http://www.w3.org/2000/svg" xmlns:xlink="http://www.w3.org/1999/xlink" x="0px" y="0px"
	 viewBox="0 0 327 121.1" style="enable-background:new 0 0 327 121.1;" xml:space="preserve">
<style type="text/css">
	.st0{clip-path:url(#SVGID_2_);}
	.st1{fill:#ECECEC;}
	.st2{fill:#F5F5F5;}
	.st3{fill:#C5C5C5;}
	.st4{fill:#585858;}
	.st5{fill:#313131;}
	.st6{fill:#797979;}
	.st7{fill:none;}
	.st8{fill:none;stroke:#616161;stroke-width:0.11;stroke-miterlimit:10;}
	.st9{fill:#363636;}
	.st10{fill:#2B2B2B;}
	.st11{fill:#6B6B6B;}
	.st12{fill:#3C3C3C;}
	.st13{fill:#252525;}
	.st14{fill:#171717;}
</style>
<title>Asset 1</title>
<g>
	<g id="Layer_1-2">
		<g>
			<defs>
				<rect id="SVGID_1_" x="-700" y="-77.9" width="1728" height="6866"/>
			</defs>
			<clipPath id="SVGID_2_">
				<use xlink:href="#SVGID_1_"  style="overflow:visible;"/>
			</clipPath>
			<g class="st0">
				<path class="st1" d="M141.9,34.1h0.1c-0.1-0.9-0.3-1.7-0.5-2.6l-0.4-0.5c-0.5-0.9-0.7-1.9-0.7-2.9c0,0,0-0.1,0-0.1l-0.1-0.2
					l-0.7,1.7c-0.1,0-0.1-0.1-0.2-0.1l-0.1-0.2c0,0.3,0,0.7,0.1,1c0.4,1.1,0.7,2.2,1.1,3.3c0.1,0.4,0.4,0.7,0.8,0.8l0.1,0.1
					c0.1,0.2,0.3,0.3,0.5,0.5l0,0l0.2,0.2C142,34.7,142,34.4,141.9,34.1L141.9,34.1"/>
				<path class="st2" d="M142.4,35.5c0,0.1,0.1,0.1,0.2,0.2l-0.2,0.1c0.5,0,1,0.1,1.5,0.1c0.1,0,0.3-0.1,0.4-0.1h0.1
					c0,0,0.1-0.1,0.1-0.2C143.8,35.8,143.1,35.8,142.4,35.5"/>
				<path class="st1" d="M196.9,7.6c-0.7-0.7-1.3-1.3-1.9-2.1c-1-1.3-2-2.6-3-3.8c-0.3-0.4-0.7-0.6-1.1-0.8c-0.6-0.3-1.3-0.5-2-0.7
					C188.5,0,188,0,187.5,0.1c-1,0.3-2,0.3-2.9,0c-0.5-0.2-1.1,0.1-1.3,0.6c-0.1,0.1-0.1,0.3-0.1,0.4c-0.6,0-1.1,0-1.6-0.1
					c-1.1-0.2-2.2-0.4-3.3-0.5c-1.7-0.2-3.4,0.1-4.8,0.9c-0.9,0.5-1.9,0.9-2.9,1.1c-2.8,0.6-5.6,1.3-8.5,1.7
					c-1.8,0.3-3.7,0.4-5.6,0.4c-2.2,0-4.3-0.3-6.5-0.6c-0.9-0.1-1.8-0.3-2.7-0.5c-0.9-0.2-1.9-0.4-2.8-0.4c-1.1,0-2.2,0.1-3.3,0.3
					c-0.3,0-0.5,0-0.8,0.1c-1.8,0.3-3.6,0.7-5.4,1.1c-0.8,0.2-1.6,0.4-2.3,0.6c-1,0.3-1.8,1-2.1,2c-0.7,2.2-1,4.4-0.9,6.7
					c0,1,0.2,2,0.4,2.9c0.5,1.6,0.4,3.4-0.3,5c-0.3,0.7-0.4,1.5-0.3,2.2c0.4,1.5,0.9,2.9,1.5,4.3c0,0,0.1,0.1,0.2,0.1l1-2.5
					c1.2,2.9,2,5.9,2.3,9.1h-0.1l0,0c0,0.5,0.1,1,0.3,1.5c0.1,0.1,0.2,0.2,0.3,0.3c0.9,0.8,2.4,0.4,3.5,0.2l0.3-0.2l0.5-0.4
					c-0.2-0.1-0.5-0.2-0.7-0.3c-0.1-0.1-0.2-0.2-0.3-0.3c-0.1-0.3-0.2-0.7-0.3-1.1c-0.4-0.2-0.7-0.5-0.8-0.9
					c-0.5-1.3-0.8-2.6-1.3-3.8c-0.3-1-0.1-2,0.3-2.9c0-0.1-0.1-0.2-0.1-0.3c-0.3,0.8-0.6,1.4-0.9,2.1c-0.1-0.1-0.2-0.1-0.2-0.1
					c-0.5-1.2-0.9-2.4-1.2-3.6c-0.1-0.6,0-1.3,0.3-1.9c0.6-1.3,0.7-2.8,0.2-4.2c-0.2-0.8-0.3-1.6-0.3-2.5c-0.1-1.9,0.2-3.8,0.8-5.6
					c0.3-0.8,0.9-1.5,1.8-1.7c0.7-0.2,1.3-0.4,2-0.5c1.5-0.3,3-0.6,4.5-0.9c0.2,0,0.4,0,0.7-0.1c0.9-0.1,1.9-0.2,2.8-0.2
					c0.8,0.1,1.6,0.2,2.3,0.4c0.8,0.1,1.5,0.3,2.3,0.4c1.8,0.2,3.7,0.4,5.5,0.5c1.6,0,3.2-0.1,4.7-0.3c2.4-0.4,4.8-0.9,7.2-1.4
					c0.9-0.2,1.7-0.5,2.5-0.9c1.2-0.7,2.7-1,4.1-0.8c0.9,0.1,1.9,0.3,2.8,0.4c0.5,0.1,0.9,0.1,1.4,0.1c0-0.5,0.5-0.8,0.9-0.8
					c0.1,0,0.1,0,0.2,0c0.8,0.3,1.7,0.3,2.5,0c0.4-0.1,0.8-0.1,1.2,0.1c0.6,0.1,1.2,0.3,1.7,0.6c0.4,0.2,0.7,0.4,0.9,0.7
					c0.9,1,1.7,2.2,2.5,3.2c0.5,0.6,1.1,1.2,1.6,1.8c0.2,0.2,0.3,0.3,0.4,0.5c0.4-0.3,0.7-0.6,1.1-0.9s1-0.6,1.3-0.5
					c0.9,0.2,1.8,0,2.6-0.5C197.8,9.5,197.9,8.6,196.9,7.6 M132.7,23.7c-0.3-2.1-0.5-4.2-0.7-6.4C133.3,18.8,133.6,22.3,132.7,23.7"
					/>
				<path class="st2" d="M187.9,13.9c-0.2,0.1-0.3,0.1-0.5,0.2L187.9,13.9"/>
				<path class="st1" d="M171.8,26.6c-0.2,0.1-0.4,0.2-0.6,0.3c0,0,0,0.1,0,0.1c-0.1,1-0.5,2.1-0.9,3c-0.2,0.6-0.3,1.3-0.2,1.9
					c0,0.5,0.1,0.9,0.2,1.4c0,0.2,0.1,0.4,0.1,0.6c0.2,0.7,0.5,1.5,0.9,2.1c-0.5,0-1,0.1-1.5,0.2c0,0,0.1,0.1,0.1,0.1
					c0,0,0.1,0.1,0.1,0.1l0.4,0.3c0.3,0.1,0.7,0.2,1,0.3l0.4-0.1c0.6-0.1,1.2-0.2,1.8-0.3c-0.4-0.8-0.8-1.7-1-2.5
					c-0.1-0.2-0.1-0.5-0.2-0.7c-0.1-0.5-0.2-1.1-0.3-1.6c-0.1-0.8,0-1.6,0.2-2.3c0.6-1.1,0.9-2.3,1.1-3.5v-0.1
					C173.1,26.4,172.5,26.6,171.8,26.6"/>
				<path class="st1" d="M136.1,19.5c0.2,1.9,0.4,3.6,0.6,5.4C137.5,23.7,137.2,20.9,136.1,19.5"/>
				<path class="st1" d="M182.9,17.2c-0.2,0-0.4,0-0.6,0.2c-0.8,0.5-1.5,1.1-2.1,1.8c-0.9,1-1.7,2.1-2.3,3.2c-0.8,1.4-2,2.5-3.4,3.2
					c0.8-0.1,1.5-0.4,2.2-0.8c2-0.8,3.7-2.3,4.8-4.1c0.7-1.2,1.5-2.4,2.5-3.5C183.5,17.3,183.2,17.3,182.9,17.2"/>
				<path class="st3" d="M140.7,26.3c0.6-1.5,0.4-3.1-0.5-4.4C140.4,23.4,140.6,24.9,140.7,26.3"/>
				<path class="st3" d="M145.8,34.5c-0.1-0.3-0.2-0.5-0.2-0.8l0,0l0,0c-0.6-0.8-1.2-1.6-1.8-2.4c-0.4-0.7-0.6-1.6-0.6-2.5l0,0
					c-0.3,0.6-0.4,1.3-0.2,2c0.3,0.9,0.5,1.8,0.9,2.7c0.1,0.3,0.3,0.5,0.6,0.6l0,0.1c0.1,0.1,0.3,0.3,0.4,0.4l0,0
					c0.1,0.1,0.2,0.2,0.3,0.3c0.1,0.1,0.1,0.2,0.2,0.2l-0.3,0.2c0.3,0,0.6,0.1,1,0.1c0.1,0,0.2-0.1,0.4-0.1h0.1l0.1-0.1
					c0,0,0-0.1,0-0.1c-0.3,0-0.5-0.1-0.8-0.3C145.9,34.7,145.8,34.7,145.8,34.5"/>
				<path class="st3" d="M191.4,11.9c-0.1-0.2-0.2-0.4-0.4-0.5c-0.6-0.6-1.1-1.1-1.6-1.8c-0.9-1.1-1.7-2.2-2.5-3.2
					c-0.2-0.3-0.6-0.5-0.9-0.7c-0.6-0.3-1.1-0.5-1.7-0.6c-0.4-0.1-0.8-0.1-1.1,0c-0.8,0.3-1.7,0.3-2.5,0c-0.4-0.2-0.9,0-1.1,0.5
					c-0.1,0.1-0.1,0.3-0.1,0.4c-0.5,0-0.9,0-1.4-0.1c-0.9-0.1-1.8-0.3-2.8-0.4c-1.4-0.2-2.8,0.1-4.1,0.8c-0.8,0.5-1.6,0.8-2.5,0.9
					c-2.4,0.5-4.8,1.1-7.2,1.4c-1.6,0.2-3.1,0.3-4.7,0.3c-1.8,0-3.7-0.3-5.5-0.5c-0.8-0.1-1.5-0.3-2.3-0.4c-0.8-0.2-1.6-0.3-2.3-0.4
					c-0.9,0-1.9,0.1-2.8,0.2c-0.2,0-0.5,0-0.7,0.1c-1.5,0.3-3,0.6-4.5,0.9c-0.7,0.1-1.3,0.3-2,0.5c-0.8,0.2-1.5,0.9-1.8,1.7
					c-0.6,1.8-0.8,3.7-0.8,5.6c0,0.8,0.1,1.7,0.3,2.5c0.4,1.4,0.4,2.9-0.2,4.2c-0.3,0.6-0.4,1.2-0.3,1.9c0.3,1.2,0.8,2.4,1.2,3.6
					c0,0,0.1,0,0.2,0.1c0.3-0.7,0.6-1.3,0.9-2.1c0,0.1,0.1,0.2,0.1,0.3c0.9,2.4,1.6,4.8,1.9,7.3h-0.1l0,0v0.2c0,0.4,0.1,0.7,0.3,1.1
					c0.1,0.1,0.2,0.2,0.3,0.3c0.2,0.2,0.4,0.3,0.7,0.3c0.8,0.1,1.5,0,2.3-0.2l0.3-0.2l0.5-0.4l0.2-0.1c-0.1,0-0.1-0.1-0.2-0.2
					l-0.1-0.1c-0.1-0.1-0.2-0.2-0.2-0.2s0,0,0-0.1l-0.2-0.2l0,0c-0.2-0.2-0.3-0.3-0.5-0.5s0-0.1-0.1-0.1c-0.4-0.1-0.7-0.4-0.8-0.8
					c-0.4-1.1-0.7-2.2-1.1-3.3c-0.1-0.3-0.2-0.7-0.1-1c-0.4-0.9-0.7-1.8-1-2.8c-0.1-0.5,0-1.1,0.2-1.6c0.5-1.1,0.5-2.3,0.2-3.4
					c-0.2-0.7-0.3-1.3-0.3-2c0-1.6,0.2-3.1,0.6-4.6c0.2-0.7,0.8-1.2,1.5-1.4c0.5-0.2,1.1-0.3,1.6-0.4c1.2-0.3,2.5-0.5,3.7-0.7
					c0.2,0,0.4-0.1,0.5-0.1c0.8-0.1,1.5-0.2,2.3-0.2c0.6,0.1,1.3,0.2,1.9,0.3c0.6,0.1,1.2,0.3,1.8,0.3c1.5,0.2,3,0.4,4.5,0.4
					c1.3,0,2.6-0.1,3.8-0.3c2-0.3,3.9-0.8,5.8-1.2c0.7-0.1,1.4-0.4,2-0.7c1-0.6,2.2-0.8,3.3-0.6c0.8,0,1.5,0.2,2.3,0.3
					c0.4,0.1,0.8,0.1,1.1,0.1c0-0.4,0.2-0.7,0.6-0.8c0.1,0,0.2,0,0.3,0c0.6,0.2,1.4,0.2,2,0c0.3-0.1,0.6,0,1,0.1
					c0.5,0.1,1,0.3,1.4,0.5c0.3,0.1,0.5,0.3,0.8,0.6c0.7,0.9,1.4,1.8,2.1,2.6c0.4,0.5,0.9,1,1.3,1.4c0.2,0.2,0.3,0.4,0.4,0.6
					c0.6-0.5,1.2-1,1.8-1.5l0.3-0.2c0.1-0.1,0.3-0.2,0.5-0.2c0.1,0,0.3,0,0.4,0c0.8,0.1,1.6,0,2.2-0.4
					C191.3,13.2,191.6,12.6,191.4,11.9 M136.6,25.1c-0.2-1.8-0.4-3.6-0.6-5.4C137,20.9,137.4,23.8,136.6,25.1"/>
				<path class="st3" d="M170.4,33.9c-0.1-0.2-0.1-0.4-0.1-0.6c-0.1-0.5-0.2-0.9-0.2-1.4c-0.1-0.7,0-1.3,0.2-1.9
					c0.5-0.9,0.8-2,0.9-3c0,0,0-0.1,0-0.1L171,27c-0.5,0.3-1.2,0.5-1.8,0.6l-0.2,0.2c0,0.1-0.1,0.1-0.1,0.2
					c-0.1,0.8-0.4,1.7-0.8,2.4c0,0,0,0.1,0,0.1c0,0.7,0,1.4,0,2.1c0,0.2,0.1,0.3,0.1,0.5c0,0.2,0.1,0.3,0.1,0.5
					c0.2,0.6,0.4,1.2,0.7,1.7c-0.3,0-0.6,0.1-0.9,0.1c0,0,0,0.1,0,0.1c0.1,0,0.1,0.1,0.2,0.2l0.1,0.1c0.1,0.1,0.2,0.2,0.4,0.3
					c0.3,0.1,0.6,0.2,0.8,0.3l0.3-0.1h0c0.5-0.1,1-0.2,1.5-0.2C170.9,35.4,170.6,34.6,170.4,33.9"/>
				<path class="st3" d="M177.9,22.4c0.6-1.2,1.4-2.3,2.3-3.2c0.6-0.7,1.3-1.3,2.1-1.8c-0.1,0.1-0.2,0.1-0.3,0.2
					c-0.7,0.5-1.3,1.1-2,1.6c-0.2,0.1-0.4,0.2-0.7,0.2c0.2,0.4,0,0.7-0.5,0.9c-0.4,0.3-0.9,0.3-1.4,0.3c0,0-0.1,0-0.1,0
					c-0.4,0.3-0.7,0.6-1.1,1c-0.7,0.8-1.4,1.7-1.9,2.6c-0.6,1-1.5,1.9-2.5,2.4c0.6-0.1,1.2-0.2,1.7-0.6l0.3-0.2l0.6-0.3
					C175.8,24.9,177,23.8,177.9,22.4"/>
				<path class="st4" d="M144.7,26.8l0.1,0.8c0.3-0.5,0.3-1.1,0.2-1.7C144.9,26.2,144.8,26.5,144.7,26.8"/>
				<path class="st4" d="M144.4,24.2c0.1,0.8,0.2,1.5,0.3,2.2c0.1-0.3,0.2-0.7,0.3-1C144.8,24.9,144.6,24.5,144.4,24.2"/>
				<path class="st4" d="M166,30.6c0,0.1-0.1,0.1-0.1,0.2c-0.1,0.4-0.2,0.8-0.1,1.2c0,0.3,0.1,0.6,0.1,0.9c0,0.1,0,0.3,0.1,0.3
					C166.2,32.4,166.2,31.5,166,30.6"/>
				<path class="st4" d="M147.7,33.6L147.7,33.6c0.1,0.1,0.2,0.2,0.3,0.3l0,0l0.2,0.2c0,0.1,0.1,0.1,0.2,0.2l-0.4,0.3h0.4
					c0.1,0,0.2-0.1,0.3-0.1h0.1l0.1-0.1c0.1-0.3-0.2-0.5-0.4-0.7c-0.1-0.1-0.3-0.2-0.4-0.3c-0.4-0.6-0.9-1.2-1.4-1.9
					c0.2,0.5,0.3,1,0.5,1.4C147.3,33.2,147.4,33.4,147.7,33.6"/>
				<path class="st4" d="M145.3,32.9c0,0.1,0,0.1,0.1,0.2l0.1,0.1l0.2,0.2c-0.2-1.6-0.6-3.1-1.2-4.6c-0.1,0.3-0.2,0.5-0.3,0.8
					l0.1,0.3C144.7,30.9,145.1,31.9,145.3,32.9"/>
				<path class="st4" d="M168.2,33.6c-0.1-0.2-0.1-0.3-0.1-0.5c0-0.2-0.1-0.3-0.1-0.5c0-0.2-0.1-0.4-0.1-0.6c-0.1-0.5,0-1,0.1-1.5
					c0,0,0-0.1,0-0.1c0.4-0.8,0.7-1.6,0.8-2.4c0-0.1,0.1-0.1,0.1-0.2c-0.2,0.1-0.5,0.3-0.8,0.4c-0.4,0.3-0.9,0.4-1.4,0.4
					c-0.1,0-0.2,0.2-0.2,0.3c-0.1,0.4-0.2,0.8-0.3,1.2c0.1,1.1,0.1,2.2,0,3.2c0,0.1,0,0.1-0.1,0.2c0.1,0.4,0.3,0.7,0.5,1.1h-0.4
					c0,0.1,0,0.2,0,0.3c0.1,0,0.1,0.1,0.1,0.1l0.1,0.1c0.1,0.1,0.2,0.2,0.3,0.2c0.2,0,0.5,0.1,0.7,0.2l0.3-0.1h0.3
					c0.3-0.1,0.6-0.1,1-0.1C168.6,34.8,168.4,34.2,168.2,33.6"/>
				<path class="st4" d="M176.7,20.8c-0.5,0.4-1,0.8-1.5,1.2c-0.2,0.1-0.5,0.2-0.7,0.2c-0.9,0.4-1.6,0.9-2.2,1.7
					c-0.6,0.6-1.1,1.3-1.5,2c-0.4,0.7-0.9,1.2-1.6,1.6c0.7,0,1.3-0.2,1.9-0.5l0.2-0.1c0.2-0.1,0.4-0.2,0.6-0.3
					c1-0.6,1.9-1.4,2.5-2.4c0.5-1,1.2-1.8,1.9-2.6c0.3-0.4,0.7-0.7,1.1-1C177.1,20.7,176.9,20.7,176.7,20.8"/>
				<path class="st4" d="M185.4,15.8c-0.1-0.2-0.2-0.4-0.4-0.6c-0.5-0.5-0.9-0.9-1.3-1.4c-0.7-0.9-1.4-1.8-2.1-2.6
					c-0.2-0.2-0.5-0.4-0.8-0.6c-0.5-0.2-0.9-0.4-1.4-0.5c-0.3-0.1-0.6-0.1-1-0.1c-0.6,0.2-1.4,0.2-2,0c-0.3-0.1-0.7,0-0.9,0.4
					c0,0.1-0.1,0.2,0,0.3c-0.4,0-0.8,0-1.1-0.1c-0.8-0.1-1.5-0.3-2.3-0.3c-1.1-0.2-2.3,0.1-3.3,0.6c-0.6,0.4-1.3,0.6-2,0.7
					c-1.9,0.4-3.9,0.9-5.8,1.2c-1.3,0.2-2.6,0.3-3.8,0.3c-1.5,0-3-0.2-4.5-0.4c-0.6-0.1-1.2-0.2-1.8-0.3c-0.6-0.2-1.3-0.3-1.9-0.3
					c-0.8,0-1.5,0.1-2.3,0.2c-0.2,0-0.4,0-0.5,0.1c-1.2,0.2-2.5,0.5-3.7,0.7c-0.5,0.1-1.1,0.3-1.6,0.4c-0.7,0.2-1.2,0.7-1.5,1.4
					c-0.5,1.5-0.7,3-0.6,4.6c0,0.7,0.1,1.3,0.3,2c0.4,1.1,0.3,2.3-0.2,3.4c-0.2,0.5-0.3,1-0.2,1.5c0.3,1,0.6,1.9,1,2.8l0.1,0.2
					c0,0,0.1,0,0.2,0.1l0.7-1.7c0,0.1,0.1,0.1,0.1,0.2c0.4,1.1,0.8,2.3,1.1,3.5c0.2,0.9,0.4,1.7,0.5,2.6h-0.1l0,0
					c0,0.3,0.1,0.7,0.2,1c0,0,0,0,0,0.1s0.2,0.2,0.2,0.2l0.1,0.1c0.7,0.3,1.4,0.4,2.1,0.1h0.2l0.2-0.1l0.3-0.2l0.3-0.2
					c-0.1-0.1-0.2-0.2-0.2-0.2c-0.1-0.1-0.2-0.2-0.3-0.3l0,0c-0.1-0.1-0.3-0.3-0.4-0.4l0-0.1c-0.3-0.1-0.5-0.3-0.6-0.6
					c-0.3-0.9-0.6-1.8-0.9-2.7c-0.2-0.7-0.1-1.4,0.2-2l0,0c-0.1-0.3-0.2-0.6-0.3-0.9c-0.1-0.4,0-0.8,0.2-1.2
					c0.4-0.8,0.4-1.8,0.1-2.7c-0.1-0.5-0.2-1-0.2-1.6c0-1.2,0.1-2.4,0.5-3.6c0.2-0.5,0.6-0.9,1.1-1.1c0.4-0.1,0.8-0.3,1.3-0.3
					c1-0.2,1.9-0.4,2.9-0.6c0.1,0,0.3,0,0.4,0c0.6-0.1,1.2-0.1,1.8-0.1c0.5,0,1,0.1,1.5,0.2c0.5,0.1,1,0.2,1.4,0.3
					c1.2,0.1,2.3,0.3,3.5,0.3c1,0,2,0,3-0.2c1.5-0.2,3-0.6,4.5-0.9c0.6-0.1,1.1-0.3,1.6-0.6c0.8-0.4,1.7-0.6,2.6-0.5
					c0.6,0,1.2,0.2,1.8,0.3c0.3,0,0.6,0,0.9,0.1c0-0.3,0.2-0.6,0.5-0.6c0.1,0,0.2,0,0.3,0c0.5,0.2,1.1,0.2,1.6,0
					c0.2-0.1,0.5-0.1,0.7,0c0.4,0.1,0.7,0.2,1.1,0.4c0.2,0.1,0.4,0.3,0.6,0.4c0.5,0.7,1.1,1.4,1.6,2c0.3,0.4,0.7,0.8,1,1.1
					c0.1,0.1,0.2,0.2,0.3,0.4c0.2,0,0.5-0.1,0.7-0.2c0.7-0.5,1.3-1.1,2-1.6c0.1-0.1,0.2-0.2,0.3-0.2c0.2-0.1,0.4-0.2,0.6-0.2
					c0.3,0.1,0.7,0.1,1,0c0.3-0.1,0.5-0.2,0.8-0.3C185.3,16.6,185.5,16.2,185.4,15.8 M140.7,26.3c-0.2-1.5-0.3-2.9-0.5-4.4
					C141.1,23.2,141.3,24.8,140.7,26.3"/>
				<path class="st5" d="M164.3,33.5c0,0,0.2,0.3,0.2,0.5s0,0.2,0,0.3c0,0,0.1,0.1,0.1,0.1c0,0,0,0.1,0,0.1l0.2,0.2
					c0.2,0,0.4,0.1,0.5,0.2l0.2-0.1l0.6-0.1h0.4c-0.2-0.3-0.3-0.7-0.5-1.1c0-0.1-0.1-0.2-0.1-0.3l0,0c0-0.1,0-0.2-0.1-0.3
					c-0.1-0.3-0.1-0.6-0.1-0.9c-0.1-0.4,0-0.8,0.1-1.2l0.1-0.2l0.2-0.5c0.2-0.4,0.3-0.8,0.3-1.2c0-0.1,0.2-0.3,0.2-0.3
					c0.5,0,1-0.2,1.4-0.4c0.3-0.1,0.5-0.3,0.8-0.4l0.2-0.2c0.7-0.4,1.2-1,1.6-1.6c0.4-0.7,0.9-1.4,1.5-2c0.6-0.7,1.4-1.3,2.2-1.7
					c0.2,0,0.5-0.1,0.7-0.2c0.5-0.4,1-0.8,1.5-1.2c0.2-0.1,0.4-0.2,0.6-0.3c0,0,0.1,0,0.1,0c0.5,0.1,1,0,1.4-0.3
					c0.5-0.2,0.7-0.6,0.5-0.9c-0.1-0.1-0.2-0.3-0.3-0.4c-0.4-0.4-0.7-0.7-1-1.1c-0.5-0.7-1.1-1.4-1.6-2c-0.2-0.2-0.4-0.3-0.6-0.4
					c-0.4-0.2-0.7-0.3-1.1-0.4c-0.2-0.1-0.5-0.1-0.7,0c-0.5,0.2-1.1,0.2-1.6,0c-0.3-0.1-0.6,0-0.7,0.3c0,0.1,0,0.2,0,0.3
					c-0.3,0-0.6,0-0.9-0.1c-0.6-0.1-1.2-0.2-1.8-0.3c-0.9-0.1-1.8,0.1-2.6,0.5c-0.5,0.3-1,0.5-1.6,0.6c-1.5,0.3-3,0.7-4.5,0.9
					c-1,0.2-2,0.2-3,0.2c-1.2,0-2.3-0.2-3.5-0.3c-0.5,0-1-0.2-1.4-0.3c-0.5-0.1-1-0.2-1.5-0.2c-0.6,0-1.2,0.1-1.8,0.1
					c-0.1,0-0.3,0-0.4,0c-1,0.2-1.9,0.4-2.9,0.6c-0.4,0.1-0.8,0.2-1.3,0.3c-0.5,0.1-1,0.6-1.1,1.1c-0.4,1.2-0.5,2.4-0.5,3.6
					c0,0.5,0.1,1.1,0.2,1.6c0.3,0.9,0.2,1.8-0.1,2.7c-0.2,0.4-0.2,0.8-0.2,1.2c0.1,0.3,0.2,0.6,0.3,0.9c0.2,0.5,0.3,0.9,0.5,1.4
					c0,0,0,0,0.1,0.1l0.2-0.6c0.1-0.2,0.2-0.5,0.3-0.8c0.6,1.5,1,3,1.2,4.6c0,0.1,0,0.2,0,0.3h-0.1l0,0c0,0.3,0.1,0.5,0.2,0.8
					c0,0.1,0.1,0.1,0.2,0.2c0.2,0.2,0.5,0.3,0.7,0.3c0.4,0,0.8-0.1,1.1-0.1l0.2-0.1l0,0l0.4-0.3c-0.1-0.1-0.1-0.1-0.2-0.2l-0.2-0.2
					l0,0c-0.1-0.1-0.2-0.2-0.3-0.3l0,0c-0.2-0.1-0.4-0.3-0.5-0.5c-0.2-0.5-0.3-1-0.5-1.4c-0.1-0.2-0.1-0.4-0.2-0.6
					c-0.1-0.6,0-1.2,0.3-1.8c0.2-0.3,0.4-0.7,0.7-1c0.3-0.5,0.5-1,0.5-1.6c0-0.2,0-0.4-0.1-0.6c0.3,0.2,0.4,0.6,0.2,0.9
					c-0.1,0.5-0.3,1-0.6,1.5c-0.4,0.6-0.4,1.4-0.1,2c0.4,0.8,0.6,1.5,0.8,2.3c0,0.1,0,0.1,0.1,0.1l0,0c0.2,0.2,0.4,0.4,0.6,0.6
					c0.2,0.2,0.5,0.4,0.8,0.5c0.3,0,0.6,0,0.9,0.1c0.1,0,0.2,0,0.2-0.1l0,0c0,0,0-0.1,0-0.1c0.1-0.2-0.1-0.4-0.3-0.5
					c-0.1-0.1-0.2-0.1-0.3-0.3c-0.4-0.6-0.8-1.1-1.2-1.6c-0.3-0.5-0.4-1-0.4-1.6c0-0.4,0-0.8,0.1-1.2c0-0.3,0.2-0.6,0.5-0.7
					c0.6-0.3,1-1,0.9-1.7c0-0.3,0.1-0.5,0.4-0.5c0.6,0.1,1.1,0.2,1.7,0.3c1,0.3,1.9,0.7,2.8,1.1c0.6,0.3,1.3,0.3,1.9,0
					c0.5-0.2,1-0.4,1.4-0.5c0.3-0.1,0.6-0.1,0.9,0c1,0.1,1.9,0.2,2.9,0.4s1.7,0.6,1.7,1.7c0,0.2,0.1,0.5,0.2,0.7
					c0.3,1.1,0.3,2.3,0.2,3.5c-0.1,0.4-0.2,0.4-0.2,0.4 M144.5,27.8l-0.1-0.8v-0.4c-0.1-0.7-0.2-1.5-0.3-2.2
					c0.3,0.4,0.5,0.8,0.5,1.3c0,0.2,0.1,0.3,0.1,0.5C144.9,26.7,144.8,27.3,144.5,27.8"/>
				<path class="st5" d="M164.3,33.3c0.2-1,0.2-2,0-2.9C164,31.4,163.3,32.4,164.3,33.3C164.2,33.4,164.3,33.4,164.3,33.3"/>
				<polygon class="st6" points="11.5,70.1 7.7,70.1 7.7,66.2 7.7,66.2 7.7,70.1 11.5,70.1 				"/>
				<polygon class="st6" points="18.4,73.1 18.4,73.1 19.2,73.9 19.2,75.4 19.2,75.4 19.2,84.6 19.3,84.5 19.3,75.3 19.3,75.3 
					19.3,73.9 18.4,73 18.4,73.1 				"/>
				<polygon class="st6" points="11.5,82.7 11.5,82.7 7.7,82.7 7.7,78.8 7.7,78.8 7.7,82.7 				"/>
				<polygon class="st6" points="2,57.5 2,57.6 15.4,57.6 19.2,61.3 19.2,70.3 19.2,70.3 19.2,71.8 19.2,71.8 19.2,70.3 19.3,70.3 
					19.3,61.2 15.5,57.5 				"/>
				<path class="st3" d="M19.2,70.3v-9.1l-3.8-3.7H2l0,0l0,0v0.1l0,0v0.1l0,0v0.1l0,0l0,0l0,0v0.1l0,0v0.1l0,0v0.2l0,0l0,0l0,0v0.1
					l0,0v0.1l0,0v0.1l0,0l0,0l0,0v0.1l0,0v0.1l0,0v0.1l0,0l0,0l0,0v0.1l0,0v0.1l0,0v0.1l0,0l0,0l0,0v0.1l0,0v0.1l0,0v0.1l0,0l0,0
					l0,0v0.3l0,0l0,0l0,0v0.1l0,0v0.1l0,0v0.1l0,0v0.1l0,0v0.1l0,0v0.1l0,0v0.1l0,0v0.1l0,0v0.1l0,0v0.1l0,0v0.1l0,0l0,0l0,0v0.1
					l0,0v0.1l0,0v0.1l0,0l0,0l0,0v0.1l0,0v0.2l0,0v0.1l0,0l0,0l0,0v0.1l0,0v0.1l0,0v0.1l0,0l0,0l0,0v0.1l0,0v0.1l0,0v0.1l0,0l0,0
					l0,0v30.8h13.4l3.8-3.7l0,0l0,0l0,0l0,0l0,0l0,0l0,0l0,0l0,0l0,0l0,0l0,0l0,0l0,0l0,0l0,0l0,0l0,0l0,0l0,0l0,0l0,0l0,0l0,0l0,0
					l0,0l0,0l0,0l0,0l0,0l0,0l0,0l0,0l0,0l0,0l0,0l0,0l0,0l0,0l0,0l0,0l0,0l0,0l0,0l0,0l0,0l0,0l0,0l0,0l0,0l0,0l0,0l0,0l0,0l0,0
					l0,0l0,0l0,0l0,0l0,0l0,0l0,0l0,0l0,0l0,0l0,0l0,0l0,0l0,0l0,0l0,0l0,0l0,0l0,0l0,0l0,0l0,0l0,0l0,0l0,0l0,0l0,0l0,0l0,0l0,0
					l0,0l0,0l0,0l0,0l0,0l0,0l0,0l0,0l0,0l0,0l0,0l0,0l0,0l0,0l0,0l0,0l0,0l0,0l0,0l0,0l0,0l0,0l0,0l0,0l0,0v-9.2l0,0V77l-0.8-0.9
					l0,0l0,0l0,0l0,0l0,0l0,0l0,0l0,0l0,0l0,0l0,0l0,0l0,0l0,0l0,0l0,0l0,0l0,0l0,0l0,0l0,0l0,0l0,0l0,0l0,0l0,0l0,0l0,0l0,0l0,0
					l0,0l0,0l0,0l0,0l0,0l0,0l0,0l0,0l0,0l0,0l0,0l0,0l0,0l0,0l0,0l0,0l0,0v-1.5L19.2,70.3z M7.7,78.8h3.2l0.6,0.6v3.3H7.7L7.7,78.8
					L7.7,78.8z M7.7,66.2h3.2l0.6,0.6v3.3H7.7V66.2z"/>
				<line class="st7" x1="4.9" y1="57.5" x2="4.9" y2="85.4"/>
				<line class="st8" x1="4.9" y1="57.5" x2="4.9" y2="85.4"/>
				<polygon class="st4" points="4.9,85.4 2,88.2 2,57.6 4.9,60.4 				"/>
				<polygon class="st9" points="4.9,85.4 7.7,82.6 7.7,75.7 4.9,72.9 				"/>
				<polygon class="st9" points="4.9,72.9 7.7,70.1 7.7,63.1 4.9,60.4 				"/>
				<path class="st10" d="M4.9,60.4h9.2l-1.2,2.7H7.7L4.9,60.4"/>
				<polygon class="st11" points="4.9,60.4 14.1,60.4 15.4,57.5 2,57.5 				"/>
				<polygon class="st12" points="15.4,57.5 19.3,61.2 16.2,62.5 14.1,60.4 				"/>
				<polygon class="st5" points="12.9,63.1 14.1,60.4 16.2,62.5 13.6,63.7 				"/>
				<polygon class="st11" points="7.7,82.6 12.9,82.6 14.1,85.4 4.9,85.4 				"/>
				<polygon class="st10" points="2,88.2 4.9,85.4 14.1,85.4 15.5,88.2 				"/>
				<polygon class="st10" points="7.7,75.7 12.9,75.7 13.9,72.9 4.9,72.9 				"/>
				<polygon class="st11" points="7.7,70.1 12.9,70.1 13.9,72.9 4.9,72.9 				"/>
				<polygon class="st4" points="13.6,63.7 13.6,69.3 16.2,70.5 16.2,62.5 				"/>
				<polygon class="st9" points="19.3,61.2 16.2,62.5 16.2,70.5 19.2,71.8 				"/>
				<polygon class="st6" points="12.9,70.1 13.6,69.3 16.2,70.5 13.9,72.9 				"/>
				<polygon class="st13" points="13.9,72.9 16.2,70.5 19.2,71.8 18.2,72.8 				"/>
				<polygon class="st9" points="16.3,75.1 16.3,83.2 19.3,84.5 19.3,73.9 				"/>
				<polygon class="st6" points="12.9,82.6 13.6,82 16.3,83.2 14.1,85.4 				"/>
				<polygon class="st12" points="13.9,72.9 16.3,75.1 19.3,73.9 18.2,72.8 				"/>
				<polygon class="st5" points="12.9,75.7 13.9,72.9 16.3,75.1 13.6,76.3 				"/>
				<polygon class="st4" points="13.6,76.3 13.6,82 16.3,83.2 16.3,75.1 				"/>
				<polygon class="st13" points="16.3,83.2 14.1,85.4 15.5,88.2 19.3,84.5 				"/>
				<polygon class="st6" points="40.4,82.7 37.3,82.7 36.5,81.9 36.5,66.1 36.5,66.1 36.5,82 37.3,82.7 40.4,82.7 				"/>
				<polygon class="st6" points="34.7,57.5 30.9,61.2 30.9,61.2 34.6,57.6 44.3,57.6 48,61.3 48,84.5 48.1,84.5 48.1,61.2 
					44.3,57.5 				"/>
				<path class="st3" d="M44.3,57.6h-9.7l-3.7,3.6l0,0l0,0l0,0l0,0l0,0l0,0l0,0l0,0l0,0l0,0l0,0l0,0l0,0l0,0l0,0l0,0l0,0l0,0l0,0
					l0,0l0,0l0,0l0,0l0,0l0,0l0,0l0,0l0,0l0,0l0,0l0,0l0,0l0,0l0,0l0,0l0,0l0,0l0,0l0,0l0,0l0,0l0,0l0,0l0,0l0,0l0,0l0,0l0,0l0,0
					l0,0l0,0l0,0l0,0l0,0l0,0l0,0l0,0l0,0l0,0l0,0l0,0l0,0l0,0l0,0l0,0l0,0l0,0l0,0l0,0l0,0l0,0l0,0l0,0l0,0l0,0l0,0l0,0l0,0l0,0
					l0,0l0,0l0,0l0,0l0,0l0,0l0,0l0,0l0,0l0,0l0,0l0,0l0,0l0,0l0,0l0,0l0,0l0,0l0,0l0,0l0,0l0,0l0,0l0,0l0,0l0,0l0,0l0,0l0,0l0,0
					l0,0l0,0v23.3l3.8,3.7h9.7l3.8-3.7l0,0l0,0l0,0l0,0l0,0l0,0l0,0l0,0l0,0l0,0l0,0l0,0l0,0l0,0l0,0l0,0l0,0l0,0l0,0l0,0l0,0l0,0
					l0,0l0,0l0,0l0,0l0,0l0,0l0,0l0,0l0,0l0,0l0,0l0,0l0,0l0,0l0,0l0,0l0,0l0,0l0,0l0,0l0,0l0,0l0,0l0,0l0,0l0,0l0,0l0,0l0,0l0,0
					l0,0l0,0l0,0l0,0l0,0l0,0l0,0l0,0l0,0l0,0l0,0l0,0l0,0l0,0l0,0l0,0l0,0l0,0l0,0l0,0l0,0l0,0l0,0l0,0l0,0l0,0l0,0l0,0l0,0l0,0
					l0,0l0,0l0,0l0,0l0,0l0,0l0,0l0,0l0,0l0,0l0,0l0,0l0,0l0,0l0,0l0,0l0,0l0,0l0,0l0,0l0,0l0,0l0,0l0,0l0,0l0,0l0,0l0,0V61.3
					L44.3,57.6z M36.5,82V66.1h3.1l0.4,0.4l0.5,0.4v15.8h-3.1L36.5,82z"/>
				<polygon class="st6" points="34.7,57.5 36,60.3 33.7,62.5 30.9,61.2 				"/>
				<polygon class="st11" points="44.3,57.5 43,60.3 36,60.3 34.7,57.5 				"/>
				<polygon class="st12" points="43,60.3 44.3,57.5 48.1,61.2 45.3,62.5 				"/>
				<polygon class="st9" points="45.3,62.5 45.3,83.2 48.1,84.5 48.1,61.2 				"/>
				<polygon class="st13" points="45.3,83.2 43,85.4 44.3,88.2 48.1,84.5 				"/>
				<polygon class="st10" points="44.3,88.2 43,85.4 36,85.4 34.7,88.2 				"/>
				<polygon class="st5" points="34.7,88.2 30.9,84.5 33.7,83.2 36,85.4 				"/>
				<polygon class="st6" points="43,85.4 45.3,83.2 42.4,81.9 41.7,82.7 				"/>
				<polygon class="st12" points="36,85.4 33.7,83.2 36.5,81.9 37.3,82.6 				"/>
				<polygon class="st11" points="43,85.4 36,85.4 37.3,82.6 41.7,82.6 				"/>
				<polygon class="st4" points="30.9,84.5 30.9,61.2 33.7,62.5 33.7,83.2 				"/>
				<polygon class="st4" points="42.4,63.9 45.3,62.5 45.3,83.2 42.4,81.9 				"/>
				<polygon class="st9" points="33.7,62.5 36.5,63.9 36.5,81.9 33.7,83.2 				"/>
				<polygon class="st13" points="36.5,63.9 33.7,62.5 36,60.3 37.3,63 				"/>
				<polygon class="st10" points="37.3,63 41.6,63 43,60.3 36,60.3 				"/>
				<polygon class="st5" points="42.4,63.9 45.3,62.5 43,60.3 41.6,63 				"/>
				<polygon class="st6" points="94.3,88.2 94.4,88.2 94.4,81.4 94.3,81.3 				"/>
				<polygon class="st6" points="98.2,67.5 98.2,67.4 94.4,57.5 88.7,57.5 88.7,57.6 94.3,57.6 				"/>
				<polygon class="st6" points="100.3,57.6 105.9,57.6 105.9,88.2 105.9,88.2 105.9,57.5 100.3,57.5 				"/>
				<polygon class="st3" points="100.3,57.6 100.2,57.6 100.2,57.7 100.2,57.7 100.2,57.7 100.2,57.7 100.2,57.8 100.1,57.8 
					100.1,57.8 100.1,57.8 100.1,57.9 100.1,57.9 100.1,57.9 100,57.9 100,58 100,58 100,58 99.9,58 99.9,58.1 99.9,58.1 99.9,58.2 
					99.9,58.2 99.9,58.2 99.8,58.2 99.8,58.3 99.8,58.3 99.8,58.3 99.8,58.3 99.8,58.4 99.7,58.4 99.7,58.4 99.7,58.4 99.7,58.5 
					99.7,58.5 99.7,58.5 99.6,58.5 99.6,58.6 99.6,58.6 99.6,58.7 99.5,58.7 99.5,58.7 99.5,58.7 99.5,58.8 99.5,58.8 99.5,58.8 
					99.4,58.8 99.4,58.9 99.4,58.9 99.4,58.9 99.3,58.9 99.3,59 99.3,59 99.3,59 99.3,59 99.3,59.1 99.2,59.1 99.2,59.2 99.2,59.2 
					99.2,59.2 99.2,59.2 99.2,59.3 99.1,59.3 99.1,59.3 99.1,59.3 99.1,59.4 99.1,59.4 99.1,59.4 99,59.4 99,59.5 99,59.5 99,59.5 
					98.9,59.5 98.9,59.6 98.9,59.6 98.9,59.6 98.9,59.6 98.9,59.7 98.8,59.7 98.8,59.8 98.8,59.8 98.8,59.8 98.8,59.8 98.8,59.9 
					98.7,59.9 98.7,59.9 98.7,59.9 98.7,60 98.7,60 98.7,60 98.6,60 98.6,60.1 98.6,60.1 98.6,60.1 98.6,60.1 98.6,60.2 98.5,60.2 
					98.5,60.3 98.5,60.3 98.5,60.3 98.4,60.3 98.4,60.4 98.4,60.4 98.4,60.4 98.4,60.4 98.4,60.5 98.3,60.5 98.3,60.5 98.3,60.5 
					98.3,60.6 98.3,60.6 98.3,60.6 98.2,60.6 98.2,67.4 98.2,67.5 94.3,57.6 88.7,57.6 88.7,57.6 88.7,57.7 88.7,57.7 88.7,57.7 
					88.6,57.7 88.6,57.8 88.6,57.8 88.6,57.8 88.6,57.8 88.6,57.9 88.5,57.9 88.5,57.9 88.5,57.9 88.5,58 88.4,58 88.4,58 88.4,58 
					88.4,58.1 88.4,58.1 88.4,58.2 88.3,58.2 88.3,58.2 88.3,58.2 88.3,58.3 88.3,58.3 88.3,58.3 88.2,58.3 88.2,58.4 88.2,58.4 
					88.2,58.4 88.1,58.4 88.1,58.5 88.1,58.5 88.1,58.5 88.1,58.5 88.1,58.6 88,58.6 88,58.7 88,58.7 88,58.7 88,58.7 88,58.8 
					87.9,58.8 87.9,58.8 87.9,58.8 87.9,58.9 87.8,58.9 87.8,58.9 87.8,58.9 87.8,59 87.8,59 87.8,59 87.7,59 87.7,59.1 87.7,59.1 
					87.7,59.2 87.7,59.2 87.7,59.2 87.6,59.2 87.6,59.3 87.6,59.3 87.6,59.3 87.6,59.3 87.6,59.4 87.5,59.4 87.5,59.4 87.5,59.4 
					87.5,59.5 87.4,59.5 87.4,59.5 87.4,59.5 87.4,59.6 87.4,59.6 87.4,59.6 87.3,59.6 87.3,59.7 87.3,59.7 87.3,59.8 87.3,59.8 
					87.3,59.8 87.2,59.8 87.2,59.9 87.2,59.9 87.2,59.9 87.2,59.9 87.2,60 87.1,60 87.1,60 87.1,60 87.1,60.1 87,60.1 87,60.1 
					87,60.1 87,60.2 87,60.2 87,60.3 86.9,60.3 86.9,60.3 86.9,60.3 86.9,60.4 86.9,60.4 86.9,60.4 86.8,60.4 86.8,60.5 86.8,60.5 
					86.8,60.5 86.8,60.5 86.8,60.6 86.7,60.6 86.7,60.6 86.7,60.6 86.7,91.3 92.3,91.3 92.3,91.2 92.4,91.2 92.4,91.2 92.4,91.2 
					92.4,91.1 92.4,91.1 92.4,91.1 92.5,91.1 92.5,91 92.5,91 92.5,90.9 92.6,90.9 92.6,90.9 92.6,90.9 92.6,90.8 92.6,90.8 
					92.6,90.8 92.7,90.8 92.7,90.7 92.7,90.7 92.7,90.7 92.7,90.7 92.7,90.6 92.8,90.6 92.8,90.6 92.8,90.6 92.8,90.5 92.8,90.5 
					92.8,90.5 92.9,90.5 92.9,90.4 92.9,90.4 92.9,90.3 93,90.3 93,90.3 93,90.3 93,90.2 93,90.2 93,90.2 93.1,90.2 93.1,90.1 
					93.1,90.1 93.1,90.1 93.1,90.1 93.1,90 93.2,90 93.2,90 93.2,90 93.2,89.9 93.3,89.9 93.3,89.9 93.3,89.9 93.3,89.8 93.3,89.8 
					93.3,89.8 93.4,89.8 93.4,89.7 93.4,89.7 93.4,89.6 93.4,89.6 93.4,89.6 93.5,89.6 93.5,89.5 93.5,89.5 93.5,89.5 93.5,89.5 
					93.5,89.4 93.6,89.4 93.6,89.4 93.6,89.4 93.6,89.3 93.7,89.3 93.7,89.3 93.7,89.3 93.7,89.2 93.7,89.2 93.7,89.1 93.8,89.1 
					93.8,89.1 93.8,89.1 93.8,89 93.8,89 93.8,89 93.9,89 93.9,88.9 93.9,88.9 93.9,88.9 93.9,88.9 93.9,88.8 94,88.8 94,88.8 
					94,88.8 94,88.7 94.1,88.7 94.1,88.6 94.1,88.6 94.1,88.6 94.1,88.6 94.1,88.5 94.2,88.5 94.2,88.5 94.2,88.5 94.2,88.4 
					94.2,88.4 94.2,88.4 94.3,88.4 94.3,88.3 94.3,88.3 94.3,88.3 94.3,88.3 94.3,88.2 94.3,81.3 94.4,81.4 98.3,91.3 103.9,91.3 
					103.9,91.2 103.9,91.2 103.9,91.2 103.9,91.2 103.9,91.1 104,91.1 104,91.1 104,91.1 104,91 104.1,91 104.1,90.9 104.1,90.9 
					104.1,90.9 104.1,90.9 104.1,90.8 104.2,90.8 104.2,90.8 104.2,90.8 104.2,90.7 104.2,90.7 104.2,90.7 104.3,90.7 104.3,90.6 
					104.3,90.6 104.3,90.6 104.3,90.6 104.3,90.5 104.4,90.5 104.4,90.5 104.4,90.5 104.4,90.4 104.5,90.4 104.5,90.3 104.5,90.3 
					104.5,90.3 104.5,90.3 104.5,90.2 104.6,90.2 104.6,90.2 104.6,90.2 104.6,90.1 104.6,90.1 104.6,90.1 104.7,90.1 104.7,90 
					104.7,90 104.7,90 104.8,90 104.8,89.9 104.8,89.9 104.8,89.9 104.8,89.9 104.8,89.8 104.9,89.8 104.9,89.8 104.9,89.8 
					104.9,89.7 104.9,89.7 104.9,89.6 105,89.6 105,89.6 105,89.6 105,89.5 105.1,89.5 105.1,89.5 105.1,89.5 105.1,89.4 
					105.1,89.4 105.1,89.4 105.2,89.4 105.2,89.3 105.2,89.3 105.2,89.3 105.2,89.3 105.2,89.2 105.3,89.2 105.3,89.1 105.3,89.1 
					105.3,89.1 105.3,89.1 105.3,89 105.4,89 105.4,89 105.4,89 105.4,88.9 105.4,88.9 105.4,88.9 105.5,88.9 105.5,88.8 
					105.5,88.8 105.5,88.8 105.6,88.8 105.6,88.7 105.6,88.7 105.6,88.6 105.6,88.6 105.6,88.6 105.7,88.6 105.7,88.5 105.7,88.5 
					105.7,88.5 105.8,88.5 105.8,88.4 105.8,88.4 105.8,88.4 105.8,88.4 105.8,88.3 105.9,88.3 105.9,88.3 105.9,88.3 105.9,88.2 
					105.9,57.6 				"/>
				<polygon class="st4" points="88.7,88.2 88.7,57.5 91.6,60.3 91.6,85.4 				"/>
				<polygon class="st10" points="88.7,88.2 94.4,88.2 91.6,85.4 				"/>
				<polygon class="st11" points="91.6,60.3 94.4,57.5 88.7,57.5 				"/>
				<polygon class="st9" points="91.6,85.4 91.6,60.3 94.4,73.1 94.4,88.2 				"/>
				<polygon class="st9" points="94.4,57.5 100.3,72.6 103.1,85.4 91.6,60.3 				"/>
				<polygon class="st4" points="100.3,88.2 103.1,85.4 91.6,60.3 94.4,73.1 				"/>
				<polygon class="st11" points="100.3,57.5 105.9,57.5 103.1,60.3 				"/>
				<polygon class="st4" points="103.1,85.4 103.1,60.3 100.3,57.5 100.3,72.6 				"/>
				<polygon class="st10" points="100.3,88.2 105.9,88.2 103.1,85.4 				"/>
				<path class="st9" d="M103.1,60.3l2.8-2.8v30.7l-2.8-2.8L103.1,60.3"/>
				<polygon class="st6" points="73.6,76.3 73.5,76.3 79.4,88.2 79.5,88.2 				"/>
				<polygon class="st6" points="65.4,88.2 65.4,88.2 65.4,79.7 65.4,79.6 				"/>
				<polygon class="st6" points="69.2,70.1 65.4,70.1 65.4,66.2 65.4,66.2 65.4,70.1 69.2,70.1 				"/>
				<polygon class="st6" points="76.9,61.3 76.9,71.9 77,71.9 77,61.2 73.2,57.5 59.8,57.5 59.8,57.6 73.2,57.6 				"/>
				<path class="st3" d="M73.6,76.3l1.4-1.3l0,0l0,0l0,0l0,0l0,0l0,0l0,0l0,0l0,0l0,0l0,0l0,0l0,0l0,0l0,0l0,0l0,0l0,0l0,0l0,0l0,0
					l0,0l0,0l0,0l0,0l0,0l0,0l0,0l0,0l0,0l0,0l0,0l0,0l0,0l0,0l0,0l0,0l0,0l0,0l0,0l0,0l0,0l0,0l0,0l0,0l0,0l0,0l0,0l0,0l0,0l0,0
					l0,0l0,0l0,0l0,0l0,0l0,0l0,0l0,0l0,0l0,0l0,0l0,0l0,0l0,0l0,0l0,0l0,0l0,0l0,0l0,0l0,0l0,0l0,0l0,0l0,0l0,0l0,0l0,0l0,0l0,0
					l0,0l0,0l0,0l0,0l0,0l0,0l0,0l0,0l0,0l0,0l0,0l0,0l0,0l0,0l0,0l0,0l0,0l0,0l0,0l0,0l0,0l0,0l0,0l0,0l0,0l0,0l0,0l0,0l0,0V61.3
					l-3.8-3.7H59.7l0,0l0,0v0.1l0,0v0.1l0,0v0.1l0,0l0,0l0,0v0.1l0,0v0.1l0,0v0.2l0,0l0,0l0,0v0.1l0,0v0.1l0,0v0.1l0,0l0,0l0,0v0.1
					l0,0v0.1l0,0v0.1l0,0l0,0l0,0v0.1l0,0v0.1l0,0v0.1l0,0l0,0l0,0v0.1l0,0v0.1l0,0v0.1l0,0l0,0l0,0v0.3l0,0l0,0l0,0v0.1l0,0v0.1
					l0,0v0.1l0,0v0.1l0,0v0.1l0,0v0.1l0,0v0.1l0,0v0.1l0,0v0.1l0,0v0.1l0,0v0.1l0,0l0,0l0,0v0.1l0,0v0.1l0,0v0.1l0,0l0,0l0,0v0.1
					l0,0v0.2l0,0v0.1l0,0l0,0l0,0v0.1l0,0v0.1l0,0v0.1l0,0l0,0l0,0v0.1l0,0v0.1l0,0v0.1l0,0l0,0l0,0v30.8h5.7v-0.1l0,0l0,0l0,0v-0.1
					l0,0l0,0l0,0V91l0,0l0,0l0,0V91l0,0v-0.1l0,0v-0.1l0,0l0,0l0,0v-0.1l0,0v-0.1l0,0v-0.1l0,0l0,0l0,0v-0.1l0,0v-0.1l0,0v-0.1l0,0
					l0,0l0,0v-0.1l0,0v-0.1l0,0v-0.3l0,0l0,0l0,0V90l0,0V90l0,0v-0.1l0,0l0,0l0,0v-0.1l0,0v-0.1l0,0v-0.1l0,0l0,0l0,0v-0.1l0,0v-0.1
					l0,0v-0.1l0,0l0,0l0,0v-0.1l0,0v-0.1l0,0v-0.1l0,0l0,0l0,0v-0.1l0,0v-0.3l0,0V89l0,0V89l0,0v-0.1l0,0v-0.1l0,0v-0.1l0,0v-0.1
					l0,0v-0.1l0,0v-0.1l0,0v-0.1l0,0v-0.1l0,0v-0.1l0,0l0,0l0,0v-0.1l0,0v-0.1l0,0v-0.1l0,0v-8.6v0.1l5.7,11.6h6.3v-0.1h0.1l0,0h0.1
					v-0.1h0.1v-0.1h0.1v-0.1h0.1l0,0h0.1v-0.1h0.1V91h0.1v-0.1H78l0,0H78v-0.1h0.1v-0.1h0.1v-0.1h0.1l0,0h0.1v-0.1H78v-0.1l0,0v-0.1
					h0.1l0,0h0.1v-0.1h0.1v-0.1h0.1v-0.1h0.1l0,0h0.1v-0.1h0.1v-0.1h0.1v-0.1h0.1l0,0h0.1v-0.1h0.1v-0.1h0.1v-0.1h0.1l0,0h0.1V90H79
					V90h0.1v-0.1h0.1l0,0h0.1v-0.1h0.1v-0.1h0.1v-0.1h0.1l0,0h0.1v-0.1h0.1v-0.1h0.1v-0.1h0.1v-0.1H79v-0.1l0,0v-0.1l0,0v-0.1h0.1
					v-0.1h0.1v-0.1h0.1v-0.1h0.1v-0.1h0.1v-0.1h0.1V89h0.1l0,0h0.1V89h0.1v-0.1h0.1v-0.1h0.1l0,0L73.9,77L73.6,76.3z M65.4,66.2h3.2
					l0.6,0.6v3.3h-3.8V66.2z"/>
				<polygon class="st4" points="62.6,60.3 59.8,57.5 59.8,88.2 62.6,85.4 				"/>
				<polygon class="st11" points="59.8,57.5 73.2,57.5 71.9,60.3 62.6,60.3 				"/>
				<polygon class="st12" points="71.9,60.3 74.1,62.5 77,61.2 73.2,57.5 				"/>
				<polygon class="st10" points="62.6,60.3 65.4,63.1 70.6,63.1 71.9,60.3 				"/>
				<polygon class="st5" points="71.3,63.7 74.1,62.5 71.9,60.3 70.6,63.1 				"/>
				<polygon class="st9" points="77,61.2 77,71.9 74.1,70.6 74.1,62.5 				"/>
				<polygon class="st4" points="74.1,62.5 74.1,70.6 71.3,69.3 71.3,63.7 				"/>
				<polygon class="st13" points="74.1,70.6 71.9,72.8 73.2,75.6 77,71.9 				"/>
				<polygon class="st9" points="65.4,70.1 65.4,63.1 62.6,60.3 62.6,72.8 				"/>
				<polygon class="st11" points="70.6,70.1 65.4,70.1 62.6,72.8 71.9,72.8 				"/>
				<polygon class="st9" points="62.6,72.8 65.4,75.6 65.4,88.2 62.6,85.4 				"/>
				<polygon class="st10" points="62.6,72.8 68.8,72.8 67,75.6 65.4,75.6 				"/>
				<polygon class="st11" points="68.8,72.8 67,75.6 73.2,88.2 75,85.4 				"/>
				<polygon class="st10" points="68.8,72.8 71.9,72.8 73.2,75.6 				"/>
				<polygon class="st9" points="68.8,72.8 75,85.4 79.5,88.2 73.2,75.6 				"/>
				<polygon class="st10" points="62.6,85.4 59.8,88.2 65.4,88.2 				"/>
				<polygon class="st10" points="73.2,88.2 75,85.4 79.5,88.2 				"/>
				<polygon class="st6" points="71.3,69.3 74.1,70.6 71.9,72.8 70.6,70.1 				"/>
				<polygon class="st6" points="189.7,76.3 189.6,76.3 195.5,88.2 195.6,88.2 				"/>
				<polygon class="st6" points="193.1,61.3 193.1,71.9 193.1,71.9 193.1,61.2 189.3,57.5 175.9,57.5 175.9,57.6 189.3,57.6 				"/>
				<polygon class="st6" points="181.6,70.1 181.6,66.2 181.5,66.2 181.5,70.1 185.3,70.1 185.3,70.1 				"/>
				<polygon class="st6" points="181.5,88.2 181.6,88.2 181.6,79.7 181.5,79.6 				"/>
				<path class="st3" d="M189.7,76.3L191,75l0,0l0,0l0,0l0,0l0,0l0,0l0,0l0,0l0,0l0,0l0,0l0,0l0,0l0,0l0,0l0,0l0,0l0,0l0,0l0,0l0,0
					l0,0l0,0l0,0l0,0l0,0l0,0l0,0l0,0l0,0l0,0l0,0l0,0l0,0l0,0l0,0l0,0l0,0l0,0l0,0l0,0l0,0l0,0l0,0l0,0l0,0l0,0l0,0l0,0l0,0l0,0
					l0,0l0,0l0,0l0,0l0,0l0,0l0,0l0,0l0,0l0,0l0,0l0,0l0,0l0,0l0,0l0,0l0,0l0,0l0,0l0,0l0,0l0,0l0,0l0,0l0,0l0,0l0,0l0,0l0,0l0,0
					l0,0l0,0l0,0l0,0l0,0l0,0l0,0l0,0l0,0l0,0l0,0l0,0l0,0l0,0l0,0l0,0l0,0l0,0l0,0l0,0l0,0l0,0l0,0l0,0l0,0l0,0l0,0l0,0l0,0V61.3
					l-3.8-3.7h-11.4l0,0l0,0v0.1l0,0v0.1l0,0v0.1l0,0l0,0l0,0v0.1l0,0v0.1l0,0v0.2l0,0l0,0l0,0v0.1l0,0v0.1l0,0v0.1l0,0l0,0l0,0v0.1
					l0,0v0.1l0,0v0.1l0,0l0,0l0,0v0.1l0,0v0.1l0,0v0.1l0,0l0,0l0,0v0.1l0,0v0.1l0,0v0.1l0,0l0,0l0,0v0.3l0,0l0,0l0,0v0.1l0,0v0.1
					l0,0v0.1l0,0v0.1l0,0v0.1l0,0v0.1l0,0v0.1l0,0v0.1l0,0v0.1l0,0v0.1l0,0v0.1l0,0l0,0l0,0v0.1l0,0v0.1l0,0v0.1l0,0l0,0l0,0v0.1
					l0,0v0.2l0,0v0.1l0,0l0,0l0,0v0.1l0,0v0.1l0,0v0.1l0,0l0,0l0,0v0.1l0,0v0.1l0,0v0.1l0,0l0,0l0,0v30.8h5.7v-0.1l0,0l0,0l0,0v-0.1
					l0,0l0,0l0,0V91l0,0l0,0l0,0V91l0,0v-0.1l0,0v-0.1l0,0l0,0l0,0v-0.1l0,0v-0.1l0,0v-0.1l0,0l0,0l0,0v-0.1l0,0v-0.1l0,0v-0.1l0,0
					l0,0l0,0v-0.1l0,0v-0.1l0,0v-0.3l0,0l0,0l0,0V90l0,0V90l0,0v-0.1l0,0l0,0l0,0v-0.1l0,0v-0.1l0,0v-0.1l0,0l0,0l0,0v-0.1l0,0v-0.1
					l0,0v-0.1l0,0l0,0l0,0v-0.1l0,0v-0.1l0,0v-0.1l0,0l0,0l0,0v-0.1l0,0v-0.3l0,0V89l0,0V89l0,0v-0.1l0,0v-0.1l0,0v-0.1l0,0v-0.1
					l0,0v-0.1l0,0v-0.1l0,0v-0.1l0,0v-0.1l0,0v-0.1l0,0l0,0l0,0v-0.1l0,0v-0.1l0,0v-0.1l0,0v-8.6v0.1l5.7,11.6h6.3v-0.1h0.1l0,0h0.1
					v-0.1h0.1v-0.1h0.1v-0.1h0.1l0,0h0.1v-0.1h0.1V91h0.1v-0.1h0.1l0,0h0.1v-0.1h0.1v-0.1H194v-0.1l0,0l0,0h0.1v-0.1h0.1v-0.1h0.1
					v-0.1h0.1l0,0h0.1v-0.1h0.1v-0.1h0.1v-0.1h0.1l0,0h0.1v-0.1h0.1v-0.1h0.1v-0.1h0.1l0,0h0.1v-0.1h0.1v-0.1h0.1v-0.1h0.1l0,0h0.1
					V90h0.1V90h0.1v-0.1h0.1l0,0h0.1v-0.1h0.1v-0.1h0.1v-0.1h0.1l0,0h0.1v-0.1H195v-0.1l0,0v-0.1l0,0v-0.1h0.1v-0.1h0.1v-0.1h0.1
					v-0.1h0.1v-0.1h0.1v-0.1h0.1v-0.1h0.1v-0.1h0.1v-0.1h0.1V89h0.1l0,0h0.1V89h0.1v-0.1h0.1v-0.1h0.1l0,0L190,77L189.7,76.3z
					 M181.5,70.1v-4h3.1l0.7,0.6v3.4H181.5z"/>
				<polygon class="st4" points="178.7,60.3 175.9,57.5 175.9,88.2 178.7,85.4 				"/>
				<polygon class="st11" points="175.9,57.5 189.4,57.5 188,60.3 178.7,60.3 				"/>
				<polygon class="st12" points="188,60.3 190.2,62.5 193.1,61.2 189.4,57.5 				"/>
				<polygon class="st10" points="178.7,60.3 181.6,63.1 186.8,63.1 188,60.3 				"/>
				<polygon class="st5" points="187.4,63.7 190.2,62.5 188,60.3 186.8,63.1 				"/>
				<polygon class="st9" points="193.1,61.2 193.1,71.9 190.2,70.6 190.2,62.5 				"/>
				<polygon class="st4" points="190.2,62.5 190.2,70.6 187.4,69.3 187.4,63.7 				"/>
				<polygon class="st13" points="190.2,70.6 188,72.8 189.4,75.6 193.1,71.9 				"/>
				<polygon class="st9" points="181.6,70.1 181.6,63.1 178.7,60.3 178.7,72.8 				"/>
				<polygon class="st11" points="186.7,70.1 181.6,70.1 178.7,72.8 188,72.8 				"/>
				<polygon class="st9" points="178.7,72.8 181.6,75.6 181.6,88.2 178.7,85.4 				"/>
				<polygon class="st10" points="178.7,72.8 184.9,72.8 183.1,75.6 181.6,75.6 				"/>
				<polygon class="st11" points="184.9,72.8 183.1,75.6 189.4,88.2 191.2,85.4 				"/>
				<polygon class="st10" points="184.9,72.8 188,72.8 189.4,75.6 				"/>
				<polygon class="st9" points="184.9,72.8 191.2,85.4 195.6,88.2 189.4,75.6 				"/>
				<polygon class="st10" points="178.7,85.4 175.9,88.2 181.6,88.2 				"/>
				<polygon class="st10" points="189.4,88.2 191.2,85.4 195.6,88.2 				"/>
				<polygon class="st6" points="187.4,69.3 190.2,70.6 188,72.8 186.7,70.1 				"/>
				<polygon class="st6" points="136.2,82.4 135.6,81.9 135.6,78.7 135.6,78.7 135.6,81.9 136.1,82.5 139.6,82.5 139.6,82.4 				"/>
				<polygon class="st6" points="143.3,57.6 147,61.3 147,66.3 147.1,66.3 147.1,61.2 143.4,57.5 133.4,57.5 129.8,61.2 129.8,61.2 
					133.4,57.6 				"/>
				<polygon class="st6" points="135.6,69.3 135.6,66.1 135.6,66.1 135.6,69.3 136.2,69.9 150,69.9 150,75.6 150,75.6 150,69.9 
					136.3,69.9 				"/>
				<polygon class="st6" points="147.4,84.4 147.4,84.4 147.4,78.7 147.4,78.7 				"/>
				<path class="st3" d="M136.2,69.9l-0.6-0.6v-3.2h3.2l0.6,0.6v0.8l0,0v1.9h5.6v-0.1l0,0v-0.1l0,0v-0.1l0,0v-0.1l0,0v-0.1l0,0v-0.1
					l0,0l0,0l0,0V69l0,0l0,0l0,0V69l0,0v-0.1l0,0v-0.1l0,0l0,0l0,0v-0.1l0,0v-0.1l0,0v-0.1l0,0l0,0l0,0v-0.1l0,0v-0.1l0,0v-0.1l0,0
					l0,0l0,0v-0.1l0,0v-0.1l0,0v-0.3l0,0l0,0l0,0V68l0,0V68l0,0v-0.1l0,0l0,0l0,0v-0.1l0,0v-0.1l0,0v-0.1l0,0l0,0l0,0v-0.1l0,0v-0.1
					l0,0v-0.1l0,0l0,0l0,0v-0.1l0,0v-0.1l0,0v-0.1l0,0l0,0l0,0v-0.3l0,0l0,0l0,0V67l0,0l0,0l0,0V67l0,0v-0.1l0,0v-0.1l0,0v-0.1l0,0
					v-0.1l0,0v-0.1l0,0v-0.1l0,0v-0.1l0,0v-0.1l0,0v-0.1l0,0v-5.1l-3.7-3.7h-9.9l-3.7,3.6l0,0l0,0l0,0l0,0l0,0l0,0l0,0l0,0l0,0l0,0
					l0,0l0,0l0,0l0,0l0,0l0,0l0,0l0,0l0,0l0,0l0,0l0,0l0,0l0,0l0,0l0,0l0,0l0,0l0,0l0,0l0,0l0,0l0,0l0,0l0,0l0,0l0,0l0,0l0,0l0,0
					l0,0l0,0l0,0l0,0l0,0l0,0l0,0l0,0l0,0l0,0l0,0l0,0l0,0l0,0l0,0l0,0l0,0l0,0l0,0l0,0l0,0l0,0l0,0l0,0l0,0l0,0l0,0l0,0l0,0l0,0
					l0,0l0,0l0,0l0,0l0,0l0,0l0,0l0,0l0,0l0,0l0,0l0,0l0,0l0,0l0,0l0,0l0,0l0,0l0,0l0,0l0,0l0,0l0,0l0,0l0,0l0,0l0,0l0,0l0,0l0,0
					l0,0l0,0l0,0l0,0l0,0l0,0l0,0l0,0l0,0l0,0l0,0v9.1l2,2l0,0l0,0l0,0l0,0l0,0l0,0l0,0l0,0l0,0l0,0l0,0l0,0l0,0l0,0l0,0l0,0l0,0
					l0,0l0,0l0,0l0,0l0,0l0,0l0,0l0,0l0,0l0,0l0,0l0,0l0,0l0,0l0,0l0,0l0,0l0,0l0,0l0,0l0,0l0,0l0,0l0,0l0,0l0,0l0,0l0,0l0,0l0,0
					l0,0l0,0l0,0l0,0l0,0l0,0l0,0l0,0l0,0l0,0l0,0l0,0l0,0l0,0l0,0l0,0l0,0l0,0l0,0l0,0l0,0l0,0l0,0l0,0l0,0l0,0l0,0l0,0l0,0l0,0
					l0,0l0,0l0,0l0,0l0,0l0,0l0,0l0,0l0,0l0,0l0,0l0,0l0,0l0,0l0,0l0,0l0,0l0,0l0,0l0,0l0,0l0,0l0,0l0,0l0,0l0,0l0,0l0,0l0,0l0,0
					l0,0l0,0l0,0l0,0v9.2l3.9,3.8h9.9l3.9-3.9l0,0l0,0l0,0l0,0l0,0l0,0l0,0l0,0l0,0l0,0l0,0l0,0l0,0l0,0l0,0l0,0l0,0l0,0l0,0l0,0
					l0,0l0,0l0,0l0,0l0,0l0,0l0,0l0,0l0,0l0,0l0,0l0,0l0,0l0,0l0,0l0,0l0,0l0,0l0,0l0,0l0,0l0,0l0,0l0,0l0,0l0,0l0,0l0,0l0,0l0,0
					l0,0l0,0l0,0l0,0l0,0l0,0l0,0l0,0l0,0l0,0l0,0l0,0l0,0l0,0l0,0l0,0l0,0l0,0l0,0l0,0l0,0l0,0l0,0l0,0l0,0l0,0l0,0l0,0l0,0l0,0
					l0,0l0,0l0,0l0,0l0,0l0,0l0,0l0,0l0,0l0,0l0,0l0,0l0,0l0,0l0,0l0,0l0,0l0,0l0,0l0,0l0,0l0,0l0,0l0,0l0,0l0,0l0,0l0,0l0,0l0,0
					l0,0v-2.7h0.6l0,0l0,0v-0.1l0,0v-0.1l0,0v-0.1l0,0l0,0l0,0v-0.1l0,0v-0.1l0,0v-0.1l0,0l0,0l0,0v-0.1l0,0v-0.2l0,0V78l0,0V78l0,0
					v-0.1l0,0v-0.1l0,0v-0.1l0,0v-0.1l0,0v-0.1l0,0v-0.1l0,0v-0.1l0,0v-0.1l0,0v-0.1l0,0l0,0l0,0v-0.1l0,0v-0.1l0,0v-0.1l0,0l0,0
					l0,0v-0.1l0,0v-0.2l0,0l0,0l0,0l0,0l0,0V77l0,0V77l0,0v-0.1l0,0l0,0l0,0v-0.1l0,0v-0.1l0,0v-0.1l0,0l0,0l0,0v-0.1l0,0v-0.1l0,0
					v-0.1l0,0l0,0l0,0v-0.1l0,0v-0.1l0,0v-0.1l0,0l0,0l0,0v-0.3l0,0V76l0,0V76l0,0l0,0l0,0v-0.1l0,0v-0.1l0,0v-0.1l0,0l0,0l0,0v-5.7
					L136.2,69.9z M136.1,82.5l-0.5-0.5v-3.3h4v3.8H136.1z"/>
				<polygon class="st14" points="129.7,69.6 129.7,71.5 130.9,72.7 129.7,74 129.7,76 133.4,73.8 133.5,71.1 131.3,69.8 				"/>
				<polygon class="st11" points="142.1,60.1 134.7,60.1 133.4,57.5 143.4,57.5 				"/>
				<polygon class="st6" points="133.4,57.5 134.7,60.1 132.6,62.3 129.7,61.2 				"/>
				<polygon class="st13" points="134.7,60.1 136.1,63.1 135.6,63.6 132.6,62.3 				"/>
				<polygon class="st4" points="129.7,61.2 132.6,62.3 132.6,70.4 129.7,71.5 				"/>
				<polygon class="st9" points="135.6,63.6 135.6,69.3 132.6,70.4 132.6,62.3 				"/>
				<polygon class="st12" points="132.6,70.4 135.6,69.3 136.3,69.9 135,72.7 				"/>
				<polygon class="st5" points="129.7,71.5 130.9,72.7 135,72.7 132.6,70.4 				"/>
				<polygon class="st11" points="136.3,69.9 150,69.9 147.3,72.7 135,72.7 				"/>
				<polygon class="st6" points="130.9,72.7 135,72.7 132.7,75.1 129.7,74 				"/>
				<polygon class="st4" points="129.7,74 129.8,84.4 132.7,83.2 132.7,75.1 				"/>
				<polygon class="st13" points="132.7,75.1 135.6,76.2 136.3,75.6 135,72.7 				"/>
				<polygon class="st9" points="135.6,76.2 135.6,81.9 132.7,83.2 132.7,75.1 				"/>
				<polygon class="st12" points="136.2,82.4 134.8,85.4 132.7,83.2 135.6,81.9 				"/>
				<polygon class="st5" points="129.8,84.4 133.6,88.2 134.8,85.4 132.7,83.2 				"/>
				<polygon class="st10" points="135,72.7 144.6,72.7 141.6,75.6 136.3,75.6 				"/>
				<polygon class="st11" points="136.2,82.4 141.1,82.4 142.3,85.4 134.8,85.4 				"/>
				<polygon class="st4" points="141.6,75.6 141.6,81.8 144.6,83.1 144.6,72.7 				"/>
				<polygon class="st6" points="141.1,82.4 141.6,81.8 144.6,83.1 142.3,85.4 				"/>
				<polygon class="st10" points="133.6,88.2 134.8,85.4 142.3,85.4 143.5,88.2 				"/>
				<polygon class="st13" points="144.6,83.1 147.4,84.4 143.5,88.2 142.3,85.4 				"/>
				<polygon class="st9" points="144.6,72.7 144.6,83.1 147.4,84.4 147.4,75.6 				"/>
				<polygon class="st10" points="147.4,75.6 150,75.6 147.3,72.7 144.6,72.7 				"/>
				<polygon class="st9" points="150,69.9 147.3,72.7 150,75.6 				"/>
				<polygon class="st10" points="134.7,60.1 142.1,60.1 140.8,63.1 136.1,63.1 				"/>
				<polygon class="st5" points="140.8,63.1 141.4,63.7 144.4,62.4 142.1,60.1 				"/>
				<polygon class="st4" points="141.4,66.3 141.4,63.7 144.4,62.4 				"/>
				<polygon class="st10" points="147.1,66.3 141.4,66.3 144.4,62.4 				"/>
				<polygon class="st12" points="143.4,57.5 142.1,60.1 144.4,62.4 147.1,61.2 				"/>
				<polygon class="st9" points="147.1,66.3 147.1,61.2 144.4,62.4 				"/>
				<polygon class="st6" points="217.5,57.5 211.7,57.5 211.7,57.6 217.5,57.6 223.3,88.2 223.3,88.2 				"/>
				<polygon class="st6" points="211.8,88.2 211.8,88.2 211.8,87.9 211.8,87.9 				"/>
				<path class="st3" d="M211.7,57.6L211.7,57.6L211.7,57.6L211.7,57.6L211.7,57.6L211.7,57.6v0.1l0,0v0.1l0,0l0,0l0,0v0.1l0,0v0.1
					l0,0v0.2l0,0l0,0l0,0v0.1l0,0v0.1l0,0v0.1l0,0l0,0l0,0v0.1l0,0v0.1l0,0v0.1l0,0l0,0l0,0v0.1l0,0v0.1l0,0v0.1l0,0l0,0l0,0v0.1
					l0,0v0.1l0,0v0.1l0,0l0,0l0,0v0.3l0,0l0,0l0,0v0.1l0,0v0.1l0,0v0.1l0,0v0.1l0,0v0.1l0,0v0.1l0,0v0.1l0,0v0.1l0,0v0.1l0,0v0.1
					l0,0v0.1l0,0l0,0l0,0v0.1l0,0v0.1l0,0v0.1l0,0l0,0l0,0v0.1l0,0v0.2l0,0v0.1l0,0l0,0l0,0v0.1l0,0v0.1l0,0v0.1l0,0l0,0l0,0v0.1
					l0,0v0.1l0,0v0.1l0,0l0,0l0,0l-7.9,30.8h5.9v-0.1l0,0l0,0l0,0v-0.1l0,0l0,0l0,0V91l0,0l0,0l0,0V91l0,0v-0.1l0,0v-0.1l0,0l0,0
					l0,0v-0.1l0,0v-0.1l0,0v-0.1l0,0l0,0l0,0v-0.1l0,0v-0.1l0,0v-0.1l0,0l0,0l0,0v-0.1l0,0v-0.1l0,0v-0.3l0,0l0,0l0,0V90l0,0V90l0,0
					v-0.1l0,0l0,0l0,0v-0.1l0,0v-0.1l0,0v-0.1l0,0l0,0l0,0v-0.1l0,0v-0.1l0,0v-0.1l0,0l0,0l0,0v-0.1l0,0v-0.1l0,0v-0.1l0,0l0,0l0,0
					v-0.1l0,0v-0.3l0,0V89l0,0V89l0,0v-0.1l0,0v-0.1l0,0v-0.1l0,0v-0.1l0,0v-0.1l0,0v-0.1l0,0v-0.1l0,0v-0.1l0,0v-0.1l0,0l0,0l0,0
					v-0.1l0,0v-0.1l0,0v-0.1l0,0l0,0V88h3l0.6,3.4h5.9v-0.1l0,0l0,0h0v-0.2l0,0l0,0l0,0V91h0l0,0l0,0V91l0,0v-0.1l0,0v-0.1h0l0,0
					l0,0v-0.1l0,0v-0.1h0v-0.1l0,0l0,0l0,0v-0.1h0v-0.1l0,0v-0.1l0,0l0,0l0,0v-0.1l0,0v-0.1l0,0v-0.3l0,0l0,0l0,0V90h0V90l0,0v-0.1
					l0,0l0,0h0v-0.1l0,0v-0.1l0,0v-0.1h0l0,0l0,0v-0.1l0,0v-0.1h0v-0.1h0l0,0l0,0v-0.1l0,0v-0.1h0v-0.1l0,0l0,0l0,0v-0.1h0v-0.3l0,0
					V89l0,0V89l0,0v-0.1l0,0v-0.1l0,0v-0.1l0,0v-0.1l0,0v-0.1l0,0v-0.1l0,0v-0.1l0,0v-0.1h0v-0.1l0,0l0,0l0,0v-0.1h0v-0.1l0,0v-0.1
					l0,0l0,0l-5.8-30.6L211.7,57.6z M213.3,78l0.2,1.1h-0.4L213.3,78z"/>
				<polygon class="st11" points="211.7,57.5 217.5,57.5 214.6,60.2 				"/>
				<polygon class="st9" points="214.6,60.2 214.6,70.5 213.1,79.1 209.9,82 				"/>
				<polygon class="st11" points="219.3,82 209.9,82 213.1,79.1 216.1,79.1 				"/>
				<polygon class="st9" points="209.2,85.4 209.9,82 212.3,84.8 211.8,88.2 				"/>
				<polygon class="st10" points="205.9,88.2 209.2,85.4 211.8,88.2 				"/>
				<polygon class="st4" points="211.7,57.5 214.6,60.2 209.3,85.5 205.9,88.2 				"/>
				<polygon class="st9" points="217.5,57.5 214.6,60.2 220,85.4 223.3,88.2 				"/>
				<polygon class="st4" points="217.4,88.2 216.9,84.8 219.3,82 220,85.4 				"/>
				<polygon class="st10" points="223.3,88.2 220,85.4 217.4,88.2 				"/>
				<polygon class="st10" points="212.3,84.8 216.9,84.8 219.3,82 209.9,82 				"/>
				<polygon class="st4" points="214.6,60.2 214.6,70.5 216.1,79.1 219.3,82 				"/>
				<polygon class="st6" points="234.9,57.6 240.5,57.6 240.5,88.2 240.5,88.2 240.5,57.5 234.9,57.5 				"/>
				<polygon class="st3" points="234.9,57.6 234.8,57.6 234.8,57.7 234.8,57.7 234.8,57.7 234.8,57.7 234.8,57.8 234.7,57.8 
					234.7,57.8 234.7,57.8 234.7,57.9 234.7,57.9 234.7,57.9 234.6,57.9 234.6,58 234.6,58 234.6,58 234.6,58 234.6,58.1 
					234.5,58.1 234.5,58.2 234.5,58.2 234.5,58.2 234.4,58.2 234.4,58.3 234.4,58.3 234.4,58.3 234.4,58.3 234.4,58.4 234.3,58.4 
					234.3,58.4 234.3,58.4 234.3,58.5 234.3,58.5 234.3,58.5 234.2,58.5 234.2,58.6 234.2,58.6 234.2,58.7 234.1,58.7 234.1,58.7 
					234.1,58.7 234.1,58.8 234.1,58.8 234.1,58.8 234,58.8 234,58.9 234,58.9 234,58.9 234,58.9 234,59 233.9,59 233.9,59 233.9,59 
					233.9,59.1 233.9,59.1 233.9,59.2 233.8,59.2 233.8,59.2 233.8,59.2 233.8,59.3 233.7,59.3 233.7,59.3 233.7,59.3 233.7,59.4 
					233.7,59.4 233.7,59.4 233.6,59.4 233.6,59.5 233.6,59.5 233.6,59.5 233.6,59.5 233.6,59.6 233.5,59.6 233.5,59.6 233.5,59.6 
					233.5,59.7 233.4,59.7 233.4,59.8 233.4,59.8 233.4,59.8 233.4,59.8 233.4,59.9 233.3,59.9 233.3,59.9 233.3,59.9 233.3,60 
					233.3,60 233.3,60 233.2,60 233.2,60.1 233.2,60.1 233.2,60.1 233.2,60.1 233.2,60.2 233.1,60.2 233.1,60.3 233.1,60.3 
					233.1,60.3 233.1,60.3 233.1,60.4 233,60.4 233,60.4 233,60.4 233,60.5 232.9,60.5 232.9,60.5 232.9,60.5 232.9,60.6 
					232.9,60.6 232.9,60.6 232.8,60.6 232.8,91.3 238.5,91.3 238.5,91.2 238.5,91.2 238.5,91.2 238.6,91.2 238.6,91.1 238.6,91.1 
					238.6,91.1 238.6,91.1 238.6,91 238.7,91 238.7,90.9 238.7,90.9 238.7,90.9 238.7,90.9 238.7,90.8 238.8,90.8 238.8,90.8 
					238.8,90.8 238.8,90.7 238.9,90.7 238.9,90.7 238.9,90.7 238.9,90.6 238.9,90.6 238.9,90.6 239,90.6 239,90.5 239,90.5 
					239,90.5 239,90.5 239,90.4 239.1,90.4 239.1,90.3 239.1,90.3 239.1,90.3 239.1,90.3 239.1,90.2 239.2,90.2 239.2,90.2 
					239.2,90.2 239.2,90.1 239.3,90.1 239.3,90.1 239.3,90.1 239.3,90 239.3,90 239.3,90 239.4,90 239.4,89.9 239.4,89.9 
					239.4,89.9 239.4,89.9 239.4,89.8 239.5,89.8 239.5,89.8 239.5,89.8 239.5,89.7 239.6,89.7 239.6,89.6 239.6,89.6 239.6,89.6 
					239.6,89.6 239.6,89.5 239.7,89.5 239.7,89.5 239.7,89.5 239.7,89.4 239.7,89.4 239.7,89.4 239.8,89.4 239.8,89.3 239.8,89.3 
					239.8,89.3 239.8,89.3 239.8,89.2 239.9,89.2 239.9,89.1 239.9,89.1 239.9,89.1 239.9,89.1 239.9,89 240,89 240,89 240,89 
					240,88.9 240.1,88.9 240.1,88.9 240.1,88.9 240.1,88.8 240.1,88.8 240.1,88.8 240.2,88.8 240.2,88.7 240.2,88.7 240.2,88.6 
					240.3,88.6 240.3,88.6 240.3,88.6 240.3,88.5 240.3,88.5 240.3,88.5 240.4,88.5 240.4,88.4 240.4,88.4 240.4,88.4 240.4,88.4 
					240.4,88.3 240.5,88.3 240.5,88.3 240.5,88.3 240.5,88.2 240.5,57.6 				"/>
				<polygon class="st11" points="234.9,57.5 237.7,60.2 240.5,57.5 				"/>
				<polygon class="st10" points="234.9,88.2 237.7,85.4 240.5,88.2 				"/>
				<polygon class="st9" points="240.5,57.5 237.7,60.2 237.7,85.4 240.5,88.2 				"/>
				<polygon class="st4" points="234.9,57.5 237.7,60.2 237.7,85.4 234.9,88.2 				"/>
				<polygon class="st6" points="257.8,69.4 258.5,70.2 265.5,70.2 269.3,73.8 269.3,84.6 269.4,84.5 269.4,73.8 265.6,70.1 
					258.5,70.1 257.8,69.4 257.8,66.1 257.8,66.1 				"/>
				<polygon class="st6" points="255.9,58.3 252.1,61.2 252.1,61.2 255.9,57.6 265.5,57.6 269.3,61.3 269.3,66.4 269.4,66.4 
					269.4,61.2 265.8,58.3 				"/>
				<path class="st6" d="M257.8,82.7h2.3l0,0h1.6v-0.1H260l0,0L257.8,82.7l0-3.3h-5.7v0.1h5.6L257.8,82.7z"/>
				<path class="st3" d="M265.5,57.6h-9.7l-3.7,3.6l0,0l0,0l0,0l0,0l0,0l0,0l0,0l0,0l0,0l0,0l0,0l0,0l0,0l0,0l0,0l0,0l0,0l0,0l0,0
					l0,0l0,0l0,0l0,0l0,0l0,0l0,0l0,0l0,0l0,0l0,0l0,0l0,0l0,0l0,0l0,0l0,0l0,0l0,0l0,0l0,0l0,0l0,0l0,0l0,0l0,0l0,0l0,0l0,0l0,0
					l0,0l0,0l0,0l0,0l0,0l0,0l0,0l0,0l0,0l0,0l0,0l0,0l0,0l0,0l0,0l0,0l0,0l0,0l0,0l0,0l0,0l0,0l0,0l0,0l0,0l0,0l0,0l0,0l0,0l0,0
					l0,0l0,0l0,0l0,0l0,0l0,0l0,0l0,0l0,0l0,0l0,0l0,0l0,0l0,0l0,0l0,0l0,0l0,0l0,0l0,0l0,0l0,0l0,0l0,0l0,0l0,0l0,0l0,0l0,0l0,0
					l0,0l0,0V72l3.8,3.7h7.1l0.6,0.6v3.3H260l0,0h-2.2v-3.3h-5.7l0,0l0,0v0.1l0,0v0.1l0,0v0.1l0,0v0.1l0,0v0.1l0,0v0.1l0,0v0.1l0,0
					v0.1l0,0v0.1l0,0v0.1l0,0v3.2l0,0v0.1l0,0v0.1l0,0l0,0l0,0v0.1l0,0v0.1l0,0v0.1l0,0l0,0l0,0v0.1l0,0v0.1l0,0v0.1l0,0l0,0l0,0
					v0.1l0,0v0.1l0,0v0.1l0,0l0,0l0,0v0.1l0,0v0.1l0,0v0.3l0,0l0,0l0,0v0.1l0,0v0.1l0,0v0.1l0,0l0,0l0,0v0.1l0,0v0.1l0,0v0.1l0,0
					l0,0l0,0v0.1l0,0v0.1l0,0v0.1l0,0l0,0l0,0v0.1l0,0v0.1l0,0v0.1l0,0l0,0l0,0v0.3l0,0l0,0l0,0v0.1l0,0l0,0l0,0v0.1l0,0v0.1l0,0
					v0.1l0,0v0.1l0,0v5.2l3.8,3.7h9.7l3.8-3.7l0,0l0,0l0,0l0,0l0,0l0,0l0,0l0,0l0,0l0,0l0,0l0,0l0,0l0,0l0,0l0,0l0,0l0,0l0,0l0,0
					l0,0l0,0l0,0l0,0l0,0l0,0l0,0l0,0l0,0l0,0l0,0l0,0l0,0l0,0l0,0l0,0l0,0l0,0l0,0l0,0l0,0l0,0l0,0l0,0l0,0l0,0l0,0l0,0l0,0l0,0
					l0,0l0,0l0,0l0,0l0,0l0,0l0,0l0,0l0,0l0,0l0,0l0,0l0,0l0,0l0,0l0,0l0,0l0,0l0,0l0,0l0,0l0,0l0,0l0,0l0,0l0,0l0,0l0,0l0,0l0,0
					l0,0l0,0l0,0l0,0l0,0l0,0l0,0l0,0l0,0l0,0l0,0l0,0l0,0l0,0l0,0l0,0l0,0l0,0l0,0l0,0l0,0l0,0l0,0l0,0l0,0l0,0l0,0l0,0l0,0l0,0
					V73.8l-3.8-3.7h-7l-0.7-0.7v-3.3h3.9v3.3h5.7v-0.1l0,0l0,0l0,0v-0.1l0,0v-0.1l0,0v-0.1l0,0l0,0l0,0v-0.2l0,0V69l0,0V69l0,0l0,0
					l0,0v-0.1l0,0v-0.1l0,0v-0.1l0,0l0,0l0,0v-0.1l0,0v-0.1l0,0v-0.1l0,0v-0.1l0,0v-0.1l0,0v-0.1l0,0v-0.1l0,0v-0.1l0,0v-0.1l0,0
					v-0.1l0,0v-0.2l0,0l0,0l0,0V68l0,0l0,0l0,0V68l0,0v-0.1l0,0v-0.1l0,0l0,0l0,0v-0.1l0,0v-0.1l0,0v-0.1l0,0l0,0l0,0v-0.1l0,0v-0.1
					l0,0v-0.1l0,0l0,0l0,0v-0.1l0,0v-0.1l0,0v-0.3l0,0l0,0l0,0V67l0,0V67l0,0v-0.1l0,0l0,0l0,0v-0.1l0,0v-0.1l0,0v-0.1l0,0l0,0l0,0
					v-0.1l0,0v-0.1l0,0v-0.1l0,0v-5.2L265.5,57.6z"/>
				<polygon class="st11" points="257.2,60.3 266.7,60.3 265.5,57.6 255.9,57.6 				"/>
				<polygon class="st4" points="266.5,60.3 263.7,63.1 263.7,66.4 266.5,63.6 				"/>
				<polygon class="st9" points="266.5,63.6 266.5,60.3 269.4,61.3 269.4,66.4 				"/>
				<polygon class="st10" points="263.7,66.4 266.5,63.6 269.4,66.4 				"/>
				<polygon class="st6" points="252.1,61.2 255,62.5 257.2,60.3 255.9,57.6 				"/>
				<polygon class="st13" points="258.5,63.1 257.8,63.7 255,62.5 257.2,60.3 				"/>
				<polygon class="st4" points="252.1,61.2 255,62.5 255,70.7 252.1,71.9 				"/>
				<polygon class="st9" points="257.8,69.4 255,70.7 255,62.5 257.8,63.7 				"/>
				<polygon class="st5" points="255.9,75.6 257.2,72.9 255,70.7 252.1,71.9 				"/>
				<polygon class="st12" points="257.8,69.4 255,70.7 257.2,72.9 258.5,70.1 				"/>
				<polygon class="st11" points="264.3,72.9 265.6,70.1 258.5,70.1 257.2,72.9 				"/>
				<polygon class="st10" points="255.9,75.6 263,75.6 264.3,72.9 257.2,72.9 				"/>
				<polygon class="st12" points="269.4,73.8 266.4,75 264.3,72.9 265.6,70.1 				"/>
				<polygon class="st5" points="263.6,76.3 266.4,75 264.3,72.9 263,75.6 				"/>
				<polygon class="st12" points="265.5,57.6 269.4,61.3 266.5,60.3 				"/>
				<polygon class="st10" points="263.7,63.1 266.5,60.3 257.2,60.3 258.5,63.1 				"/>
				<polygon class="st10" points="264.3,85.4 254.8,85.4 255.9,88.1 265.6,88.1 				"/>
				<polygon class="st9" points="254.9,85.4 257.8,82.6 257.8,79.3 254.9,82.1 				"/>
				<polygon class="st4" points="254.9,82.1 254.9,85.4 252,84.4 252.1,79.3 				"/>
				<polygon class="st11" points="257.8,79.3 254.9,82.1 252.1,79.3 				"/>
				<polygon class="st5" points="255.9,88.1 252,84.4 254.9,85.4 				"/>
				<polygon class="st11" points="257.8,82.6 254.9,85.4 264.3,85.4 263,82.6 				"/>
				<polygon class="st4" points="263.6,76.3 266.4,75 266.4,83.2 263.6,81.9 				"/>
				<polygon class="st6" points="264.3,85.4 266.4,83.2 263.6,81.9 263,82.6 				"/>
				<polygon class="st13" points="265.6,88.2 269.4,84.5 266.4,83.2 264.3,85.4 				"/>
				<polygon class="st9" points="266.4,75 266.4,83.2 269.4,84.5 269.4,73.8 				"/>
				<polygon class="st6" points="286.7,82.7 298.2,82.7 298.2,88.2 298.3,88.2 298.3,82.7 286.7,82.7 286.7,78.8 286.7,78.8 				"/>
				<polygon class="st6" points="281.1,57.6 298.2,57.6 298.2,63.1 298.3,63.1 298.3,57.5 281.1,57.5 				"/>
				<polygon class="st6" points="286.7,70.1 292.6,70.1 292.6,75.7 292.6,75.7 292.6,70.1 286.7,70.1 286.7,66.1 286.7,66.1 				"/>
				<polygon class="st3" points="281.1,57.6 281,57.6 281,57.7 281,57.7 281,57.7 281,57.7 281,57.8 280.9,57.8 280.9,57.8 
					280.9,57.8 280.9,57.9 280.9,57.9 280.9,57.9 280.8,57.9 280.8,58 280.8,58 280.8,58 280.7,58 280.7,58.1 280.7,58.1 
					280.7,58.2 280.7,58.2 280.7,58.2 280.6,58.2 280.6,58.3 280.6,58.3 280.6,58.3 280.6,58.3 280.6,58.4 280.5,58.4 280.5,58.4 
					280.5,58.4 280.5,58.5 280.5,58.5 280.5,58.5 280.4,58.5 280.4,58.6 280.4,58.6 280.4,58.7 280.3,58.7 280.3,58.7 280.3,58.7 
					280.3,58.8 280.3,58.8 280.3,58.8 280.2,58.8 280.2,58.9 280.2,58.9 280.2,58.9 280.1,58.9 280.1,59 280.1,59 280.1,59 
					280.1,59 280.1,59.1 280,59.1 280,59.2 280,59.2 280,59.2 280,59.2 280,59.3 279.9,59.3 279.9,59.3 279.9,59.3 279.9,59.4 
					279.9,59.4 279.9,59.4 279.8,59.4 279.8,59.5 279.8,59.5 279.8,59.5 279.8,59.5 279.8,59.6 279.7,59.6 279.7,59.6 279.7,59.6 
					279.7,59.7 279.6,59.7 279.6,59.8 279.6,59.8 279.6,59.8 279.6,59.8 279.6,59.9 279.5,59.9 279.5,59.9 279.5,59.9 279.5,60 
					279.5,60 279.5,60 279.4,60 279.4,60.1 279.4,60.1 279.4,60.1 279.4,60.1 279.4,60.2 279.3,60.2 279.3,60.3 279.3,60.3 
					279.3,60.3 279.2,60.3 279.2,60.4 279.2,60.4 279.2,60.4 279.2,60.4 279.2,60.5 279.1,60.5 279.1,60.5 279.1,60.5 279.1,60.6 
					279,60.6 279,60.6 279,60.6 279,91.3 296.2,91.3 296.2,91.2 296.3,91.2 296.3,91.2 296.3,91.2 296.3,91.1 296.3,91.1 
					296.3,91.1 296.4,91.1 296.4,91 296.4,91 296.4,90.9 296.4,90.9 296.4,90.9 296.5,90.9 296.5,90.8 296.5,90.8 296.5,90.8 
					296.5,90.8 296.5,90.7 296.6,90.7 296.6,90.7 296.6,90.7 296.6,90.6 296.7,90.6 296.7,90.6 296.7,90.6 296.7,90.5 296.7,90.5 
					296.7,90.5 296.8,90.5 296.8,90.4 296.8,90.4 296.8,90.3 296.8,90.3 296.8,90.3 296.9,90.3 296.9,90.2 296.9,90.2 296.9,90.2 
					297,90.2 297,90.1 297,90.1 297,90.1 297,90.1 297,90 297.1,90 297.1,90 297.1,90 297.1,89.9 297.1,89.9 297.1,89.9 297.2,89.9 
					297.2,89.8 297.2,89.8 297.2,89.8 297.2,89.8 297.2,89.7 297.3,89.7 297.3,89.6 297.3,89.6 297.3,89.6 297.4,89.6 297.4,89.5 
					297.4,89.5 297.4,89.5 297.4,89.5 297.4,89.4 297.5,89.4 297.5,89.4 297.5,89.4 297.5,89.3 297.5,89.3 297.5,89.3 297.6,89.3 
					297.6,89.2 297.6,89.2 297.6,89.1 297.6,89.1 297.6,89.1 297.7,89.1 297.7,89 297.7,89 297.7,89 297.8,89 297.8,88.9 
					297.8,88.9 297.8,88.9 297.8,88.9 297.8,88.8 297.9,88.8 297.9,88.8 297.9,88.8 297.9,88.7 297.9,88.7 297.9,88.6 298,88.6 
					298,88.6 298,88.6 298,88.5 298,88.5 298,88.5 298.1,88.5 298.1,88.4 298.1,88.4 298.1,88.4 298.2,88.4 298.2,88.3 298.2,88.3 
					298.2,88.3 298.2,88.3 298.2,88.2 298.2,82.7 286.7,82.7 286.7,78.8 286.7,78.8 290.6,78.8 290.6,78.7 290.6,78.7 290.6,78.7 
					290.6,78.7 290.6,78.6 290.7,78.6 290.7,78.6 290.7,78.6 290.7,78.5 290.7,78.5 290.7,78.4 290.8,78.4 290.8,78.4 290.8,78.4 
					290.8,78.3 290.9,78.3 290.9,78.3 290.9,78.3 290.9,78.2 290.9,78.2 290.9,78.2 291,78.2 291,78.1 291,78.1 291,78.1 291,78.1 
					291,78 291.1,78 291.1,77.9 291.1,77.9 291.1,77.9 291.1,77.9 291.1,77.8 291.2,77.8 291.2,77.8 291.2,77.8 291.2,77.7 
					291.3,77.7 291.3,77.7 291.3,77.7 291.3,77.6 291.3,77.6 291.3,77.6 291.4,77.6 291.4,77.5 291.4,77.5 291.4,77.5 291.4,77.5 
					291.4,77.4 291.5,77.4 291.5,77.3 291.5,77.3 291.5,77.3 291.5,77.3 291.5,77.2 291.6,77.2 291.6,77.2 291.6,77.2 291.6,77.1 
					291.7,77.1 291.7,77.1 291.7,77.1 291.7,77 291.7,77 291.7,77 291.8,77 291.8,76.9 291.8,76.9 291.8,76.8 291.8,76.8 
					291.8,76.8 291.9,76.8 291.9,76.7 291.9,76.7 291.9,76.7 292,76.7 292,76.6 292,76.6 292,76.6 292,76.6 292,76.5 292.1,76.5 
					292.1,76.5 292.1,76.5 292.1,76.4 292.1,76.4 292.1,76.4 292.2,76.4 292.2,76.3 292.2,76.3 292.2,76.3 292.2,76.3 292.2,76.2 
					292.3,76.2 292.3,76.1 292.3,76.1 292.3,76.1 292.4,76.1 292.4,76 292.4,76 292.4,76 292.4,76 292.4,75.9 292.5,75.9 
					292.5,75.9 292.5,75.9 292.5,75.8 292.5,75.8 292.5,75.8 292.6,75.8 292.6,75.7 292.6,70.1 286.7,70.1 286.7,66.1 286.7,66.1 
					296.2,66.1 296.2,66.1 296.3,66.1 296.3,66 296.3,66 296.3,66 296.3,66 296.3,65.9 296.4,65.9 296.4,65.9 296.4,65.9 
					296.4,65.8 296.4,65.8 296.4,65.8 296.5,65.8 296.5,65.7 296.5,65.7 296.5,65.7 296.5,65.7 296.5,65.6 296.6,65.6 296.6,65.5 
					296.6,65.5 296.6,65.5 296.7,65.5 296.7,65.4 296.7,65.4 296.7,65.4 296.7,65.4 296.7,65.3 296.8,65.3 296.8,65.3 296.8,65.3 
					296.8,65.2 296.8,65.2 296.8,65.2 296.9,65.2 296.9,65.1 296.9,65.1 296.9,65 297,65 297,65 297,65 297,64.9 297,64.9 297,64.9 
					297.1,64.9 297.1,64.8 297.1,64.8 297.1,64.8 297.1,64.8 297.1,64.7 297.2,64.7 297.2,64.7 297.2,64.7 297.2,64.6 297.2,64.6 
					297.2,64.6 297.3,64.6 297.3,64.5 297.3,64.5 297.3,64.4 297.4,64.4 297.4,64.4 297.4,64.4 297.4,64.3 297.4,64.3 297.4,64.3 
					297.5,64.3 297.5,64.2 297.5,64.2 297.5,64.2 297.5,64.2 297.5,64.1 297.6,64.1 297.6,64.1 297.6,64.1 297.6,64 297.6,64 
					297.6,63.9 297.7,63.9 297.7,63.9 297.7,63.9 297.7,63.8 297.8,63.8 297.8,63.8 297.8,63.8 297.8,63.7 297.8,63.7 297.8,63.7 
					297.9,63.7 297.9,63.6 297.9,63.6 297.9,63.6 297.9,63.6 297.9,63.5 298,63.5 298,63.5 298,63.5 298,63.4 298,63.4 298,63.3 
					298.1,63.3 298.1,63.3 298.1,63.3 298.1,63.2 298.2,63.2 298.2,63.2 298.2,63.2 298.2,63.1 298.2,63.1 298.2,63.1 298.2,57.6 
									"/>
				<polygon class="st9" points="298.3,63.1 296.2,60.4 298.3,57.5 				"/>
				<polygon class="st9" points="298.3,88.2 296.2,85.4 298.3,82.6 				"/>
				<polygon class="st9" points="292.6,75.7 290.5,72.9 292.6,70.1 				"/>
				<polygon class="st4" points="281.1,57.5 283.9,60.4 283.9,85.4 281.1,88.2 				"/>
				<polygon class="st11" points="283.9,60.4 296.2,60.4 298.3,57.5 281.1,57.5 				"/>
				<polygon class="st10" points="283.9,60.4 286.7,63.1 298.3,63.1 296.2,60.4 				"/>
				<polygon class="st10" points="283.9,85.4 296.2,85.4 298.3,88.2 281.1,88.2 				"/>
				<polygon class="st11" points="286.7,82.7 283.9,85.4 296.2,85.4 298.3,82.6 				"/>
				<polygon class="st10" points="290.5,72.9 283.9,72.9 286.7,75.7 292.6,75.7 				"/>
				<polygon class="st11" points="292.6,70.1 286.7,70.1 283.9,72.9 290.5,72.9 				"/>
				<polygon class="st9" points="283.9,60.4 283.9,72.9 286.7,70.1 286.7,63.1 				"/>
				<polygon class="st9" points="286.7,82.7 283.9,85.4 283.9,72.9 286.7,75.7 				"/>
				<polygon class="st6" points="315.4,82.7 315.4,66.1 315.4,66.1 315.4,82.7 319.2,82.7 319.2,82.7 				"/>
				<polygon class="st6" points="326.9,61.2 323.2,57.5 309.8,57.5 309.8,57.6 323.1,57.6 326.9,61.3 326.9,84.6 326.9,84.5 				"/>
				<path class="st3" d="M323.1,57.6h-13.4l0,0l0,0v0.1l0,0v0.1l0,0v0.1l0,0l0,0l0,0v0.1l0,0v0.1l0,0v0.2l0,0l0,0l0,0l0,0l0,0v0.1
					l0,0v0.1l0,0l0,0l0,0v0.1l0,0v0.1l0,0v0.1l0,0l0,0l0,0v0.1l0,0v0.1l0,0v0.1l0,0l0,0l0,0v0.1l0,0v0.1l0,0v0.1l0,0l0,0l0,0v0.4
					l0,0l0,0l0,0v0.1l0,0v0.1l0,0v0.1l0,0v0.1l0,0v0.1l0,0v0.1l0,0v0.1l0,0v0.1l0,0v0.1l0,0v0.1l0,0v0.1l0,0l0,0l0,0v0.1l0,0v0.1
					l0,0v0.1l0,0l0,0l0,0v0.1l0,0v0.2l0,0v0.1l0,0l0,0l0,0v0.1l0,0v0.1l0,0v0.1l0,0l0,0l0,0v0.1l0,0v0.1l0,0v0.1l0,0l0,0l0,0v30.8
					h13.4l3.8-3.7l0,0l0,0l0,0l0,0l0,0l0,0l0,0l0,0l0,0l0,0l0,0l0,0l0,0l0,0l0,0l0,0l0,0l0,0l0,0l0,0l0,0l0,0l0,0l0,0l0,0l0,0l0,0
					l0,0l0,0l0,0l0,0l0,0l0,0l0,0l0,0l0,0l0,0l0,0l0,0l0,0l0,0l0,0l0,0l0,0l0,0l0,0l0,0l0,0l0,0l0,0l0,0l0,0l0,0l0,0l0,0l0,0l0,0
					l0,0l0,0l0,0l0,0l0,0l0,0l0,0l0,0l0,0l0,0l0,0l0,0l0,0l0,0l0,0l0,0l0,0l0,0l0,0l0,0l0,0l0,0l0,0l0,0l0,0l0,0l0,0l0,0l0,0l0,0
					l0,0l0,0l0,0l0,0l0,0l0,0l0,0l0,0l0,0l0,0l0,0l0,0l0,0l0,0l0,0l0,0l0,0l0,0l0,0l0,0l0,0l0,0l0,0V61.3L323.1,57.6z M315.4,82.7
					V66.1h3.2l0.7,0.7v15.9L315.4,82.7z"/>
				<polygon class="st4" points="309.8,88.2 312.6,85.4 312.6,60.3 309.7,57.5 				"/>
				<polygon class="st11" points="321.3,81.9 326.9,84.5 323.2,88.2 320.5,82.6 				"/>
				<polygon class="st11" points="312.6,85.4 321.8,85.4 320.5,82.6 315.4,82.6 				"/>
				<polygon class="st13" points="321.8,85.4 324.1,83.2 326.9,84.5 323.2,88.2 				"/>
				<polygon class="st10" points="309.8,88.2 323.2,88.2 321.8,85.4 312.6,85.4 				"/>
				<polygon class="st5" points="321.3,63.8 326.9,61.2 323.2,57.5 320.5,63.1 				"/>
				<polygon class="st10" points="312.5,60.3 321.8,60.3 320.5,63.1 315.4,63.1 				"/>
				<polygon class="st12" points="321.8,60.3 324.1,62.5 326.9,61.2 323.2,57.5 				"/>
				<polygon class="st11" points="309.7,57.5 323.2,57.5 321.8,60.3 312.5,60.3 				"/>
				<polygon class="st9" points="315.4,82.6 315.4,63.1 312.6,60.3 312.6,85.4 				"/>
				<polygon class="st4" points="324.1,83.2 324.1,62.5 321.3,63.8 321.3,81.9 				"/>
				<polygon class="st9" points="326.9,61.2 324.1,62.5 324.1,83.2 326.9,84.5 				"/>
				<polygon class="st4" points="99.8,120.9 99.8,112.5 101.8,112.5 101.8,119.1 105.5,119.1 105.5,120.9 				"/>
				<path class="st4" d="M114.8,112.3c2.4,0.1,4.3,2.1,4.3,4.5s-2.1,4.3-4.5,4.3c-2.4-0.1-4.3-2-4.3-4.4c0-2.4,1.9-4.4,4.2-4.4
					C114.6,112.3,114.7,112.3,114.8,112.3 M114.8,119.2c1.4,0,2.6-1.1,2.6-2.5s-1.1-2.6-2.5-2.6c-1.4,0-2.6,1.1-2.6,2.5
					c0,0,0,0,0,0.1c-0.1,1.3,0.9,2.5,2.3,2.5C114.6,119.2,114.7,119.2,114.8,119.2"/>
				<path class="st4" d="M124.4,116.7c0-2.4,1.9-4.4,4.3-4.4c0.1,0,0.1,0,0.2,0c1.8-0.2,3.5,1,4,2.8l-1.8,0.6
					c-0.3-1-1.2-1.7-2.2-1.6c-1.4,0-2.5,1.1-2.5,2.5c0,1.4,1.1,2.5,2.5,2.5c1,0.1,2-0.6,2.3-1.6l1.8,0.5c-0.5,1.8-2.2,3.1-4.1,2.9
					c-2.4,0.1-4.4-1.7-4.5-4.1C124.3,116.9,124.3,116.8,124.4,116.7"/>
				<path class="st4" d="M143.3,119.2h-3.3l-0.6,1.7h-2l3.3-8.4h2.2l3.2,8.4h-2.1L143.3,119.2z M140.5,117.5h2.1l-1-2.9L140.5,117.5
					z"/>
				<polygon class="st4" points="151.3,120.9 151.3,112.5 153.2,112.5 153.2,119.1 156.9,119.1 156.9,120.9 				"/>
				<polygon class="st4" points="169.6,120.9 169.6,112.5 175.2,112.5 175.2,114.3 171.5,114.3 171.5,116.1 174.7,116.1 
					174.7,117.8 171.6,117.8 171.6,120.9 				"/>
				<path class="st4" d="M185.2,119.2h-3.3l-0.6,1.7h-2l3.3-8.4h2.2l3.2,8.4h-2.1L185.2,119.2z M182.5,117.5h2.1l-1-2.9L182.5,117.5
					z"/>
				<path class="st4" d="M195.8,117.8h-0.7v3.1h-1.9v-8.4h3.4c1.4-0.1,2.7,1,2.8,2.4c0,0.1,0,0.2,0,0.2c0,1.1-0.7,2.1-1.7,2.4
					l1.8,3.4h-2.1L195.8,117.8z M196.3,116.2c0.8,0,1.2-0.4,1.2-1s-0.4-1-1.2-1h-1.1v2H196.3z"/>
				<polygon class="st4" points="213,120.9 213,115.3 210.8,120.9 209.2,120.9 206.9,115.4 206.9,120.9 205.1,120.9 205.1,112.5 
					207.6,112.5 210,118.2 212.3,112.5 214.9,112.5 214.9,120.9 				"/>
				<path class="st4" d="M225.2,115.1c-0.1-0.7-0.8-1.1-1.4-1.1c-0.7,0-1.2,0.4-1.2,0.9s0.3,0.7,0.8,0.8l1.2,0.2
					c1.4,0.1,2.4,1.2,2.5,2.5c0,1.3-1.1,2.7-3.2,2.7c-2.4,0-3.4-1.5-3.5-2.7l1.8-0.4c0.1,0.9,0.8,1.5,1.7,1.5c0,0,0.1,0,0.1,0
					c0.8,0,1.2-0.4,1.2-0.9s-0.4-0.7-0.9-0.8l-1.2-0.3c-1.3-0.1-2.3-1.2-2.3-2.5c0.1-1.6,1.5-2.8,3-2.7c0,0,0,0,0,0
					c2.2,0,3,1.3,3.2,2.2L225.2,115.1z"/>
			</g>
		</g>
	</g>
</g>
</svg>
