<svg version="1.1" id="Layer_1" xmlns="http://www.w3.org/2000/svg" xmlns:xlink="http://www.w3.org/1999/xlink" x="0px" y="0px" viewBox="0 0 32.8 22.7" style="enable-background:new 0 0 32.8 22.7;" xml:space="preserve"> <g> <g id="Layer_1-2"> <path class="st0" fill="currentColor" d="M16.4,22.7c-3.6,0-7.2,0-10.8,0c-2.3,0-4.4-1.4-5.2-3.6c-0.2-0.6-0.4-1.3-0.4-2c0-3.9,0-7.7,0-11.6 C0,2.5,2.4,0,5.5,0c0,0,0,0,0.1,0h21.7c3,0,5.5,2.4,5.5,5.5c0,3.9,0,7.8,0,11.8c0,3-2.5,5.5-5.5,5.5C23.7,22.7,20,22.7,16.4,22.7 M12.6,11.3v4.8c0,0.5,0.1,0.6,0.6,0.4c3.2-1.6,6.3-3.2,9.5-4.9c0.1-0.1,0.3-0.2,0.3-0.3s-0.2-0.3-0.3-0.4l-9.5-4.9 c-0.5-0.2-0.6-0.1-0.6,0.4V11.3"/></g></g></svg>
